<svg xmlns="http://www.w3.org/2000/svg" width="212" height="210" viewBox="0 0 212 210" fill="none"><rect width="211.371" height="210" rx="8.28905" fill="white"></rect><path d="M26.2757 185.627H26.8598V189.075C26.8598 189.383 26.8032 189.644 26.6902 189.859C26.5772 190.074 26.4178 190.237 26.2122 190.349C26.0065 190.46 25.764 190.516 25.4845 190.516C25.2208 190.516 24.9861 190.468 24.7804 190.372C24.5748 190.275 24.4131 190.137 24.2953 189.958C24.1776 189.779 24.1187 189.566 24.1187 189.32H24.6933C24.6933 189.456 24.727 189.576 24.7946 189.678C24.8636 189.778 24.9578 189.857 25.0771 189.913C25.1964 189.97 25.3322 189.998 25.4845 189.998C25.6525 189.998 25.7954 189.963 25.9131 189.892C26.0308 189.821 26.1203 189.718 26.1816 189.581C26.2444 189.443 26.2757 189.274 26.2757 189.075V185.627ZM29.0191 190.535C28.7899 190.535 28.5819 190.492 28.3951 190.405C28.2083 190.318 28.0599 190.191 27.95 190.026C27.8402 189.86 27.7852 189.659 27.7852 189.423C27.7852 189.216 27.826 189.048 27.9077 188.92C27.9893 188.789 28.0984 188.687 28.235 188.613C28.3716 188.54 28.5223 188.485 28.6871 188.449C28.8535 188.411 29.0207 188.381 29.1887 188.359C29.4085 188.331 29.5867 188.31 29.7232 188.296C29.8614 188.28 29.9619 188.254 30.0247 188.218C30.089 188.182 30.1212 188.119 30.1212 188.029V188.011C30.1212 187.778 30.0576 187.598 29.9305 187.469C29.8049 187.34 29.6141 187.276 29.3582 187.276C29.0929 187.276 28.8849 187.334 28.7342 187.45C28.5835 187.566 28.4775 187.69 28.4163 187.822L27.8888 187.634C27.983 187.414 28.1086 187.243 28.2656 187.12C28.4242 186.996 28.5968 186.91 28.7837 186.861C28.972 186.811 29.1573 186.786 29.3394 186.786C29.4556 186.786 29.589 186.8 29.7397 186.828C29.892 186.855 30.0388 186.911 30.1801 186.996C30.3229 187.08 30.4415 187.208 30.5357 187.379C30.6299 187.551 30.677 187.78 30.677 188.067V190.45H30.1212V189.96H30.093C30.0553 190.039 29.9925 190.123 29.9046 190.212C29.8167 190.302 29.6997 190.378 29.5537 190.441C29.4077 190.504 29.2295 190.535 29.0191 190.535ZM29.1039 190.036C29.3237 190.036 29.509 189.993 29.6597 189.906C29.8119 189.82 29.9265 189.708 30.0035 189.572C30.082 189.435 30.1212 189.292 30.1212 189.141V188.632C30.0977 188.661 30.0459 188.686 29.9658 188.71C29.8873 188.732 29.7962 188.752 29.6926 188.769C29.5906 188.785 29.4909 188.799 29.3936 188.811C29.2978 188.822 29.2201 188.832 29.1604 188.839C29.016 188.858 28.881 188.889 28.7554 188.931C28.6314 188.972 28.5309 189.034 28.454 189.117C28.3786 189.199 28.3409 189.31 28.3409 189.452C28.3409 189.645 28.4124 189.791 28.5552 189.89C28.6997 189.987 28.8826 190.036 29.1039 190.036ZM32.247 188.274V190.45H31.6913V186.833H32.2282V187.398H32.2753C32.3601 187.215 32.4888 187.067 32.6615 186.956C32.8342 186.843 33.0571 186.786 33.3303 186.786C33.5752 186.786 33.7895 186.836 33.9732 186.937C34.1568 187.036 34.2997 187.186 34.4017 187.389C34.5038 187.59 34.5548 187.844 34.5548 188.152V190.45H33.9991V188.19C33.9991 187.905 33.9253 187.684 33.7777 187.525C33.6301 187.365 33.4276 187.285 33.1701 187.285C32.9927 187.285 32.8342 187.324 32.6945 187.401C32.5563 187.478 32.4472 187.59 32.3671 187.737C32.2871 187.885 32.247 188.064 32.247 188.274Z" fill="#7B7B7B"></path><path d="M84.6398 185.628H85.3368L86.9758 189.631H87.0323L88.6713 185.628H89.3683V190.451H88.822V186.787H88.7749L87.2678 190.451H86.7403L85.2332 186.787H85.1861V190.451H84.6398V185.628ZM91.5283 190.535C91.2991 190.535 91.0911 190.492 90.9042 190.406C90.7174 190.318 90.5691 190.192 90.4592 190.027C90.3493 189.86 90.2943 189.659 90.2943 189.424C90.2943 189.217 90.3352 189.049 90.4168 188.92C90.4984 188.79 90.6075 188.688 90.7441 188.614C90.8807 188.54 91.0314 188.485 91.1962 188.449C91.3627 188.411 91.5298 188.382 91.6978 188.36C91.9176 188.331 92.0958 188.31 92.2324 188.296C92.3705 188.28 92.471 188.254 92.5338 188.218C92.5982 188.182 92.6303 188.119 92.6303 188.03V188.011C92.6303 187.779 92.5668 187.598 92.4396 187.469C92.314 187.341 92.1233 187.276 91.8674 187.276C91.6021 187.276 91.3941 187.334 91.2433 187.451C91.0926 187.567 90.9867 187.691 90.9254 187.823L90.398 187.634C90.4921 187.415 90.6177 187.243 90.7747 187.121C90.9333 186.997 91.106 186.911 91.2928 186.862C91.4812 186.812 91.6664 186.787 91.8485 186.787C91.9647 186.787 92.0981 186.801 92.2489 186.829C92.4011 186.856 92.5479 186.911 92.6892 186.996C92.8321 187.081 92.9506 187.209 93.0448 187.38C93.139 187.551 93.1861 187.78 93.1861 188.068V190.451H92.6303V189.961H92.6021C92.5644 190.039 92.5016 190.123 92.4137 190.213C92.3258 190.302 92.2088 190.378 92.0628 190.441C91.9168 190.504 91.7386 190.535 91.5283 190.535ZM91.6131 190.036C91.8328 190.036 92.0181 189.993 92.1688 189.907C92.3211 189.82 92.4357 189.709 92.5126 189.572C92.5911 189.436 92.6303 189.292 92.6303 189.141V188.633C92.6068 188.661 92.555 188.687 92.4749 188.71C92.3964 188.732 92.3054 188.752 92.2018 188.769C92.0997 188.785 92 188.799 91.9027 188.812C91.8069 188.823 91.7292 188.832 91.6696 188.84C91.5251 188.859 91.3901 188.889 91.2645 188.932C91.1405 188.973 91.04 189.035 90.9631 189.118C90.8878 189.199 90.8501 189.311 90.8501 189.452C90.8501 189.645 90.9215 189.791 91.0644 189.89C91.2088 189.988 91.3917 190.036 91.6131 190.036ZM94.2004 190.451V186.834H94.7373V187.38H94.775C94.841 187.201 94.9603 187.056 95.133 186.944C95.3056 186.833 95.5003 186.777 95.717 186.777C95.7578 186.777 95.8088 186.778 95.87 186.779C95.9312 186.781 95.9776 186.783 96.009 186.787V187.352C95.9901 187.347 95.9469 187.34 95.8794 187.331C95.8135 187.32 95.7436 187.314 95.6699 187.314C95.494 187.314 95.337 187.351 95.1989 187.425C95.0623 187.497 94.954 187.597 94.8739 187.726C94.7954 187.853 94.7562 187.999 94.7562 188.162V190.451H94.2004Z" fill="#7B7B7B"></path><path d="M51.8798 190.45V185.627H54.7716V186.146H52.4638V187.775H54.5549V188.293H52.4638V190.45H51.8798ZM56.9474 190.526C56.5989 190.526 56.2983 190.449 56.0455 190.295C55.7943 190.139 55.6005 189.923 55.4639 189.645C55.3289 189.365 55.2614 189.04 55.2614 188.67C55.2614 188.299 55.3289 187.973 55.4639 187.69C55.6005 187.406 55.7904 187.185 56.0338 187.026C56.2787 186.866 56.5644 186.786 56.8909 186.786C57.0793 186.786 57.2653 186.817 57.449 186.88C57.6327 186.943 57.7999 187.045 57.9506 187.186C58.1013 187.326 58.2214 187.511 58.3109 187.742C58.4004 187.973 58.4451 188.257 58.4451 188.595V188.83H55.657V188.35H57.88C57.88 188.146 57.8391 187.963 57.7575 187.803C57.6774 187.643 57.5628 187.517 57.4137 187.424C57.2661 187.332 57.0919 187.285 56.8909 187.285C56.6696 187.285 56.478 187.34 56.3163 187.45C56.1562 187.558 56.033 187.7 55.9466 187.874C55.8603 188.048 55.8171 188.235 55.8171 188.434V188.755C55.8171 189.028 55.8642 189.259 55.9584 189.449C56.0542 189.638 56.1868 189.781 56.3564 189.88C56.5259 189.978 56.7229 190.026 56.9474 190.026C57.0934 190.026 57.2253 190.006 57.343 189.965C57.4624 189.923 57.5652 189.86 57.6515 189.777C57.7379 189.692 57.8046 189.587 57.8517 189.461L58.3886 189.612C58.3321 189.794 58.2371 189.954 58.1037 190.092C57.9702 190.229 57.8054 190.336 57.6091 190.413C57.4129 190.488 57.1923 190.526 56.9474 190.526ZM59.3659 190.45V185.627H59.9216V187.408H59.9687C60.0095 187.345 60.066 187.265 60.1382 187.168C60.212 187.069 60.3172 186.981 60.4538 186.904C60.592 186.825 60.7788 186.786 61.0143 186.786C61.3188 186.786 61.5873 186.862 61.8196 187.014C62.052 187.167 62.2333 187.383 62.3636 187.662C62.4939 187.941 62.559 188.271 62.559 188.651C62.559 189.034 62.4939 189.366 62.3636 189.647C62.2333 189.927 62.0527 190.143 61.822 190.297C61.5912 190.449 61.3251 190.526 61.0237 190.526C60.7913 190.526 60.6053 190.487 60.4656 190.41C60.3259 190.332 60.2183 190.243 60.143 190.144C60.0676 190.044 60.0095 189.96 59.9687 189.894H59.9028V190.45H59.3659ZM59.9122 188.642C59.9122 188.915 59.9522 189.156 60.0323 189.365C60.1123 189.572 60.2293 189.734 60.3832 189.852C60.537 189.968 60.7254 190.026 60.9483 190.026C61.1807 190.026 61.3745 189.965 61.53 189.843C61.687 189.719 61.8047 189.552 61.8832 189.343C61.9633 189.133 62.0033 188.899 62.0033 188.642C62.0033 188.387 61.964 188.158 61.8855 187.954C61.8086 187.748 61.6917 187.586 61.5347 187.467C61.3793 187.346 61.1838 187.285 60.9483 187.285C60.7223 187.285 60.5323 187.343 60.3784 187.457C60.2246 187.57 60.1084 187.729 60.0299 187.933C59.9514 188.135 59.9122 188.372 59.9122 188.642Z" fill="#7B7B7B"></path><path d="M116.693 190.45H116.081L117.851 185.627H118.454L120.225 190.45H119.613L118.172 186.39H118.134L116.693 190.45ZM116.919 188.566H119.387V189.084H116.919V188.566ZM120.901 191.807V186.833H121.438V187.408H121.504C121.545 187.345 121.601 187.265 121.673 187.168C121.747 187.069 121.852 186.981 121.989 186.904C122.127 186.825 122.314 186.786 122.549 186.786C122.854 186.786 123.122 186.862 123.355 187.014C123.587 187.167 123.768 187.383 123.899 187.662C124.029 187.941 124.094 188.271 124.094 188.651C124.094 189.034 124.029 189.366 123.899 189.647C123.768 189.927 123.588 190.143 123.357 190.297C123.126 190.449 122.86 190.526 122.559 190.526C122.326 190.526 122.14 190.487 122.001 190.41C121.861 190.332 121.753 190.243 121.678 190.144C121.603 190.044 121.545 189.96 121.504 189.894H121.457V191.807H120.901ZM121.447 188.642C121.447 188.915 121.487 189.156 121.567 189.365C121.647 189.572 121.764 189.734 121.918 189.852C122.072 189.968 122.26 190.026 122.483 190.026C122.716 190.026 122.91 189.965 123.065 189.843C123.222 189.719 123.34 189.552 123.418 189.343C123.498 189.133 123.538 188.899 123.538 188.642C123.538 188.387 123.499 188.158 123.421 187.954C123.344 187.748 123.227 187.586 123.07 187.467C122.914 187.346 122.719 187.285 122.483 187.285C122.257 187.285 122.067 187.343 121.914 187.457C121.76 187.57 121.644 187.729 121.565 187.933C121.487 188.135 121.447 188.372 121.447 188.642ZM124.942 190.45V186.833H125.479V187.379H125.516C125.582 187.201 125.702 187.055 125.874 186.944C126.047 186.832 126.242 186.777 126.458 186.777C126.499 186.777 126.55 186.777 126.611 186.779C126.673 186.781 126.719 186.783 126.75 186.786V187.351C126.732 187.347 126.688 187.339 126.621 187.33C126.555 187.319 126.485 187.314 126.411 187.314C126.235 187.314 126.078 187.35 125.94 187.424C125.804 187.496 125.695 187.597 125.615 187.726C125.537 187.853 125.498 187.998 125.498 188.161V190.45H124.942Z" fill="#7B7B7B"></path><path d="M178.554 185.627H179.138V189.075C179.138 189.383 179.081 189.644 178.968 189.859C178.855 190.074 178.696 190.237 178.49 190.349C178.285 190.46 178.042 190.516 177.763 190.516C177.499 190.516 177.264 190.468 177.059 190.372C176.853 190.275 176.691 190.137 176.573 189.958C176.456 189.779 176.397 189.566 176.397 189.32H176.971C176.971 189.456 177.005 189.576 177.073 189.678C177.142 189.778 177.236 189.857 177.355 189.913C177.475 189.97 177.61 189.998 177.763 189.998C177.931 189.998 178.074 189.963 178.191 189.892C178.309 189.821 178.398 189.718 178.46 189.581C178.522 189.443 178.554 189.274 178.554 189.075V185.627ZM182.512 188.971V186.833H183.068V190.45H182.512V189.838H182.475C182.39 190.022 182.258 190.178 182.079 190.307C181.9 190.434 181.674 190.497 181.401 190.497C181.175 190.497 180.974 190.448 180.798 190.349C180.622 190.248 180.484 190.098 180.384 189.897C180.283 189.694 180.233 189.439 180.233 189.131V186.833H180.789V189.094C180.789 189.358 180.862 189.568 181.01 189.725C181.159 189.882 181.349 189.96 181.58 189.96C181.718 189.96 181.859 189.925 182.001 189.854C182.146 189.784 182.267 189.675 182.364 189.529C182.463 189.383 182.512 189.197 182.512 188.971ZM184.642 188.274V190.45H184.086V186.833H184.623V187.398H184.67C184.755 187.215 184.884 187.067 185.056 186.956C185.229 186.843 185.452 186.786 185.725 186.786C185.97 186.786 186.184 186.836 186.368 186.937C186.552 187.036 186.694 187.186 186.796 187.389C186.898 187.59 186.95 187.844 186.95 188.152V190.45H186.394V188.19C186.394 187.905 186.32 187.684 186.172 187.525C186.025 187.365 185.822 187.285 185.565 187.285C185.387 187.285 185.229 187.324 185.089 187.401C184.951 187.478 184.842 187.59 184.762 187.737C184.682 187.885 184.642 188.064 184.642 188.274Z" fill="#7B7B7B"></path><path d="M144.535 185.627H145.232L146.871 189.631H146.927L148.566 185.627H149.263V190.45H148.717V186.786H148.67L147.163 190.45H146.635L145.128 186.786H145.081V190.45H144.535V185.627ZM151.423 190.535C151.194 190.535 150.986 190.492 150.799 190.405C150.613 190.318 150.464 190.191 150.354 190.026C150.244 189.86 150.19 189.659 150.19 189.423C150.19 189.216 150.23 189.048 150.312 188.92C150.394 188.789 150.503 188.687 150.639 188.613C150.776 188.54 150.927 188.485 151.091 188.449C151.258 188.411 151.425 188.381 151.593 188.359C151.813 188.331 151.991 188.31 152.128 188.296C152.266 188.28 152.366 188.254 152.429 188.218C152.493 188.182 152.526 188.119 152.526 188.029V188.011C152.526 187.778 152.462 187.598 152.335 187.469C152.209 187.34 152.018 187.276 151.763 187.276C151.497 187.276 151.289 187.334 151.139 187.45C150.988 187.566 150.882 187.69 150.821 187.822L150.293 187.634C150.387 187.414 150.513 187.243 150.67 187.12C150.828 186.996 151.001 186.91 151.188 186.861C151.376 186.811 151.562 186.786 151.744 186.786C151.86 186.786 151.993 186.8 152.144 186.828C152.296 186.855 152.443 186.911 152.584 186.996C152.727 187.08 152.846 187.208 152.94 187.379C153.034 187.551 153.081 187.78 153.081 188.067V190.45H152.526V189.96H152.497C152.46 190.039 152.397 190.123 152.309 190.212C152.221 190.302 152.104 190.378 151.958 190.441C151.812 190.504 151.634 190.535 151.423 190.535ZM151.508 190.036C151.728 190.036 151.913 189.993 152.064 189.906C152.216 189.82 152.331 189.708 152.408 189.572C152.486 189.435 152.526 189.292 152.526 189.141V188.632C152.502 188.661 152.45 188.686 152.37 188.71C152.292 188.732 152.201 188.752 152.097 188.769C151.995 188.785 151.895 188.799 151.798 188.811C151.702 188.822 151.624 188.832 151.565 188.839C151.42 188.858 151.285 188.889 151.16 188.931C151.036 188.972 150.935 189.034 150.858 189.117C150.783 189.199 150.745 189.31 150.745 189.452C150.745 189.645 150.817 189.791 150.96 189.89C151.104 189.987 151.287 190.036 151.508 190.036ZM154.324 191.807C154.23 191.807 154.146 191.799 154.072 191.783C153.998 191.769 153.947 191.755 153.919 191.741L154.06 191.251C154.195 191.285 154.315 191.298 154.418 191.289C154.522 191.279 154.614 191.233 154.694 191.15C154.775 191.068 154.85 190.935 154.917 190.752L155.021 190.469L153.684 186.833H154.286L155.285 189.715H155.322L156.321 186.833H156.924L155.388 190.978C155.319 191.164 155.234 191.319 155.132 191.442C155.03 191.566 154.911 191.657 154.776 191.717C154.643 191.777 154.492 191.807 154.324 191.807Z" fill="#7B7B7B"></path><line x1="13.7144" y1="143.711" x2="197.545" y2="143.711" stroke="#E5E5EF" stroke-width="0.414453"></line><line x1="13.7144" y1="117.405" x2="197.545" y2="117.405" stroke="#E5E5EF" stroke-width="0.414453"></line><line x1="13.7144" y1="91.0984" x2="197.545" y2="91.0984" stroke="#E5E5EF" stroke-width="0.414453"></line><line x1="13.7144" y1="64.7918" x2="197.545" y2="64.7918" stroke="#E5E5EF" stroke-width="0.414453"></line><g clip-path="url(#clip0_2_6387)"><g style="mix-blend-mode:multiply" opacity="0.33"><path d="M16.6126 151.812C14.9947 151.511 12.2306 152.939 11.0508 153.691V221.607H301.265L308.22 141.95C306.829 141.95 307.082 141.95 304.807 139.444C302.532 136.938 301.9 135.81 298.108 137.69C294.316 139.569 293.81 137.69 291.282 134.307C288.754 130.924 287.49 131.926 284.457 133.054C281.423 134.182 280.917 129.546 277.691 126.413C274.466 123.281 273.081 130.172 271.817 135.059C270.56 139.916 267.681 144.401 265.039 148.515L264.991 148.591C262.337 152.725 258.418 146.962 257.154 144.456C255.89 141.95 255.511 141.574 251.719 141.95C247.927 142.326 246.789 140.697 245.525 137.69C244.261 134.683 244.514 135.435 241.607 133.054C238.7 130.673 237.309 132.302 235.666 131.926C234.023 131.55 232.127 127.165 230.863 124.659C229.599 122.153 229.725 120.399 225.933 121.527C222.196 122.638 221.406 121.315 219.447 118.038L219.361 117.893C217.338 114.51 215.948 113.508 211.903 111.754C207.858 110 209.122 110.751 206.089 111.754C203.055 112.756 201.538 111.378 199.642 108.997C197.746 106.617 203.181 77.4816 197.999 79.361C192.816 81.2405 189.322 90.3726 182.082 94.4266C176.398 93.0833 174.621 89.3702 171.461 90.3726C168.301 91.3749 166.776 95.1338 166.523 90.3726C166.27 85.6113 166.017 82.2143 162.352 82.2143C158.686 82.2143 158.939 84.6536 157.549 94.4266C156.158 104.2 156.917 104.45 152.745 104.826C148.574 105.202 148.574 105.202 146.299 112.594C144.024 119.987 143.139 119.736 139.094 119.736C135.049 119.736 133.533 125.625 132.142 131.765C130.768 137.831 127.79 136.19 123.329 133.733L123.168 133.644C118.617 131.138 117.606 131.765 114.699 122.869C111.792 113.973 108.126 118.107 106.483 123.62C104.84 129.133 103.955 129.885 101.174 131.765C98.3934 133.644 95.6126 134.145 94.6014 137.528C93.5902 140.911 90.1774 143.668 87.2702 141.663C84.363 139.658 82.2142 140.159 80.571 143.668C78.9278 147.176 77.2846 147.051 75.3886 147.426C73.4926 147.802 69.4478 147.426 67.4254 150.935C65.403 154.443 62.6222 153.691 61.1054 152.939C59.5886 152.188 56.4286 151.812 55.4174 152.939C54.4062 154.067 51.3726 158.077 48.0207 151.812C44.6688 145.547 40.8814 149.682 40.123 150.935L40.0927 150.985C39.3181 152.266 37.5586 155.175 34.8142 153.691C32.0334 152.188 29.7582 151.812 27.6094 153.691C25.4606 155.571 23.4382 156.322 21.9214 155.195C20.4046 154.067 18.635 152.188 16.6126 151.812Z" fill="url(#paint0_linear_2_6387)"></path></g><path d="M12.189 153.073C13.3596 152.327 16.1022 150.91 17.7075 151.209C19.7142 151.582 21.47 153.446 22.975 154.565C24.48 155.684 26.4866 154.938 28.6187 153.073C30.7508 151.209 33.0083 151.582 35.7674 153.073C38.5266 154.565 40.2824 151.582 41.0349 150.338C41.7874 149.095 45.5453 144.993 48.8711 151.209C52.197 157.425 55.207 153.446 56.2103 152.327C57.2136 151.209 60.349 151.581 61.854 152.327C63.359 153.073 66.1182 153.819 68.1248 150.338C70.1315 146.857 74.1448 147.23 76.0261 146.857C77.9073 146.484 79.5377 146.609 81.1681 143.128C82.7985 139.647 84.9306 139.149 87.8152 141.139C90.6998 143.128 94.086 140.393 95.0893 137.036C96.0927 133.679 98.8518 133.182 101.611 131.317C104.37 129.453 105.248 128.707 106.878 123.237C108.509 117.766 112.146 113.664 115.031 122.491C117.915 131.317 118.918 130.696 123.433 133.182C127.948 135.668 130.958 137.409 132.338 131.317C133.718 125.226 135.223 119.383 139.236 119.383C143.249 119.383 144.127 119.631 146.385 112.296C148.642 104.961 148.642 104.961 152.781 104.589C156.92 104.216 156.167 103.967 157.547 94.27C158.926 84.573 158.675 82.3143 162.312 82.3143C165.95 82.3143 166.2 85.465 166.451 90.1891C166.702 94.9133 169.728 90.1891 173.017 90.1891C177.252 90.1891 177.477 94.8789 182.115 93.436C189.221 91.2253 193.581 81.0196 198.723 79.1548" stroke="#57A1F6" stroke-width="0.865398" stroke-linecap="round"></path></g><path d="M28.0736 21.2596C24.689 19.2496 19.106 19.0648 15.875 20.0456C15.3562 20.2029 14.8075 19.91 14.6502 19.3912C14.493 18.8721 14.7856 18.3238 15.3049 18.1661C19.0138 17.0401 25.1796 17.2577 29.076 19.5706C29.5427 19.8476 29.6958 20.4503 29.4192 20.9162C29.1423 21.3829 28.5391 21.5368 28.0736 21.2596ZM27.9627 24.2368C27.7252 24.6221 27.2215 24.743 26.8366 24.5063C24.0149 22.7719 19.7121 22.2695 16.3738 23.2827C15.9408 23.4136 15.4835 23.1695 15.3522 22.7374C15.2216 22.3045 15.4659 21.8481 15.8979 21.7164C19.7116 20.5593 24.4525 21.1197 27.6934 23.1113C28.0782 23.3483 28.1993 23.8525 27.9627 24.2368ZM26.6779 27.0959C26.4892 27.4054 26.0864 27.5022 25.778 27.3137C23.3122 25.8067 20.2087 25.4664 16.5538 26.3012C16.2016 26.382 15.8507 26.1613 15.7703 25.8091C15.6897 25.457 15.9095 25.1059 16.2626 25.0255C20.2622 24.1113 23.6932 24.5047 26.4608 26.1959C26.7693 26.3843 26.8665 26.7874 26.6779 27.0959ZM21.8624 11.9512C16.0634 11.9512 11.3623 16.6522 11.3623 22.4511C11.3623 28.2505 16.0634 32.9512 21.8624 32.9512C27.6616 32.9512 32.3625 28.2505 32.3625 22.4511C32.3625 16.6522 27.6616 11.9512 21.8624 11.9512Z" fill="#1ED760"></path><path d="M45.1158 14.5707C45.0863 14.2732 44.9597 14.0421 44.736 13.8774C44.5123 13.7127 44.2087 13.6303 43.8251 13.6303C43.5645 13.6303 43.3445 13.6672 43.165 13.741C42.9855 13.8123 42.8479 13.9118 42.752 14.0397C42.6586 14.1675 42.6118 14.3126 42.6118 14.4748C42.6069 14.61 42.6352 14.7281 42.6967 14.8289C42.7606 14.9297 42.8479 15.0169 42.9585 15.0907C43.0691 15.162 43.197 15.2247 43.342 15.2788C43.4871 15.3304 43.642 15.3746 43.8067 15.4115L44.4852 15.5738C44.8147 15.6475 45.1171 15.7459 45.3924 15.8688C45.6678 15.9917 45.9063 16.1429 46.1079 16.3224C46.3095 16.5019 46.4656 16.7133 46.5762 16.9567C46.6893 17.2001 46.7471 17.4791 46.7495 17.7938C46.7471 18.256 46.6291 18.6568 46.3955 18.996C46.1644 19.3329 45.83 19.5947 45.3924 19.7815C44.9573 19.9659 44.4324 20.0581 43.8178 20.0581C43.208 20.0581 42.677 19.9647 42.2246 19.7778C41.7747 19.591 41.4232 19.3144 41.1699 18.9481C40.9192 18.5793 40.7876 18.1233 40.7753 17.5799H42.3205C42.3377 17.8332 42.4102 18.0446 42.5381 18.2142C42.6684 18.3814 42.8417 18.508 43.0581 18.5941C43.2769 18.6777 43.524 18.7195 43.7993 18.7195C44.0697 18.7195 44.3045 18.6801 44.5037 18.6014C44.7053 18.5228 44.8614 18.4134 44.972 18.2732C45.0827 18.1331 45.138 17.9721 45.138 17.7901C45.138 17.6205 45.0876 17.4779 44.9868 17.3624C44.8884 17.2468 44.7434 17.1485 44.5516 17.0673C44.3623 16.9862 44.13 16.9124 43.8546 16.8461L43.0323 16.6395C42.3955 16.4847 41.8927 16.2425 41.524 15.9131C41.1552 15.5836 40.972 15.1399 40.9745 14.5818C40.972 14.1245 41.0937 13.725 41.3396 13.3832C41.5879 13.0415 41.9284 12.7748 42.3611 12.583C42.7938 12.3912 43.2855 12.2953 43.8362 12.2953C44.3967 12.2953 44.886 12.3912 45.3039 12.583C45.7243 12.7748 46.0513 13.0415 46.2849 13.3832C46.5184 13.725 46.6389 14.1208 46.6463 14.5707H45.1158ZM47.7941 22.0753V14.2867H49.343V15.2382H49.413C49.4819 15.0858 49.5814 14.9309 49.7117 14.7735C49.8445 14.6137 50.0166 14.481 50.228 14.3753C50.4419 14.2671 50.7074 14.213 51.0246 14.213C51.4376 14.213 51.8187 14.3212 52.1678 14.5375C52.5169 14.7514 52.7959 15.0747 53.0049 15.5074C53.2139 15.9376 53.3184 16.4773 53.3184 17.1263C53.3184 17.7582 53.2164 18.2917 53.0123 18.7268C52.8107 19.1595 52.5353 19.4877 52.1862 19.7115C51.8396 19.9327 51.4511 20.0434 51.0209 20.0434C50.716 20.0434 50.4567 19.993 50.2428 19.8922C50.0313 19.7914 49.858 19.6648 49.7228 19.5123C49.5876 19.3574 49.4843 19.2013 49.413 19.044H49.3651V22.0753H47.7941ZM49.3319 17.119C49.3319 17.4558 49.3786 17.7496 49.472 18.0003C49.5655 18.2511 49.7007 18.4466 49.8777 18.5867C50.0547 18.7244 50.2698 18.7932 50.523 18.7932C50.7787 18.7932 50.9951 18.7231 51.1721 18.583C51.3491 18.4404 51.4831 18.2437 51.5741 17.993C51.6675 17.7397 51.7142 17.4484 51.7142 17.119C51.7142 16.792 51.6687 16.5043 51.5778 16.256C51.4868 16.0077 51.3528 15.8135 51.1758 15.6734C50.9988 15.5332 50.7812 15.4631 50.523 15.4631C50.2674 15.4631 50.051 15.5308 49.874 15.666C49.6994 15.8012 49.5655 15.993 49.472 16.2413C49.3786 16.4896 49.3319 16.7821 49.3319 17.119ZM56.925 20.0618C56.3522 20.0618 55.8568 19.9401 55.4389 19.6967C55.0234 19.4509 54.7025 19.1091 54.4763 18.6715C54.2502 18.2314 54.1371 17.7213 54.1371 17.1411C54.1371 16.556 54.2502 16.0446 54.4763 15.607C54.7025 15.1669 55.0234 14.8252 55.4389 14.5818C55.8568 14.3359 56.3522 14.213 56.925 14.213C57.4979 14.213 57.992 14.3359 58.4075 14.5818C58.8255 14.8252 59.1475 15.1669 59.3737 15.607C59.5999 16.0446 59.713 16.556 59.713 17.1411C59.713 17.7213 59.5999 18.2314 59.3737 18.6715C59.1475 19.1091 58.8255 19.4509 58.4075 19.6967C57.992 19.9401 57.4979 20.0618 56.925 20.0618ZM56.9324 18.8448C57.193 18.8448 57.4106 18.7711 57.5851 18.6236C57.7597 18.4736 57.8912 18.2695 57.9797 18.0114C58.0707 17.7533 58.1162 17.4595 58.1162 17.13C58.1162 16.8006 58.0707 16.5068 57.9797 16.2486C57.8912 15.9905 57.7597 15.7864 57.5851 15.6365C57.4106 15.4865 57.193 15.4115 56.9324 15.4115C56.6693 15.4115 56.4481 15.4865 56.2686 15.6365C56.0916 15.7864 55.9576 15.9905 55.8666 16.2486C55.7781 16.5068 55.7339 16.8006 55.7339 17.13C55.7339 17.4595 55.7781 17.7533 55.8666 18.0114C55.9576 18.2695 56.0916 18.4736 56.2686 18.6236C56.4481 18.7711 56.6693 18.8448 56.9324 18.8448ZM63.7474 14.2867V15.4668H60.3362V14.2867H63.7474ZM61.1107 12.9296H62.6816V18.2105C62.6816 18.3556 62.7038 18.4687 62.748 18.5498C62.7923 18.6285 62.8537 18.6838 62.9324 18.7158C63.0135 18.7477 63.107 18.7637 63.2127 18.7637C63.2864 18.7637 63.3602 18.7576 63.4339 18.7453C63.5077 18.7305 63.5643 18.7195 63.6036 18.7121L63.8507 19.8811C63.772 19.9057 63.6614 19.934 63.5188 19.9659C63.3762 20.0003 63.2028 20.0212 62.9988 20.0286C62.6202 20.0434 62.2883 19.993 62.0031 19.8774C61.7204 19.7619 61.5003 19.5824 61.343 19.339C61.1856 19.0956 61.1082 18.7883 61.1107 18.4171V12.9296ZM64.7708 19.9512V14.2867H66.3418V19.9512H64.7708ZM65.56 13.5566C65.3264 13.5566 65.126 13.4791 64.9588 13.3242C64.7941 13.1669 64.7118 12.9788 64.7118 12.76C64.7118 12.5437 64.7941 12.358 64.9588 12.2032C65.126 12.0458 65.3264 11.9671 65.56 11.9671C65.7935 11.9671 65.9927 12.0458 66.1574 12.2032C66.3246 12.358 66.4081 12.5437 66.4081 12.76C66.4081 12.9788 66.3246 13.1669 66.1574 13.3242C65.9927 13.4791 65.7935 13.5566 65.56 13.5566ZM70.6463 14.2867V15.4668H67.1503V14.2867H70.6463ZM67.9506 19.9512V13.8774C67.9506 13.4668 68.0305 13.1263 68.1903 12.8559C68.3525 12.5855 68.5738 12.3826 68.8541 12.2474C69.1343 12.1122 69.4527 12.0446 69.8092 12.0446C70.0501 12.0446 70.2702 12.063 70.4693 12.0999C70.6709 12.1368 70.8209 12.17 70.9192 12.1995L70.6389 13.3796C70.5775 13.3599 70.5013 13.3414 70.4103 13.3242C70.3218 13.307 70.2308 13.2984 70.1374 13.2984C69.9063 13.2984 69.7453 13.3525 69.6543 13.4607C69.5633 13.5664 69.5179 13.7151 69.5179 13.9069V19.9512H67.9506ZM72.5759 22.0753C72.3768 22.0753 72.19 22.0594 72.0154 22.0274C71.8433 21.9979 71.7007 21.9598 71.5876 21.9131L71.9416 20.7404C72.126 20.7969 72.292 20.8276 72.4395 20.8326C72.5895 20.8375 72.7185 20.803 72.8267 20.7293C72.9373 20.6555 73.0271 20.5302 73.0959 20.3531L73.1881 20.1134L71.1562 14.2867H72.8083L73.981 18.4466H74.04L75.2238 14.2867H76.887L74.6854 20.5633C74.5796 20.8682 74.4358 21.1337 74.2539 21.3599C74.0744 21.5885 73.847 21.7643 73.5716 21.8873C73.2963 22.0126 72.9644 22.0753 72.5759 22.0753ZM86.7877 15.0427H85.1725C85.143 14.8338 85.0827 14.6482 84.9918 14.4859C84.9008 14.3212 84.784 14.181 84.6414 14.0655C84.4988 13.9499 84.3341 13.8614 84.1473 13.8C83.9629 13.7385 83.7625 13.7078 83.5462 13.7078C83.1553 13.7078 82.8147 13.8049 82.5246 13.9991C82.2345 14.1909 82.0096 14.4711 81.8498 14.8399C81.69 15.2062 81.6101 15.6512 81.6101 16.1749C81.6101 16.7133 81.69 17.1657 81.8498 17.532C82.012 17.8983 82.2382 18.1749 82.5283 18.3617C82.8184 18.5486 83.154 18.642 83.5351 18.642C83.749 18.642 83.9469 18.6137 84.1288 18.5572C84.3132 18.5006 84.4767 18.4183 84.6193 18.3101C84.7619 18.1995 84.8799 18.0655 84.9733 17.9081C85.0692 17.7508 85.1356 17.5713 85.1725 17.3697L86.7877 17.3771C86.7459 17.7238 86.6414 18.0581 86.4742 18.3802C86.3095 18.6998 86.087 18.9862 85.8068 19.2394C85.5289 19.4902 85.1971 19.6893 84.8111 19.8369C84.4275 19.9819 83.9936 20.0544 83.5093 20.0544C82.8356 20.0544 82.2333 19.902 81.7023 19.5971C81.1737 19.2923 80.7557 18.851 80.4484 18.2732C80.1436 17.6955 79.9911 16.996 79.9911 16.1749C79.9911 15.3513 80.146 14.6506 80.4558 14.0729C80.7656 13.4951 81.186 13.055 81.717 12.7526C82.2481 12.4478 82.8455 12.2953 83.5093 12.2953C83.9469 12.2953 84.3525 12.3568 84.7262 12.4797C85.1024 12.6027 85.4355 12.7821 85.7256 13.0182C86.0157 13.2517 86.2518 13.5381 86.4337 13.8774C86.6181 14.2167 86.7361 14.6051 86.7877 15.0427ZM89.5185 20.0581C89.1571 20.0581 88.835 19.9954 88.5523 19.87C88.2696 19.7422 88.0459 19.5541 87.8811 19.3058C87.7189 19.055 87.6377 18.7428 87.6377 18.3691C87.6377 18.0544 87.6955 17.7901 87.8111 17.5762C87.9266 17.3624 88.084 17.1903 88.2831 17.06C88.4822 16.9297 88.7084 16.8313 88.9617 16.7649C89.2173 16.6986 89.4853 16.6518 89.7656 16.6248C90.095 16.5904 90.3606 16.5584 90.5621 16.5289C90.7637 16.497 90.91 16.4502 91.001 16.3888C91.092 16.3273 91.1374 16.2364 91.1374 16.1159V16.0938C91.1374 15.8602 91.0637 15.6795 90.9162 15.5517C90.7711 15.4238 90.5646 15.3599 90.2966 15.3599C90.0139 15.3599 89.7889 15.4226 89.6218 15.548C89.4546 15.6709 89.344 15.8258 89.2899 16.0126L87.8369 15.8946C87.9106 15.5504 88.0557 15.2529 88.272 15.0022C88.4884 14.7489 88.7674 14.5547 89.1092 14.4195C89.4534 14.2818 89.8516 14.213 90.304 14.213C90.6187 14.213 90.9199 14.2499 91.2075 14.3236C91.4976 14.3974 91.7545 14.5117 91.9783 14.6666C92.2044 14.8215 92.3827 15.0206 92.513 15.264C92.6433 15.5049 92.7084 15.7938 92.7084 16.1306V19.9512H91.2186V19.1657H91.1743C91.0834 19.3427 90.9617 19.4988 90.8092 19.634C90.6568 19.7668 90.4736 19.8713 90.2598 19.9475C90.0459 20.0212 89.7988 20.0581 89.5185 20.0581ZM89.9684 18.9739C90.1995 18.9739 90.4036 18.9284 90.5806 18.8375C90.7576 18.744 90.8965 18.6187 90.9973 18.4613C91.0981 18.304 91.1485 18.1257 91.1485 17.9266V17.3255C91.0993 17.3574 91.0317 17.3869 90.9457 17.414C90.8621 17.4386 90.7674 17.4619 90.6617 17.484C90.556 17.5037 90.4503 17.5222 90.3446 17.5394C90.2389 17.5541 90.143 17.5676 90.0569 17.5799C89.8725 17.607 89.7115 17.65 89.5738 17.709C89.4361 17.768 89.3292 17.8479 89.253 17.9487C89.1768 18.0471 89.1387 18.17 89.1387 18.3175C89.1387 18.5314 89.2161 18.6949 89.371 18.808C89.5283 18.9186 89.7275 18.9739 89.9684 18.9739ZM93.9272 19.9512V14.2867H95.4245V15.2861H95.4909C95.6089 14.9542 95.8056 14.6924 96.0809 14.5006C96.3563 14.3089 96.6857 14.213 97.0692 14.213C97.4577 14.213 97.7883 14.3101 98.0612 14.5043C98.3341 14.6961 98.5161 14.9567 98.607 15.2861H98.666C98.7816 14.9616 98.9906 14.7022 99.293 14.508C99.5978 14.3113 99.958 14.213 100.373 14.213C100.902 14.213 101.331 14.3814 101.661 14.7182C101.992 15.0526 102.158 15.5271 102.158 16.1417V19.9512H100.591V16.4515C100.591 16.1368 100.507 15.9008 100.34 15.7434C100.173 15.5861 99.9641 15.5074 99.7134 15.5074C99.4282 15.5074 99.2057 15.5984 99.0459 15.7803C98.8861 15.9598 98.8062 16.197 98.8062 16.492V19.9512H97.2831V16.4183C97.2831 16.1405 97.2032 15.9192 97.0434 15.7545C96.8861 15.5898 96.6783 15.5074 96.4202 15.5074C96.2456 15.5074 96.0883 15.5517 95.9481 15.6402C95.8105 15.7262 95.7011 15.8479 95.6199 16.0053C95.5388 16.1601 95.4982 16.3421 95.4982 16.551V19.9512H93.9272ZM103.399 22.0753V14.2867H104.948V15.2382H105.018C105.087 15.0858 105.187 14.9309 105.317 14.7735C105.45 14.6137 105.622 14.481 105.833 14.3753C106.047 14.2671 106.313 14.213 106.63 14.213C107.043 14.213 107.424 14.3212 107.773 14.5375C108.122 14.7514 108.401 15.0747 108.61 15.5074C108.819 15.9376 108.924 16.4773 108.924 17.1263C108.924 17.7582 108.822 18.2917 108.618 18.7268C108.416 19.1595 108.141 19.4877 107.791 19.7115C107.445 19.9327 107.056 20.0434 106.626 20.0434C106.321 20.0434 106.062 19.993 105.848 19.8922C105.637 19.7914 105.463 19.6648 105.328 19.5123C105.193 19.3574 105.09 19.2013 105.018 19.044H104.97V22.0753H103.399ZM104.937 17.119C104.937 17.4558 104.984 17.7496 105.077 18.0003C105.171 18.2511 105.306 18.4466 105.483 18.5867C105.66 18.7244 105.875 18.7932 106.128 18.7932C106.384 18.7932 106.6 18.7231 106.777 18.583C106.954 18.4404 107.088 18.2437 107.179 17.993C107.273 17.7397 107.319 17.4484 107.319 17.119C107.319 16.792 107.274 16.5043 107.183 16.256C107.092 16.0077 106.958 15.8135 106.781 15.6734C106.604 15.5332 106.386 15.4631 106.128 15.4631C105.873 15.4631 105.656 15.5308 105.479 15.666C105.305 15.8012 105.171 15.993 105.077 16.2413C104.984 16.4896 104.937 16.7821 104.937 17.119ZM111.586 20.0581C111.225 20.0581 110.903 19.9954 110.62 19.87C110.337 19.7422 110.114 19.5541 109.949 19.3058C109.787 19.055 109.705 18.7428 109.705 18.3691C109.705 18.0544 109.763 17.7901 109.879 17.5762C109.994 17.3624 110.152 17.1903 110.351 17.06C110.55 16.9297 110.776 16.8313 111.029 16.7649C111.285 16.6986 111.553 16.6518 111.833 16.6248C112.163 16.5904 112.428 16.5584 112.63 16.5289C112.831 16.497 112.978 16.4502 113.069 16.3888C113.16 16.3273 113.205 16.2364 113.205 16.1159V16.0938C113.205 15.8602 113.131 15.6795 112.984 15.5517C112.839 15.4238 112.632 15.3599 112.364 15.3599C112.082 15.3599 111.857 15.4226 111.689 15.548C111.522 15.6709 111.412 15.8258 111.358 16.0126L109.905 15.8946C109.978 15.5504 110.123 15.2529 110.34 15.0022C110.556 14.7489 110.835 14.5547 111.177 14.4195C111.521 14.2818 111.919 14.213 112.372 14.213C112.686 14.213 112.988 14.2499 113.275 14.3236C113.565 14.3974 113.822 14.5117 114.046 14.6666C114.272 14.8215 114.45 15.0206 114.581 15.264C114.711 15.5049 114.776 15.7938 114.776 16.1306V19.9512H113.286V19.1657H113.242C113.151 19.3427 113.029 19.4988 112.877 19.634C112.724 19.7668 112.541 19.8713 112.327 19.9475C112.114 20.0212 111.866 20.0581 111.586 20.0581ZM112.036 18.9739C112.267 18.9739 112.471 18.9284 112.648 18.8375C112.825 18.744 112.964 18.6187 113.065 18.4613C113.166 18.304 113.216 18.1257 113.216 17.9266V17.3255C113.167 17.3574 113.099 17.3869 113.013 17.414C112.93 17.4386 112.835 17.4619 112.729 17.484C112.624 17.5037 112.518 17.5222 112.412 17.5394C112.307 17.5541 112.211 17.5676 112.125 17.5799C111.94 17.607 111.779 17.65 111.641 17.709C111.504 17.768 111.397 17.8479 111.321 17.9487C111.244 18.0471 111.206 18.17 111.206 18.3175C111.206 18.5314 111.284 18.6949 111.439 18.808C111.596 18.9186 111.795 18.9739 112.036 18.9739ZM115.995 19.9512V14.2867H117.566V19.9512H115.995ZM116.784 13.5566C116.551 13.5566 116.35 13.4791 116.183 13.3242C116.018 13.1669 115.936 12.9788 115.936 12.76C115.936 12.5437 116.018 12.358 116.183 12.2032C116.35 12.0458 116.551 11.9671 116.784 11.9671C117.018 11.9671 117.217 12.0458 117.381 12.2032C117.549 12.358 117.632 12.5437 117.632 12.76C117.632 12.9788 117.549 13.1669 117.381 13.3242C117.217 13.4791 117.018 13.5566 116.784 13.5566ZM121.376 22.1933C120.867 22.1933 120.431 22.1233 120.067 21.9831C119.706 21.8455 119.418 21.6574 119.204 21.4189C118.99 21.1804 118.851 20.9125 118.787 20.615L120.24 20.4195C120.285 20.5326 120.355 20.6383 120.451 20.7367C120.547 20.835 120.673 20.9137 120.83 20.9727C120.99 21.0341 121.185 21.0649 121.413 21.0649C121.755 21.0649 122.036 20.9813 122.258 20.8141C122.481 20.6494 122.593 20.3728 122.593 19.9844V18.9481H122.527C122.458 19.1054 122.355 19.2542 122.217 19.3943C122.079 19.5345 121.902 19.6488 121.686 19.7373C121.47 19.8258 121.212 19.87 120.912 19.87C120.486 19.87 120.099 19.7717 119.75 19.575C119.403 19.3759 119.127 19.0723 118.92 18.6641C118.716 18.2536 118.614 17.7348 118.614 17.1079C118.614 16.4662 118.719 15.9303 118.928 15.5C119.137 15.0698 119.414 14.7477 119.761 14.5338C120.11 14.3199 120.492 14.213 120.908 14.213C121.225 14.213 121.491 14.2671 121.704 14.3753C121.918 14.481 122.09 14.6137 122.221 14.7735C122.354 14.9309 122.456 15.0858 122.527 15.2382H122.586V14.2867H124.146V20.0065C124.146 20.4884 124.028 20.8916 123.792 21.2161C123.556 21.5406 123.229 21.784 122.811 21.9463C122.395 22.111 121.917 22.1933 121.376 22.1933ZM121.409 18.69C121.663 18.69 121.877 18.6273 122.051 18.5019C122.228 18.374 122.363 18.1921 122.457 17.9561C122.553 17.7176 122.601 17.4324 122.601 17.1005C122.601 16.7686 122.554 16.481 122.46 16.2376C122.367 15.9917 122.232 15.8012 122.055 15.666C121.878 15.5308 121.663 15.4631 121.409 15.4631C121.151 15.4631 120.934 15.5332 120.757 15.6734C120.58 15.811 120.446 16.0028 120.355 16.2486C120.264 16.4945 120.218 16.7785 120.218 17.1005C120.218 17.4275 120.264 17.7102 120.355 17.9487C120.448 18.1847 120.582 18.3679 120.757 18.4982C120.934 18.626 121.151 18.69 121.409 18.69ZM126.967 16.6764V19.9512H125.396V14.2867H126.893V15.2861H126.96C127.085 14.9567 127.295 14.6961 127.59 14.5043C127.885 14.3101 128.243 14.213 128.663 14.213C129.057 14.213 129.4 14.299 129.692 14.4711C129.985 14.6432 130.212 14.8891 130.374 15.2087C130.537 15.5258 130.618 15.9045 130.618 16.3445V19.9512H129.047V16.6248C129.049 16.2781 128.961 16.0077 128.781 15.8135C128.602 15.6168 128.355 15.5185 128.04 15.5185C127.829 15.5185 127.642 15.5639 127.48 15.6549C127.32 15.7459 127.194 15.8786 127.103 16.0532C127.015 16.2253 126.969 16.433 126.967 16.6764Z" fill="black"></path><path d="M41.1244 26.6574H42.0341L44.173 31.8817H44.2468L46.3857 26.6574H47.2953V32.9512H46.5824V28.1694H46.5209L44.5541 32.9512H43.8657L41.8989 28.1694H41.8374V32.9512H41.1244V26.6574ZM50.6427 33.0495C50.2166 33.0495 49.8427 32.9481 49.521 32.7453C49.2014 32.5424 48.9515 32.2587 48.7712 31.894C48.593 31.5293 48.5038 31.1032 48.5038 30.6156C48.5038 30.1239 48.593 29.6947 48.7712 29.3279C48.9515 28.9612 49.2014 28.6764 49.521 28.4736C49.8427 28.2708 50.2166 28.1694 50.6427 28.1694C51.0689 28.1694 51.4418 28.2708 51.7614 28.4736C52.083 28.6764 52.333 28.9612 52.5112 29.3279C52.6915 29.6947 52.7817 30.1239 52.7817 30.6156C52.7817 31.1032 52.6915 31.5293 52.5112 31.894C52.333 32.2587 52.083 32.5424 51.7614 32.7453C51.4418 32.9481 51.0689 33.0495 50.6427 33.0495ZM50.6427 32.398C50.9665 32.398 51.2328 32.315 51.4418 32.1491C51.6507 31.9831 51.8054 31.7649 51.9058 31.4945C52.0062 31.2241 52.0564 30.9311 52.0564 30.6156C52.0564 30.3001 52.0062 30.0061 51.9058 29.7336C51.8054 29.4611 51.6507 29.2409 51.4418 29.0729C51.2328 28.9049 50.9665 28.8209 50.6427 28.8209C50.319 28.8209 50.0527 28.9049 49.8437 29.0729C49.6348 29.2409 49.4801 29.4611 49.3797 29.7336C49.2793 30.0061 49.2291 30.3001 49.2291 30.6156C49.2291 30.9311 49.2793 31.2241 49.3797 31.4945C49.4801 31.7649 49.6348 31.9831 49.8437 32.1491C50.0527 32.315 50.319 32.398 50.6427 32.398ZM54.614 30.1116V32.9512H53.8888V28.2308H54.5894V28.9684H54.6509C54.7615 28.7287 54.9295 28.5361 55.1549 28.3906C55.3803 28.2431 55.6712 28.1694 56.0277 28.1694C56.3473 28.1694 56.6269 28.2349 56.8666 28.366C57.1063 28.4951 57.2928 28.6918 57.4259 28.9561C57.5591 29.2183 57.6257 29.5502 57.6257 29.9518V32.9512H56.9004V30.001C56.9004 29.6301 56.8041 29.3412 56.6116 29.1343C56.419 28.9253 56.1547 28.8209 55.8187 28.8209C55.5872 28.8209 55.3803 28.8711 55.1979 28.9714C55.0176 29.0718 54.8752 29.2183 54.7708 29.4109C54.6663 29.6035 54.614 29.8371 54.614 30.1116ZM61.0039 28.2308V28.8454H58.5576V28.2308H61.0039ZM59.2706 27.0999H59.9959V31.599C59.9959 31.8039 60.0256 31.9575 60.085 32.06C60.1465 32.1603 60.2243 32.228 60.3185 32.2628C60.4148 32.2956 60.5163 32.312 60.6228 32.312C60.7027 32.312 60.7683 32.3079 60.8195 32.2997C60.8707 32.2894 60.9117 32.2812 60.9424 32.2751L61.0899 32.9266C61.0407 32.945 60.9721 32.9635 60.884 32.9819C60.7959 33.0024 60.6843 33.0126 60.549 33.0126C60.3442 33.0126 60.1434 32.9686 59.9467 32.8805C59.7521 32.7924 59.5902 32.6582 59.4611 32.4779C59.3341 32.2976 59.2706 32.0702 59.2706 31.7957V27.0999ZM62.9215 30.1116V32.9512H62.1962V26.6574H62.9215V28.9684H62.983C63.0936 28.7246 63.2596 28.531 63.4808 28.3875C63.7041 28.2421 64.0012 28.1694 64.372 28.1694C64.6937 28.1694 64.9754 28.2339 65.2171 28.363C65.4589 28.49 65.6464 28.6856 65.7795 28.9499C65.9147 29.2122 65.9824 29.5461 65.9824 29.9518V32.9512H65.2571V30.001C65.2571 29.626 65.1598 29.3361 64.9651 29.1313C64.7726 28.9243 64.5052 28.8209 64.1631 28.8209C63.9254 28.8209 63.7123 28.8711 63.5238 28.9714C63.3374 29.0718 63.1899 29.2183 63.0813 29.4109C62.9748 29.6035 62.9215 29.8371 62.9215 30.1116ZM68.0345 26.6574V32.9512H67.3092V26.6574H68.0345ZM69.8299 34.7213C69.707 34.7213 69.5974 34.7111 69.5011 34.6906C69.4048 34.6721 69.3382 34.6537 69.3014 34.6353L69.4857 33.996C69.6619 34.0411 69.8176 34.0575 69.9529 34.0452C70.0881 34.0329 70.2079 33.9725 70.3124 33.8639C70.419 33.7574 70.5163 33.5842 70.6044 33.3445L70.7396 32.9758L68.994 28.2308H69.7808L71.0838 31.9924H71.133L72.436 28.2308H73.2227L71.219 33.6396C71.1289 33.8834 71.0172 34.0852 70.884 34.245C70.7509 34.4068 70.5962 34.5267 70.42 34.6045C70.2458 34.6824 70.0492 34.7213 69.8299 34.7213ZM76.7122 32.9512V26.6574H77.4744V32.2751H80.4V32.9512H76.7122ZM81.4818 32.9512V28.2308H82.207V32.9512H81.4818ZM81.8505 27.4441C81.7092 27.4441 81.5873 27.3959 81.4848 27.2997C81.3845 27.2034 81.3343 27.0876 81.3343 26.9524C81.3343 26.8172 81.3845 26.7014 81.4848 26.6051C81.5873 26.5088 81.7092 26.4607 81.8505 26.4607C81.9919 26.4607 82.1128 26.5088 82.2132 26.6051C82.3156 26.7014 82.3668 26.8172 82.3668 26.9524C82.3668 27.0876 82.3156 27.2034 82.2132 27.2997C82.1128 27.3959 81.9919 27.4441 81.8505 27.4441ZM86.879 29.288L86.2275 29.4724C86.1865 29.3638 86.1261 29.2583 86.0462 29.1558C85.9683 29.0513 85.8618 28.9653 85.7266 28.8977C85.5913 28.8301 85.4182 28.7963 85.2072 28.7963C84.9183 28.7963 84.6776 28.8629 84.485 28.996C84.2945 29.1272 84.1992 29.2941 84.1992 29.497C84.1992 29.6772 84.2648 29.8196 84.3959 29.9241C84.527 30.0286 84.7319 30.1157 85.0105 30.1853L85.7112 30.3574C86.1332 30.4599 86.4477 30.6166 86.6546 30.8276C86.8616 31.0366 86.965 31.306 86.965 31.6359C86.965 31.9063 86.8872 32.1481 86.7315 32.3611C86.5778 32.5742 86.3627 32.7422 86.0861 32.8651C85.8095 32.988 85.4879 33.0495 85.1211 33.0495C84.6397 33.0495 84.2412 32.945 83.9257 32.7361C83.6102 32.5271 83.4104 32.2218 83.3264 31.8203L84.0148 31.6482C84.0804 31.9022 84.2043 32.0927 84.3867 32.2198C84.5711 32.3468 84.8118 32.4103 85.1089 32.4103C85.4469 32.4103 85.7153 32.3386 85.914 32.1952C86.1148 32.0497 86.2152 31.8756 86.2152 31.6727C86.2152 31.5088 86.1578 31.3716 86.0431 31.2609C85.9284 31.1483 85.7522 31.0643 85.5145 31.0089L84.7278 30.8246C84.2955 30.7221 83.9779 30.5633 83.7751 30.3482C83.5743 30.131 83.4739 29.8596 83.4739 29.5338C83.4739 29.2675 83.5487 29.0319 83.6983 28.827C83.8499 28.6221 84.0558 28.4613 84.316 28.3445C84.5782 28.2277 84.8753 28.1694 85.2072 28.1694C85.6743 28.1694 86.041 28.2718 86.3074 28.4767C86.5758 28.6815 86.7663 28.952 86.879 29.288ZM90.1096 28.2308V28.8454H87.6634V28.2308H90.1096ZM88.3764 27.0999H89.1016V31.599C89.1016 31.8039 89.1313 31.9575 89.1908 32.06C89.2522 32.1603 89.3301 32.228 89.4243 32.2628C89.5206 32.2956 89.622 32.312 89.7286 32.312C89.8085 32.312 89.874 32.3079 89.9252 32.2997C89.9765 32.2894 90.0174 32.2812 90.0482 32.2751L90.1957 32.9266C90.1465 32.945 90.0779 32.9635 89.9898 32.9819C89.9017 33.0024 89.79 33.0126 89.6548 33.0126C89.4499 33.0126 89.2491 32.9686 89.0525 32.8805C88.8578 32.7924 88.696 32.6582 88.5669 32.4779C88.4399 32.2976 88.3764 32.0702 88.3764 31.7957V27.0999ZM93.129 33.0495C92.6742 33.0495 92.2818 32.9491 91.952 32.7483C91.6242 32.5455 91.3712 32.2628 91.1929 31.9002C91.0167 31.5355 90.9286 31.1114 90.9286 30.6279C90.9286 30.1444 91.0167 29.7182 91.1929 29.3494C91.3712 28.9786 91.6191 28.6897 91.9366 28.4828C92.2562 28.2738 92.6291 28.1694 93.0552 28.1694C93.3011 28.1694 93.5439 28.2103 93.7836 28.2923C94.0233 28.3742 94.2415 28.5074 94.4382 28.6918C94.6348 28.8741 94.7916 29.1159 94.9083 29.4171C95.0251 29.7182 95.0835 30.089 95.0835 30.5295V30.8368H91.4449V30.2099H94.346C94.346 29.9436 94.2927 29.7059 94.1862 29.497C94.0817 29.288 93.9321 29.1231 93.7375 29.0022C93.5449 28.8813 93.3175 28.8209 93.0552 28.8209C92.7664 28.8209 92.5164 28.8926 92.3054 29.036C92.0964 29.1773 91.9356 29.3617 91.8229 29.5891C91.7102 29.8166 91.6539 30.0604 91.6539 30.3206V30.7385C91.6539 31.095 91.7154 31.3972 91.8383 31.6451C91.9633 31.8909 92.1364 32.0784 92.3576 32.2075C92.5789 32.3345 92.836 32.398 93.129 32.398C93.3195 32.398 93.4916 32.3714 93.6453 32.3181C93.801 32.2628 93.9352 32.1808 94.0479 32.0723C94.1606 31.9616 94.2476 31.8244 94.3091 31.6605L95.0098 31.8571C94.936 32.0948 94.8121 32.3038 94.6379 32.4841C94.4638 32.6623 94.2486 32.8016 93.9926 32.902C93.7365 33.0003 93.4486 33.0495 93.129 33.0495ZM96.912 30.1116V32.9512H96.1868V28.2308H96.8875V28.9684H96.9489C97.0595 28.7287 97.2275 28.5361 97.4529 28.3906C97.6783 28.2431 97.9692 28.1694 98.3257 28.1694C98.6453 28.1694 98.9249 28.2349 99.1647 28.366C99.4044 28.4951 99.5908 28.6918 99.724 28.9561C99.8571 29.2183 99.9237 29.5502 99.9237 29.9518V32.9512H99.1985V30.001C99.1985 29.6301 99.1022 29.3412 98.9096 29.1343C98.717 28.9253 98.4527 28.8209 98.1167 28.8209C97.8852 28.8209 97.6783 28.8711 97.4959 28.9714C97.3156 29.0718 97.1733 29.2183 97.0688 29.4109C96.9643 29.6035 96.912 29.8371 96.912 30.1116ZM103.228 33.0495C102.773 33.0495 102.381 32.9491 102.051 32.7483C101.723 32.5455 101.47 32.2628 101.292 31.9002C101.116 31.5355 101.028 31.1114 101.028 30.6279C101.028 30.1444 101.116 29.7182 101.292 29.3494C101.47 28.9786 101.718 28.6897 102.036 28.4828C102.355 28.2738 102.728 28.1694 103.154 28.1694C103.4 28.1694 103.643 28.2103 103.883 28.2923C104.122 28.3742 104.341 28.5074 104.537 28.6918C104.734 28.8741 104.891 29.1159 105.007 29.4171C105.124 29.7182 105.183 30.089 105.183 30.5295V30.8368H101.544V30.2099H104.445C104.445 29.9436 104.392 29.7059 104.285 29.497C104.181 29.288 104.031 29.1231 103.837 29.0022C103.644 28.8813 103.417 28.8209 103.154 28.8209C102.865 28.8209 102.616 28.8926 102.405 29.036C102.196 29.1773 102.035 29.3617 101.922 29.5891C101.809 29.8166 101.753 30.0604 101.753 30.3206V30.7385C101.753 31.095 101.814 31.3972 101.937 31.6451C102.062 31.8909 102.235 32.0784 102.457 32.2075C102.678 32.3345 102.935 32.398 103.228 32.398C103.419 32.398 103.591 32.3714 103.744 32.3181C103.9 32.2628 104.034 32.1808 104.147 32.0723C104.26 31.9616 104.347 31.8244 104.408 31.6605L105.109 31.8571C105.035 32.0948 104.911 32.3038 104.737 32.4841C104.563 32.6623 104.348 32.8016 104.092 32.902C103.836 33.0003 103.548 33.0495 103.228 33.0495ZM106.286 32.9512V28.2308H106.987V28.9438H107.036C107.122 28.7102 107.278 28.5207 107.503 28.3753C107.728 28.2298 107.982 28.1571 108.265 28.1571C108.318 28.1571 108.385 28.1581 108.465 28.1601C108.545 28.1622 108.605 28.1653 108.646 28.1694V28.9069C108.621 28.9008 108.565 28.8915 108.477 28.8793C108.391 28.8649 108.3 28.8577 108.204 28.8577C107.974 28.8577 107.769 28.9059 107.589 29.0022C107.411 29.0964 107.269 29.2275 107.165 29.3955C107.062 29.5615 107.011 29.751 107.011 29.9641V32.9512H106.286ZM112.849 29.288L112.198 29.4724C112.157 29.3638 112.096 29.2583 112.017 29.1558C111.939 29.0513 111.832 28.9653 111.697 28.8977C111.562 28.8301 111.389 28.7963 111.178 28.7963C110.889 28.7963 110.648 28.8629 110.455 28.996C110.265 29.1272 110.17 29.2941 110.17 29.497C110.17 29.6772 110.235 29.8196 110.366 29.9241C110.497 30.0286 110.702 30.1157 110.981 30.1853L111.682 30.3574C112.104 30.4599 112.418 30.6166 112.625 30.8276C112.832 31.0366 112.935 31.306 112.935 31.6359C112.935 31.9063 112.858 32.1481 112.702 32.3611C112.548 32.5742 112.333 32.7422 112.057 32.8651C111.78 32.988 111.458 33.0495 111.092 33.0495C110.61 33.0495 110.212 32.945 109.896 32.7361C109.581 32.5271 109.381 32.2218 109.297 31.8203L109.985 31.6482C110.051 31.9022 110.175 32.0927 110.357 32.2198C110.541 32.3468 110.782 32.4103 111.079 32.4103C111.417 32.4103 111.686 32.3386 111.884 32.1952C112.085 32.0497 112.186 31.8756 112.186 31.6727C112.186 31.5088 112.128 31.3716 112.013 31.2609C111.899 31.1483 111.723 31.0643 111.485 31.0089L110.698 30.8246C110.266 30.7221 109.948 30.5633 109.746 30.3482C109.545 30.131 109.444 29.8596 109.444 29.5338C109.444 29.2675 109.519 29.0319 109.669 28.827C109.82 28.6221 110.026 28.4613 110.286 28.3445C110.549 28.2277 110.846 28.1694 111.178 28.1694C111.645 28.1694 112.011 28.2718 112.278 28.4767C112.546 28.6815 112.737 28.952 112.849 29.288Z" fill="#7B7B7B"></path><rect x="160" y="11.6914" width="39.1445" height="22.3203" rx="5" fill="#06D960" fill-opacity="0.15"></rect><path d="M165.013 22.4015C165.04 22.466 165.102 22.508 165.17 22.508L167.036 22.508L167.036 26.8169C167.036 26.912 167.113 26.9893 167.207 26.9893L169.931 26.9893C170.025 26.9893 170.101 26.912 170.101 26.8169L170.101 22.508L171.974 22.508C172.043 22.508 172.105 22.466 172.132 22.4019C172.158 22.3374 172.144 22.2633 172.095 22.214L168.698 18.7641C168.666 18.7317 168.623 18.7135 168.577 18.7135C168.532 18.7135 168.489 18.7317 168.457 18.7638L165.05 22.2136C165.001 22.263 164.987 22.3371 165.013 22.4015Z" fill="#06D960"></path><path d="M175.043 26.3516L178.061 20.3826V20.332H174.57V19.4373H179.141V20.3624L176.133 26.3516H175.043ZM182.564 26.4461C182.101 26.4461 181.687 26.3662 181.322 26.2064C180.96 26.0466 180.673 25.8249 180.461 25.5413C180.252 25.2555 180.139 24.9246 180.124 24.5487H181.184C181.197 24.7535 181.266 24.9314 181.39 25.0822C181.516 25.2307 181.68 25.3455 181.883 25.4265C182.085 25.5075 182.31 25.5481 182.558 25.5481C182.83 25.5481 183.071 25.5008 183.28 25.4063C183.492 25.3117 183.657 25.1801 183.777 25.0113C183.896 24.8402 183.955 24.6433 183.955 24.4204C183.955 24.1886 183.896 23.9849 183.777 23.8094C183.659 23.6316 183.487 23.492 183.26 23.3907C183.035 23.2894 182.763 23.2388 182.443 23.2388H181.859V22.388H182.443C182.7 22.388 182.925 22.3419 183.118 22.2496C183.314 22.1573 183.467 22.029 183.577 21.8647C183.688 21.6982 183.743 21.5035 183.743 21.2807C183.743 21.0669 183.694 20.8812 183.598 20.7236C183.503 20.5638 183.368 20.4389 183.192 20.3489C183.019 20.2588 182.814 20.2138 182.578 20.2138C182.353 20.2138 182.142 20.2555 181.947 20.3387C181.753 20.4198 181.596 20.5368 181.474 20.6899C181.352 20.8407 181.287 21.0218 181.278 21.2334H180.269C180.28 20.8598 180.39 20.5312 180.6 20.2476C180.811 19.964 181.09 19.7423 181.437 19.5825C181.783 19.4227 182.168 19.3428 182.592 19.3428C183.035 19.3428 183.418 19.4295 183.739 19.6028C184.063 19.7738 184.313 20.0023 184.489 20.2881C184.667 20.5739 184.754 20.8868 184.752 21.2267C184.754 21.6138 184.646 21.9424 184.428 22.2125C184.212 22.4826 183.924 22.6637 183.564 22.756V22.81C184.023 22.8798 184.379 23.0621 184.631 23.357C184.885 23.6518 185.011 24.0176 185.009 24.4542C185.011 24.8346 184.905 25.1756 184.691 25.4772C184.48 25.7788 184.191 26.0162 183.824 26.1895C183.457 26.3606 183.037 26.4461 182.564 26.4461ZM189.894 25.0551V24.6905C189.894 24.4294 189.948 24.1909 190.056 23.9748C190.166 23.7565 190.326 23.582 190.535 23.4515C190.747 23.3187 191.002 23.2523 191.302 23.2523C191.608 23.2523 191.864 23.3176 192.072 23.4481C192.279 23.5787 192.435 23.7531 192.541 23.9714C192.649 24.1897 192.703 24.4294 192.703 24.6905V25.0551C192.703 25.3162 192.649 25.5559 192.541 25.7743C192.433 25.9903 192.274 26.1648 192.065 26.2975C191.858 26.4281 191.603 26.4934 191.302 26.4934C190.998 26.4934 190.741 26.4281 190.532 26.2975C190.323 26.1648 190.164 25.9903 190.056 25.7743C189.948 25.5559 189.894 25.3162 189.894 25.0551ZM190.681 24.6905V25.0551C190.681 25.2487 190.727 25.4243 190.819 25.5818C190.911 25.7394 191.072 25.8181 191.302 25.8181C191.529 25.8181 191.688 25.7394 191.778 25.5818C191.868 25.4243 191.913 25.2487 191.913 25.0551V24.6905C191.913 24.497 191.869 24.3214 191.781 24.1639C191.696 24.0063 191.536 23.9275 191.302 23.9275C191.077 23.9275 190.917 24.0063 190.822 24.1639C190.728 24.3214 190.681 24.497 190.681 24.6905ZM186.417 21.0984V20.7337C186.417 20.4727 186.471 20.233 186.579 20.0146C186.689 19.7963 186.849 19.6219 187.058 19.4913C187.27 19.3608 187.525 19.2955 187.824 19.2955C188.131 19.2955 188.387 19.3608 188.594 19.4913C188.801 19.6219 188.958 19.7963 189.063 20.0146C189.169 20.233 189.222 20.4727 189.222 20.7337V21.0984C189.222 21.3595 189.168 21.5992 189.06 21.8175C188.954 22.0335 188.797 22.208 188.587 22.3408C188.38 22.4713 188.126 22.5366 187.824 22.5366C187.518 22.5366 187.261 22.4713 187.051 22.3408C186.844 22.208 186.687 22.0335 186.579 21.8175C186.471 21.5992 186.417 21.3595 186.417 21.0984ZM187.207 20.7337V21.0984C187.207 21.2919 187.252 21.4675 187.342 21.625C187.434 21.7826 187.595 21.8614 187.824 21.8614C188.05 21.8614 188.207 21.7826 188.297 21.625C188.389 21.4675 188.436 21.2919 188.436 21.0984V20.7337C188.436 20.5402 188.392 20.3646 188.304 20.2071C188.216 20.0495 188.056 19.9708 187.824 19.9708C187.599 19.9708 187.44 20.0495 187.345 20.2071C187.253 20.3646 187.207 20.5402 187.207 20.7337ZM186.737 26.3516L191.491 19.4373H192.298L187.544 26.3516H186.737Z" fill="black"></path><defs><linearGradient id="paint0_linear_2_6387" x1="156.158" y1="77.1362" x2="156.158" y2="207.861" gradientUnits="userSpaceOnUse"><stop stop-color="#A7CDFA"></stop><stop offset="0.46679" stop-color="#A7CDFA"></stop><stop offset="1" stop-color="white"></stop></linearGradient><clipPath id="clip0_2_6387"><rect width="184.33" height="95.6598" fill="white" transform="translate(13.647 77.8979)"></rect></clipPath></defs></svg>