<svg xmlns="http://www.w3.org/2000/svg" width="211" height="210" viewBox="0 0 211 210" fill="none"><rect width="211" height="210" rx="8.28905" fill="white"></rect><g clip-path="url(#clip0_4_6740)"><path d="M29.6819 20.9406C27.0937 20.9406 24.9955 18.8424 24.9955 16.2539H21.4802V29.8581C21.4802 31.4399 20.1983 32.7223 18.6164 32.7223C17.0345 32.7223 15.7524 31.4399 15.7524 29.8581C15.7524 28.2764 17.0345 26.9941 18.6164 26.9941C18.913 26.9941 19.2488 27.0392 19.518 27.123V23.5423C19.2233 23.5007 18.9225 23.4792 18.6164 23.4792C15.0934 23.4792 12.2373 26.335 12.2373 29.8581C12.2373 33.3811 15.0934 36.2371 18.6164 36.2371C22.1394 36.2371 24.9955 33.3811 24.9955 29.8581V22.6578C26.2732 23.7 27.9045 24.3254 29.6819 24.3254V20.9406Z" fill="#FF1352"></path><path d="M28.6861 19.945C26.0976 19.945 23.9997 17.8467 23.9997 15.2583H20.4848V28.8627C20.4848 30.4443 19.2025 31.7267 17.6205 31.7267C16.0387 31.7267 14.7566 30.4443 14.7566 28.8627C14.7566 27.2808 16.0387 25.9984 17.6205 25.9984C17.9172 25.9984 18.2532 26.0436 18.5222 26.1274V22.5467C18.2277 22.5051 17.9267 22.4836 17.6205 22.4836C14.0978 22.4836 11.2417 25.3396 11.2417 28.8627C11.2417 32.3855 14.0978 35.2415 17.6205 35.2415C21.1436 35.2415 23.9997 32.3855 23.9997 28.8627V21.6622C25.2774 22.7044 26.9089 23.3298 28.6861 23.3298V19.945Z" fill="#00F1EA"></path><path d="M28.6862 20.8336C27.5534 20.5884 26.5731 19.934 25.9081 19.0322C25.0063 18.3672 24.352 17.387 24.1067 16.2539H21.4802V29.8581C21.4802 31.4399 20.1983 32.7223 18.6164 32.7223C17.5701 32.7223 16.6553 32.161 16.1555 31.3232C15.3178 30.8237 14.7567 29.9088 14.7567 28.8626C14.7567 27.2807 16.0388 25.9983 17.6206 25.9983C17.9173 25.9983 18.2533 26.0435 18.5223 26.1273V23.4803C15.0426 23.5308 12.2373 26.3665 12.2373 29.8581C12.2373 31.3659 12.7608 32.7516 13.6357 33.8432C14.7274 34.718 16.1128 35.2414 17.6206 35.2414C21.1437 35.2414 23.9997 32.3854 23.9997 28.8626V21.6621C25.2775 22.7043 26.909 23.3297 28.6862 23.3297V20.8336Z" fill="black"></path></g><path d="M38.0587 17.0223V15.7057H44.2616V17.0223H41.9493V23.2583H40.371V17.0223H38.0587ZM45.2536 23.2583V17.5939H46.8246V23.2583H45.2536ZM46.0428 16.8637C45.8092 16.8637 45.6088 16.7863 45.4416 16.6314C45.2769 16.474 45.1946 16.2859 45.1946 16.0671C45.1946 15.8508 45.2769 15.6652 45.4416 15.5103C45.6088 15.3529 45.8092 15.2743 46.0428 15.2743C46.2763 15.2743 46.4755 15.3529 46.6402 15.5103C46.8074 15.6652 46.8909 15.8508 46.8909 16.0671C46.8909 16.2859 46.8074 16.474 46.6402 16.6314C46.4755 16.7863 46.2763 16.8637 46.0428 16.8637ZM49.5065 21.6283L49.5102 19.7439H49.7388L51.5532 17.5939H53.3565L50.9189 20.4408H50.5464L49.5065 21.6283ZM48.083 23.2583V15.7057H49.654V23.2583H48.083ZM51.6233 23.2583L49.9564 20.7912L51.0037 19.6812L53.4635 23.2583H51.6233ZM53.2809 17.0223V15.7057H59.4838V17.0223H57.1715V23.2583H55.5932V17.0223H53.2809ZM62.2137 23.3689C61.6408 23.3689 61.1454 23.2472 60.7275 23.0038C60.312 22.758 59.9912 22.4163 59.765 21.9786C59.5388 21.5386 59.4257 21.0284 59.4257 20.4482C59.4257 19.8631 59.5388 19.3517 59.765 18.9141C59.9912 18.474 60.312 18.1323 60.7275 17.8889C61.1454 17.643 61.6408 17.5201 62.2137 17.5201C62.7865 17.5201 63.2806 17.643 63.6961 17.8889C64.1141 18.1323 64.4361 18.474 64.6623 18.9141C64.8885 19.3517 65.0016 19.8631 65.0016 20.4482C65.0016 21.0284 64.8885 21.5386 64.6623 21.9786C64.4361 22.4163 64.1141 22.758 63.6961 23.0038C63.2806 23.2472 62.7865 23.3689 62.2137 23.3689ZM62.221 22.152C62.4816 22.152 62.6992 22.0782 62.8738 21.9307C63.0483 21.7807 63.1798 21.5767 63.2684 21.3185C63.3593 21.0604 63.4048 20.7666 63.4048 20.4372C63.4048 20.1077 63.3593 19.8139 63.2684 19.5558C63.1798 19.2976 63.0483 19.0936 62.8738 18.9436C62.6992 18.7936 62.4816 18.7186 62.221 18.7186C61.958 18.7186 61.7367 18.7936 61.5572 18.9436C61.3802 19.0936 61.2462 19.2976 61.1553 19.5558C61.0668 19.8139 61.0225 20.1077 61.0225 20.4372C61.0225 20.7666 61.0668 21.0604 61.1553 21.3185C61.2462 21.5767 61.3802 21.7807 61.5572 21.9307C61.7367 22.0782 61.958 22.152 62.221 22.152ZM67.4466 21.6283L67.4503 19.7439H67.6789L69.4933 17.5939H71.2966L68.859 20.4408H68.4866L67.4466 21.6283ZM66.0231 23.2583V15.7057H67.5941V23.2583H66.0231ZM69.5634 23.2583L67.8965 20.7912L68.9438 19.6812L71.4036 23.2583H69.5634ZM81.1642 18.3499H79.549C79.5195 18.1409 79.4592 17.9553 79.3683 17.793C79.2773 17.6283 79.1605 17.4882 79.0179 17.3726C78.8753 17.2571 78.7106 17.1686 78.5238 17.1071C78.3394 17.0456 78.139 17.0149 77.9227 17.0149C77.5317 17.0149 77.1912 17.112 76.9011 17.3062C76.611 17.498 76.3861 17.7783 76.2263 18.147C76.0665 18.5134 75.9866 18.9584 75.9866 19.482C75.9866 20.0204 76.0665 20.4728 76.2263 20.8391C76.3885 21.2054 76.6147 21.482 76.9048 21.6689C77.1949 21.8557 77.5305 21.9491 77.9116 21.9491C78.1255 21.9491 78.3234 21.9209 78.5053 21.8643C78.6897 21.8078 78.8532 21.7254 78.9958 21.6172C79.1384 21.5066 79.2564 21.3726 79.3498 21.2153C79.4457 21.0579 79.5121 20.8785 79.549 20.6769L81.1642 20.6842C81.1224 21.0309 81.0179 21.3652 80.8507 21.6873C80.686 22.0069 80.4635 22.2933 80.1833 22.5466C79.9054 22.7973 79.5735 22.9965 79.1876 23.144C78.804 23.289 78.3701 23.3616 77.8858 23.3616C77.2121 23.3616 76.6098 23.2091 76.0788 22.9043C75.5502 22.5994 75.1322 22.1581 74.8249 21.5804C74.5201 21.0026 74.3676 20.3032 74.3676 19.482C74.3676 18.6584 74.5225 17.9577 74.8323 17.38C75.1421 16.8022 75.5625 16.3622 76.0935 16.0598C76.6246 15.7549 77.222 15.6025 77.8858 15.6025C78.3234 15.6025 78.729 15.6639 79.1027 15.7869C79.4789 15.9098 79.812 16.0893 80.1021 16.3253C80.3922 16.5588 80.6282 16.8453 80.8102 17.1845C80.9946 17.5238 81.1126 17.9123 81.1642 18.3499ZM83.895 23.3652C83.5336 23.3652 83.2115 23.3026 82.9288 23.1772C82.6461 23.0493 82.4224 22.8613 82.2576 22.6129C82.0954 22.3622 82.0142 22.0499 82.0142 21.6762C82.0142 21.3616 82.072 21.0973 82.1876 20.8834C82.3031 20.6695 82.4605 20.4974 82.6596 20.3671C82.8587 20.2368 83.0849 20.1384 83.3381 20.0721C83.5938 20.0057 83.8618 19.959 84.1421 19.9319C84.4715 19.8975 84.737 19.8655 84.9386 19.836C85.1402 19.8041 85.2865 19.7574 85.3775 19.6959C85.4685 19.6344 85.5139 19.5435 85.5139 19.423V19.4009C85.5139 19.1673 85.4402 18.9866 85.2927 18.8588C85.1476 18.7309 84.9411 18.667 84.6731 18.667C84.3904 18.667 84.1654 18.7297 83.9983 18.8551C83.8311 18.978 83.7204 19.1329 83.6664 19.3198L82.2134 19.2017C82.2871 18.8576 82.4322 18.5601 82.6485 18.3093C82.8649 18.0561 83.1439 17.8619 83.4857 17.7266C83.8299 17.589 84.2281 17.5201 84.6805 17.5201C84.9952 17.5201 85.2964 17.557 85.584 17.6308C85.8741 17.7045 86.131 17.8188 86.3547 17.9737C86.5809 18.1286 86.7592 18.3277 86.8895 18.5711C87.0198 18.8121 87.0849 19.1009 87.0849 19.4378V23.2583H85.5951V22.4728H85.5508C85.4598 22.6498 85.3382 22.8059 85.1857 22.9412C85.0333 23.0739 84.8501 23.1784 84.6362 23.2546C84.4224 23.3284 84.1753 23.3652 83.895 23.3652ZM84.3449 22.281C84.576 22.281 84.7801 22.2356 84.9571 22.1446C85.1341 22.0512 85.273 21.9258 85.3738 21.7684C85.4746 21.6111 85.525 21.4329 85.525 21.2337V20.6326C85.4758 20.6646 85.4082 20.6941 85.3222 20.7211C85.2386 20.7457 85.1439 20.7691 85.0382 20.7912C84.9325 20.8108 84.8268 20.8293 84.7211 20.8465C84.6153 20.8612 84.5195 20.8748 84.4334 20.8871C84.249 20.9141 84.088 20.9571 83.9503 21.0161C83.8126 21.0751 83.7057 21.155 83.6295 21.2558C83.5533 21.3542 83.5152 21.4771 83.5152 21.6246C83.5152 21.8385 83.5926 22.002 83.7475 22.1151C83.9048 22.2257 84.104 22.281 84.3449 22.281ZM88.3037 23.2583V17.5939H89.801V18.5933H89.8674C89.9854 18.2614 90.182 17.9995 90.4574 17.8078C90.7328 17.616 91.0622 17.5201 91.4457 17.5201C91.8342 17.5201 92.1648 17.6172 92.4377 17.8115C92.7106 18.0032 92.8926 18.2638 92.9835 18.5933H93.0425C93.1581 18.2687 93.3671 18.0094 93.6695 17.8151C93.9743 17.6185 94.3345 17.5201 94.75 17.5201C95.2786 17.5201 95.7076 17.6885 96.037 18.0253C96.3689 18.3597 96.5349 18.8342 96.5349 19.4488V23.2583H94.9676V19.7586C94.9676 19.4439 94.884 19.2079 94.7168 19.0505C94.5496 18.8932 94.3406 18.8145 94.0899 18.8145C93.8047 18.8145 93.5822 18.9055 93.4224 19.0874C93.2626 19.2669 93.1827 19.5041 93.1827 19.7992V23.2583H91.6596V19.7254C91.6596 19.4476 91.5797 19.2263 91.4199 19.0616C91.2626 18.8969 91.0548 18.8145 90.7967 18.8145C90.6221 18.8145 90.4648 18.8588 90.3246 18.9473C90.187 19.0333 90.0776 19.155 89.9964 19.3124C89.9153 19.4673 89.8747 19.6492 89.8747 19.8582V23.2583H88.3037ZM97.7758 25.3825V17.5939H99.3247V18.5453H99.3947C99.4636 18.3929 99.5631 18.238 99.6934 18.0807C99.8262 17.9209 99.9983 17.7881 100.21 17.6824C100.424 17.5742 100.689 17.5201 101.006 17.5201C101.419 17.5201 101.8 17.6283 102.149 17.8446C102.499 18.0585 102.778 18.3818 102.987 18.8145C103.196 19.2448 103.3 19.7844 103.3 20.4335C103.3 21.0653 103.198 21.5988 102.994 22.034C102.792 22.4667 102.517 22.7949 102.168 23.0186C101.821 23.2399 101.433 23.3505 101.003 23.3505C100.698 23.3505 100.438 23.3001 100.224 23.1993C100.013 23.0985 99.8397 22.9719 99.7045 22.8195C99.5693 22.6646 99.466 22.5085 99.3947 22.3511H99.3468V25.3825H97.7758ZM99.3136 20.4261C99.3136 20.7629 99.3603 21.0567 99.4537 21.3075C99.5472 21.5582 99.6824 21.7537 99.8594 21.8938C100.036 22.0315 100.252 22.1003 100.505 22.1003C100.76 22.1003 100.977 22.0303 101.154 21.8901C101.331 21.7475 101.465 21.5509 101.556 21.3001C101.649 21.0469 101.696 20.7555 101.696 20.4261C101.696 20.0991 101.65 19.8115 101.559 19.5631C101.468 19.3148 101.334 19.1206 101.157 18.9805C100.98 18.8403 100.763 18.7703 100.505 18.7703C100.249 18.7703 100.033 18.8379 99.8557 18.9731C99.6811 19.1083 99.5472 19.3001 99.4537 19.5484C99.3603 19.7967 99.3136 20.0893 99.3136 20.4261ZM105.963 23.3652C105.601 23.3652 105.279 23.3026 104.996 23.1772C104.714 23.0493 104.49 22.8613 104.325 22.6129C104.163 22.3622 104.082 22.0499 104.082 21.6762C104.082 21.3616 104.14 21.0973 104.255 20.8834C104.371 20.6695 104.528 20.4974 104.727 20.3671C104.926 20.2368 105.153 20.1384 105.406 20.0721C105.661 20.0057 105.929 19.959 106.21 19.9319C106.539 19.8975 106.805 19.8655 107.006 19.836C107.208 19.8041 107.354 19.7574 107.445 19.6959C107.536 19.6344 107.582 19.5435 107.582 19.423V19.4009C107.582 19.1673 107.508 18.9866 107.36 18.8588C107.215 18.7309 107.009 18.667 106.741 18.667C106.458 18.667 106.233 18.7297 106.066 18.8551C105.899 18.978 105.788 19.1329 105.734 19.3198L104.281 19.2017C104.355 18.8576 104.5 18.5601 104.716 18.3093C104.933 18.0561 105.212 17.8619 105.553 17.7266C105.898 17.589 106.296 17.5201 106.748 17.5201C107.063 17.5201 107.364 17.557 107.652 17.6308C107.942 17.7045 108.199 17.8188 108.422 17.9737C108.649 18.1286 108.827 18.3277 108.957 18.5711C109.087 18.8121 109.153 19.1009 109.153 19.4378V23.2583H107.663V22.4728H107.618C107.528 22.6498 107.406 22.8059 107.253 22.9412C107.101 23.0739 106.918 23.1784 106.704 23.2546C106.49 23.3284 106.243 23.3652 105.963 23.3652ZM106.413 22.281C106.644 22.281 106.848 22.2356 107.025 22.1446C107.202 22.0512 107.341 21.9258 107.441 21.7684C107.542 21.6111 107.593 21.4329 107.593 21.2337V20.6326C107.543 20.6646 107.476 20.6941 107.39 20.7211C107.306 20.7457 107.212 20.7691 107.106 20.7912C107 20.8108 106.894 20.8293 106.789 20.8465C106.683 20.8612 106.587 20.8748 106.501 20.8871C106.317 20.9141 106.156 20.9571 106.018 21.0161C105.88 21.0751 105.773 21.155 105.697 21.2558C105.621 21.3542 105.583 21.4771 105.583 21.6246C105.583 21.8385 105.66 22.002 105.815 22.1151C105.972 22.2257 106.172 22.281 106.413 22.281ZM110.371 23.2583V17.5939H111.942V23.2583H110.371ZM111.161 16.8637C110.927 16.8637 110.727 16.7863 110.559 16.6314C110.395 16.474 110.312 16.2859 110.312 16.0671C110.312 15.8508 110.395 15.6652 110.559 15.5103C110.727 15.3529 110.927 15.2743 111.161 15.2743C111.394 15.2743 111.593 15.3529 111.758 15.5103C111.925 15.6652 112.009 15.8508 112.009 16.0671C112.009 16.2859 111.925 16.474 111.758 16.6314C111.593 16.7863 111.394 16.8637 111.161 16.8637ZM115.753 25.5005C115.244 25.5005 114.807 25.4304 114.444 25.2903C114.082 25.1526 113.795 24.9645 113.581 24.726C113.367 24.4876 113.228 24.2196 113.164 23.9221L114.617 23.7266C114.661 23.8397 114.731 23.9455 114.827 24.0438C114.923 24.1421 115.05 24.2208 115.207 24.2798C115.367 24.3413 115.561 24.372 115.79 24.372C116.131 24.372 116.413 24.2884 116.634 24.1212C116.858 23.9565 116.97 23.6799 116.97 23.2915V22.2552H116.903C116.835 22.4126 116.731 22.5613 116.594 22.7014C116.456 22.8416 116.279 22.9559 116.063 23.0444C115.846 23.1329 115.588 23.1772 115.288 23.1772C114.863 23.1772 114.476 23.0788 114.126 22.8821C113.78 22.683 113.503 22.3794 113.297 21.9713C113.093 21.5607 112.991 21.0419 112.991 20.415C112.991 19.7734 113.095 19.2374 113.304 18.8072C113.513 18.3769 113.791 18.0548 114.138 17.841C114.487 17.6271 114.869 17.5201 115.284 17.5201C115.602 17.5201 115.867 17.5742 116.081 17.6824C116.295 17.7881 116.467 17.9209 116.597 18.0807C116.73 18.238 116.832 18.3929 116.903 18.5453H116.962V17.5939H118.522V23.3136C118.522 23.7955 118.404 24.1987 118.168 24.5232C117.932 24.8477 117.605 25.0911 117.187 25.2534C116.772 25.4181 116.294 25.5005 115.753 25.5005ZM115.786 21.9971C116.039 21.9971 116.253 21.9344 116.428 21.809C116.605 21.6812 116.74 21.4992 116.833 21.2632C116.929 21.0247 116.977 20.7396 116.977 20.4077C116.977 20.0758 116.93 19.7881 116.837 19.5447C116.744 19.2989 116.608 19.1083 116.431 18.9731C116.254 18.8379 116.039 18.7703 115.786 18.7703C115.528 18.7703 115.31 18.8403 115.133 18.9805C114.956 19.1182 114.822 19.3099 114.731 19.5558C114.64 19.8016 114.595 20.0856 114.595 20.4077C114.595 20.7346 114.64 21.0174 114.731 21.2558C114.825 21.4919 114.959 21.675 115.133 21.8053C115.31 21.9332 115.528 21.9971 115.786 21.9971ZM121.343 19.9836V23.2583H119.772V17.5939H121.27V18.5933H121.336C121.461 18.2638 121.672 18.0032 121.967 17.8115C122.262 17.6172 122.619 17.5201 123.04 17.5201C123.433 17.5201 123.776 17.6062 124.069 17.7783C124.361 17.9504 124.589 18.1962 124.751 18.5158C124.913 18.833 124.994 19.2116 124.994 19.6517V23.2583H123.423V19.9319C123.426 19.5853 123.337 19.3148 123.158 19.1206C122.978 18.9239 122.731 18.8256 122.417 18.8256C122.205 18.8256 122.018 18.8711 121.856 18.962C121.696 19.053 121.571 19.1858 121.48 19.3603C121.391 19.5324 121.346 19.7402 121.343 19.9836Z" fill="black"></path><path d="M38.7102 29.9645L40.5787 35.2626H40.6525L42.5209 29.9645H43.3199L41.0089 36.2583H40.2222L37.9112 29.9645H38.7102ZM44.2019 36.2583V31.5379H44.9272V36.2583H44.2019ZM44.5707 30.7512C44.4294 30.7512 44.3074 30.7031 44.205 30.6068C44.1046 30.5105 44.0544 30.3947 44.0544 30.2595C44.0544 30.1243 44.1046 30.0085 44.205 29.9123C44.3074 29.816 44.4294 29.7678 44.5707 29.7678C44.7121 29.7678 44.833 29.816 44.9333 29.9123C45.0358 30.0085 45.087 30.1243 45.087 30.2595C45.087 30.3947 45.0358 30.5105 44.9333 30.6068C44.833 30.7031 44.7121 30.7512 44.5707 30.7512ZM48.038 36.3566C47.6446 36.3566 47.2974 36.2573 46.9962 36.0585C46.695 35.8578 46.4594 35.575 46.2894 35.2104C46.1193 34.8436 46.0343 34.4103 46.0343 33.9104C46.0343 33.4146 46.1193 32.9844 46.2894 32.6197C46.4594 32.255 46.6961 31.9733 46.9993 31.7746C47.3025 31.5759 47.6528 31.4765 48.0503 31.4765C48.3576 31.4765 48.6004 31.5277 48.7786 31.6301C48.9589 31.7305 49.0962 31.8453 49.1904 31.9743C49.2867 32.1014 49.3615 32.2058 49.4148 32.2878H49.4762V29.9645H50.2015V36.2583H49.5008V35.533H49.4148C49.3615 35.6191 49.2857 35.7277 49.1874 35.8588C49.089 35.9879 48.9487 36.1036 48.7663 36.2061C48.584 36.3064 48.3412 36.3566 48.038 36.3566ZM48.1363 35.7051C48.4273 35.7051 48.6731 35.6293 48.8739 35.4777C49.0747 35.3241 49.2273 35.112 49.3318 34.8416C49.4363 34.5691 49.4885 34.2546 49.4885 33.8981C49.4885 33.5457 49.4373 33.2374 49.3349 32.9731C49.2324 32.7068 49.0808 32.4998 48.88 32.3523C48.6793 32.2028 48.4314 32.128 48.1363 32.128C47.829 32.128 47.5729 32.2069 47.368 32.3646C47.1652 32.5203 47.0126 32.7324 46.9101 33.0008C46.8098 33.2671 46.7596 33.5662 46.7596 33.8981C46.7596 34.2341 46.8108 34.5394 46.9132 34.8139C47.0177 35.0864 47.1714 35.3036 47.3742 35.4654C47.5791 35.6252 47.8331 35.7051 48.1363 35.7051ZM53.6096 36.3566C53.1548 36.3566 52.7624 36.2563 52.4326 36.0555C52.1048 35.8526 51.8518 35.5699 51.6735 35.2073C51.4973 34.8426 51.4092 34.4185 51.4092 33.935C51.4092 33.4515 51.4973 33.0254 51.6735 32.6566C51.8518 32.2857 52.0997 31.9969 52.4172 31.7899C52.7368 31.581 53.1097 31.4765 53.5359 31.4765C53.7817 31.4765 54.0245 31.5175 54.2642 31.5994C54.5039 31.6814 54.7221 31.8145 54.9188 31.9989C55.1155 32.1813 55.2722 32.423 55.389 32.7242C55.5057 33.0254 55.5641 33.3962 55.5641 33.8367V34.144H51.9255V33.5171H54.8266C54.8266 33.2507 54.7733 33.0131 54.6668 32.8041C54.5623 32.5951 54.4127 32.4302 54.2181 32.3093C54.0255 32.1884 53.7981 32.128 53.5359 32.128C53.247 32.128 52.997 32.1997 52.786 32.3431C52.577 32.4845 52.4162 32.6689 52.3035 32.8963C52.1908 33.1237 52.1345 33.3675 52.1345 33.6277V34.0456C52.1345 34.4021 52.196 34.7043 52.3189 34.9522C52.4439 35.1981 52.617 35.3855 52.8382 35.5146C53.0595 35.6416 53.3166 35.7051 53.6096 35.7051C53.8001 35.7051 53.9722 35.6785 54.1259 35.6252C54.2816 35.5699 54.4158 35.488 54.5285 35.3794C54.6412 35.2687 54.7282 35.1315 54.7897 34.9676L55.4904 35.1643C55.4166 35.4019 55.2927 35.6109 55.1185 35.7912C54.9444 35.9694 54.7293 36.1087 54.4732 36.2091C54.2171 36.3075 53.9292 36.3566 53.6096 36.3566ZM58.585 36.3566C58.1589 36.3566 57.785 36.2552 57.4633 36.0524C57.1437 35.8496 56.8938 35.5658 56.7135 35.2011C56.5352 34.8365 56.4461 34.4103 56.4461 33.9227C56.4461 33.431 56.5352 33.0018 56.7135 32.6351C56.8938 32.2683 57.1437 31.9836 57.4633 31.7807C57.785 31.5779 58.1589 31.4765 58.585 31.4765C59.0112 31.4765 59.3841 31.5779 59.7037 31.7807C60.0253 31.9836 60.2753 32.2683 60.4535 32.6351C60.6338 33.0018 60.7239 33.431 60.7239 33.9227C60.7239 34.4103 60.6338 34.8365 60.4535 35.2011C60.2753 35.5658 60.0253 35.8496 59.7037 36.0524C59.3841 36.2552 59.0112 36.3566 58.585 36.3566ZM58.585 35.7051C58.9087 35.7051 59.1751 35.6222 59.3841 35.4562C59.593 35.2903 59.7477 35.0721 59.8481 34.8016C59.9485 34.5312 59.9987 34.2382 59.9987 33.9227C59.9987 33.6072 59.9485 33.3132 59.8481 33.0407C59.7477 32.7682 59.593 32.548 59.3841 32.38C59.1751 32.212 58.9087 32.128 58.585 32.128C58.2613 32.128 57.995 32.212 57.786 32.38C57.577 32.548 57.4224 32.7682 57.322 33.0407C57.2216 33.3132 57.1714 33.6072 57.1714 33.9227C57.1714 34.2382 57.2216 34.5312 57.322 34.8016C57.4224 35.0721 57.577 35.2903 57.786 35.4562C57.995 35.6222 58.2613 35.7051 58.585 35.7051ZM64.6215 29.9645L66.4899 35.2626H66.5637L68.4322 29.9645H69.2312L66.9202 36.2583H66.1334L63.8224 29.9645H64.6215ZM70.1132 36.2583V31.5379H70.8384V36.2583H70.1132ZM70.482 30.7512C70.3406 30.7512 70.2187 30.7031 70.1162 30.6068C70.0159 30.5105 69.9657 30.3947 69.9657 30.2595C69.9657 30.1243 70.0159 30.0085 70.1162 29.9123C70.2187 29.816 70.3406 29.7678 70.482 29.7678C70.6233 29.7678 70.7442 29.816 70.8446 29.9123C70.947 30.0085 70.9982 30.1243 70.9982 30.2595C70.9982 30.3947 70.947 30.5105 70.8446 30.6068C70.7442 30.7031 70.6233 30.7512 70.482 30.7512ZM74.1459 36.3566C73.6911 36.3566 73.2987 36.2563 72.9689 36.0555C72.6411 35.8526 72.3881 35.5699 72.2098 35.2073C72.0336 34.8426 71.9455 34.4185 71.9455 33.935C71.9455 33.4515 72.0336 33.0254 72.2098 32.6566C72.3881 32.2857 72.636 31.9969 72.9535 31.7899C73.2731 31.581 73.646 31.4765 74.0722 31.4765C74.318 31.4765 74.5608 31.5175 74.8005 31.5994C75.0402 31.6814 75.2584 31.8145 75.4551 31.9989C75.6517 32.1813 75.8085 32.423 75.9253 32.7242C76.042 33.0254 76.1004 33.3962 76.1004 33.8367V34.144H72.4618V33.5171H75.3629C75.3629 33.2507 75.3096 33.0131 75.2031 32.8041C75.0986 32.5951 74.949 32.4302 74.7544 32.3093C74.5618 32.1884 74.3344 32.128 74.0722 32.128C73.7833 32.128 73.5333 32.1997 73.3223 32.3431C73.1133 32.4845 72.9525 32.6689 72.8398 32.8963C72.7271 33.1237 72.6708 33.3675 72.6708 33.6277V34.0456C72.6708 34.4021 72.7323 34.7043 72.8552 34.9522C72.9802 35.1981 73.1533 35.3855 73.3745 35.5146C73.5958 35.6416 73.8529 35.7051 74.1459 35.7051C74.3364 35.7051 74.5085 35.6785 74.6622 35.6252C74.8179 35.5699 74.9521 35.488 75.0648 35.3794C75.1775 35.2687 75.2645 35.1315 75.326 34.9676L76.0267 35.1643C75.9529 35.4019 75.829 35.6109 75.6548 35.7912C75.4807 35.9694 75.2656 36.1087 75.0095 36.2091C74.7534 36.3075 74.4655 36.3566 74.1459 36.3566ZM78.2731 36.2583L76.8349 31.5379H77.5971L78.6173 35.152H78.6665L79.6745 31.5379H80.4489L81.4446 35.1397H81.4938L82.5141 31.5379H83.2762L81.838 36.2583H81.125L80.0924 32.632H80.0187L78.9861 36.2583H78.2731ZM87.5786 32.5951L86.9271 32.7795C86.8862 32.6709 86.8257 32.5654 86.7458 32.463C86.668 32.3585 86.5614 32.2724 86.4262 32.2048C86.291 32.1372 86.1179 32.1034 85.9068 32.1034C85.618 32.1034 85.3772 32.17 85.1847 32.3032C84.9941 32.4343 84.8989 32.6013 84.8989 32.8041C84.8989 32.9844 84.9644 33.1268 85.0955 33.2313C85.2267 33.3357 85.4315 33.4228 85.7102 33.4925L86.4108 33.6646C86.8329 33.767 87.1474 33.9237 87.3543 34.1348C87.5612 34.3437 87.6647 34.6131 87.6647 34.943C87.6647 35.2134 87.5868 35.4552 87.4311 35.6683C87.2775 35.8813 87.0623 36.0493 86.7858 36.1723C86.5092 36.2952 86.1875 36.3566 85.8208 36.3566C85.3393 36.3566 84.9408 36.2522 84.6253 36.0432C84.3098 35.8342 84.1101 35.5289 84.0261 35.1274L84.7145 34.9553C84.78 35.2093 84.904 35.3999 85.0863 35.5269C85.2707 35.6539 85.5114 35.7174 85.8085 35.7174C86.1465 35.7174 86.4149 35.6457 86.6137 35.5023C86.8144 35.3568 86.9148 35.1827 86.9148 34.9799C86.9148 34.816 86.8575 34.6787 86.7427 34.5681C86.628 34.4554 86.4518 34.3714 86.2142 34.3161L85.4274 34.1317C84.9951 34.0292 84.6776 33.8705 84.4748 33.6553C84.274 33.4382 84.1736 33.1667 84.1736 32.841C84.1736 32.5746 84.2484 32.339 84.3979 32.1341C84.5495 31.9293 84.7554 31.7684 85.0156 31.6517C85.2779 31.5349 85.5749 31.4765 85.9068 31.4765C86.374 31.4765 86.7407 31.5789 87.007 31.7838C87.2754 31.9887 87.466 32.2591 87.5786 32.5951Z" fill="#7B7B7B"></path><path d="M62.7835 184.373V180.153H65.3138V180.606H63.2945V182.032H65.1243V182.486H63.2945V184.373H62.7835ZM67.2177 184.439C66.9128 184.439 66.6497 184.372 66.4285 184.237C66.2088 184.101 66.0391 183.911 65.9196 183.668C65.8015 183.424 65.7424 183.14 65.7424 182.815C65.7424 182.491 65.8015 182.205 65.9196 181.958C66.0391 181.71 66.2053 181.516 66.4182 181.377C66.6325 181.237 66.8825 181.167 67.1683 181.167C67.3331 181.167 67.4959 181.194 67.6566 181.249C67.8173 181.304 67.9636 181.394 68.0955 181.517C68.2273 181.639 68.3324 181.802 68.4107 182.003C68.489 182.205 68.5282 182.454 68.5282 182.749V182.955H66.0886V182.535H68.0337C68.0337 182.357 67.9979 182.197 67.9265 182.057C67.8565 181.917 67.7562 181.806 67.6257 181.725C67.4966 181.644 67.3441 181.604 67.1683 181.604C66.9746 181.604 66.807 181.652 66.6655 181.748C66.5254 181.843 66.4176 181.966 66.342 182.119C66.2664 182.271 66.2287 182.435 66.2287 182.609V182.889C66.2287 183.129 66.2699 183.331 66.3523 183.497C66.4361 183.662 66.5522 183.788 66.7005 183.874C66.8489 183.96 67.0213 184.002 67.2177 184.002C67.3455 184.002 67.4608 183.984 67.5639 183.949C67.6683 183.911 67.7582 183.857 67.8338 183.784C67.9093 183.71 67.9677 183.618 68.0089 183.508L68.4787 183.64C68.4293 183.799 68.3462 183.939 68.2294 184.06C68.1126 184.179 67.9684 184.273 67.7967 184.34C67.625 184.406 67.432 184.439 67.2177 184.439ZM69.3338 184.373V180.153H69.8201V181.711H69.8613C69.897 181.656 69.9465 181.586 70.0097 181.501C70.0742 181.414 70.1663 181.337 70.2858 181.27C70.4067 181.201 70.5701 181.167 70.7762 181.167C71.0427 181.167 71.2776 181.234 71.4809 181.367C71.6842 181.5 71.8428 181.689 71.9568 181.933C72.0708 182.178 72.1279 182.466 72.1279 182.799C72.1279 183.134 72.0708 183.425 71.9568 183.67C71.8428 183.915 71.6848 184.104 71.4829 184.239C71.281 184.372 71.0482 184.439 70.7844 184.439C70.5811 184.439 70.4183 184.405 70.2961 184.338C70.1738 184.269 70.0797 184.192 70.0138 184.105C69.9479 184.017 69.897 183.944 69.8613 183.887H69.8036V184.373H69.3338ZM69.8119 182.791C69.8119 183.03 69.8469 183.24 69.9169 183.423C69.987 183.604 70.0893 183.747 70.224 183.85C70.3586 183.951 70.5234 184.002 70.7185 184.002C70.9218 184.002 71.0914 183.949 71.2274 183.841C71.3648 183.733 71.4678 183.587 71.5365 183.405C71.6066 183.221 71.6416 183.016 71.6416 182.791C71.6416 182.568 71.6072 182.368 71.5386 182.189C71.4712 182.009 71.3689 181.867 71.2315 181.762C71.0955 181.657 70.9245 181.604 70.7185 181.604C70.5207 181.604 70.3545 181.654 70.2198 181.754C70.0852 181.853 69.9836 181.992 69.9149 182.17C69.8462 182.348 69.8119 182.554 69.8119 182.791Z" fill="#7B7B7B"></path><path d="M33.8829 180.153H34.3939V183.17C34.3939 183.439 34.3445 183.668 34.2456 183.856C34.1467 184.044 34.0072 184.187 33.8273 184.284C33.6473 184.382 33.4351 184.431 33.1906 184.431C32.9598 184.431 32.7545 184.389 32.5745 184.305C32.3946 184.22 32.2531 184.099 32.15 183.942C32.047 183.786 31.9955 183.6 31.9955 183.384H32.4983C32.4983 183.504 32.5278 183.608 32.5869 183.697C32.6473 183.785 32.7297 183.854 32.8341 183.903C32.9385 183.953 33.0573 183.977 33.1906 183.977C33.3376 183.977 33.4626 183.947 33.5656 183.885C33.6686 183.823 33.7469 183.732 33.8005 183.613C33.8554 183.492 33.8829 183.344 33.8829 183.17V180.153ZM36.2834 184.447C36.0828 184.447 35.9008 184.409 35.7374 184.334C35.5739 184.257 35.4441 184.146 35.3479 184.002C35.2518 183.857 35.2037 183.681 35.2037 183.475C35.2037 183.293 35.2394 183.146 35.3108 183.034C35.3823 182.92 35.4777 182.83 35.5972 182.766C35.7167 182.701 35.8486 182.653 35.9929 182.622C36.1385 182.589 36.2848 182.563 36.4317 182.543C36.6241 182.519 36.78 182.5 36.8995 182.488C37.0204 182.474 37.1083 182.451 37.1632 182.42C37.2195 182.388 37.2477 182.333 37.2477 182.255V182.238C37.2477 182.035 37.1921 181.877 37.0808 181.764C36.9709 181.652 36.804 181.596 36.5801 181.596C36.3479 181.596 36.1659 181.646 36.0341 181.748C35.9022 181.85 35.8095 181.958 35.7559 182.074L35.2943 181.909C35.3768 181.716 35.4867 181.567 35.624 181.46C35.7628 181.351 35.9139 181.275 36.0773 181.233C36.2422 181.189 36.4043 181.167 36.5636 181.167C36.6653 181.167 36.782 181.179 36.9139 181.204C37.0471 181.227 37.1756 181.276 37.2992 181.35C37.4242 181.424 37.5279 181.536 37.6103 181.686C37.6928 181.836 37.734 182.036 37.734 182.288V184.373H37.2477V183.944H37.223C37.19 184.013 37.1351 184.087 37.0581 184.165C36.9812 184.243 36.8789 184.31 36.7511 184.365C36.6234 184.42 36.4675 184.447 36.2834 184.447ZM36.3576 184.01C36.5499 184.01 36.712 183.973 36.8438 183.897C36.9771 183.822 37.0774 183.724 37.1447 183.604C37.2134 183.485 37.2477 183.359 37.2477 183.227V182.782C37.2271 182.807 37.1818 182.83 37.1117 182.85C37.043 182.87 36.9633 182.887 36.8727 182.902C36.7834 182.916 36.6962 182.928 36.611 182.939C36.5272 182.949 36.4592 182.957 36.407 182.964C36.2806 182.98 36.1625 183.007 36.0526 183.044C35.9441 183.08 35.8562 183.134 35.7889 183.207C35.7229 183.278 35.69 183.376 35.69 183.499C35.69 183.668 35.7525 183.796 35.8775 183.883C36.0038 183.968 36.1639 184.01 36.3576 184.01ZM39.1078 182.469V184.373H38.6215V181.208H39.0913V181.703H39.1325C39.2067 181.542 39.3193 181.413 39.4704 181.315C39.6215 181.216 39.8166 181.167 40.0556 181.167C40.2699 181.167 40.4574 181.211 40.6181 181.299C40.7789 181.385 40.9039 181.517 40.9931 181.694C41.0824 181.87 41.1271 182.093 41.1271 182.362V184.373H40.6408V182.395C40.6408 182.146 40.5762 181.953 40.4471 181.814C40.318 181.674 40.1408 181.604 39.9155 181.604C39.7603 181.604 39.6215 181.637 39.4993 181.705C39.3784 181.772 39.2829 181.87 39.2129 181.999C39.1428 182.128 39.1078 182.285 39.1078 182.469Z" fill="#7B7B7B"></path><path d="M94.1808 180.153H94.7907L96.2248 183.656H96.2742L97.7083 180.153H98.3182V184.373H97.8402V181.167H97.799L96.4803 184.373H96.0187L94.7 181.167H94.6588V184.373H94.1808V180.153ZM100.208 184.447C100.008 184.447 99.8256 184.409 99.6622 184.334C99.4987 184.257 99.3689 184.146 99.2727 184.002C99.1766 183.857 99.1285 183.681 99.1285 183.475C99.1285 183.293 99.1642 183.146 99.2357 183.034C99.3071 182.92 99.4026 182.83 99.5221 182.766C99.6416 182.701 99.7734 182.653 99.9177 182.622C100.063 182.589 100.21 182.563 100.357 182.543C100.549 182.519 100.705 182.5 100.824 182.488C100.945 182.474 101.033 182.451 101.088 182.42C101.144 182.388 101.173 182.333 101.173 182.255V182.238C101.173 182.035 101.117 181.877 101.006 181.764C100.896 181.652 100.729 181.596 100.505 181.596C100.273 181.596 100.091 181.646 99.9589 181.748C99.827 181.85 99.7343 181.958 99.6807 182.074L99.2192 181.909C99.3016 181.716 99.4115 181.567 99.5488 181.46C99.6876 181.351 99.8387 181.275 100.002 181.233C100.167 181.189 100.329 181.167 100.488 181.167C100.59 181.167 100.707 181.179 100.839 181.204C100.972 181.227 101.1 181.276 101.224 181.35C101.349 181.424 101.453 181.536 101.535 181.686C101.618 181.836 101.659 182.036 101.659 182.288V184.373H101.173V183.944H101.148C101.115 184.013 101.06 184.087 100.983 184.165C100.906 184.243 100.804 184.31 100.676 184.365C100.548 184.42 100.392 184.447 100.208 184.447ZM100.282 184.01C100.475 184.01 100.637 183.973 100.769 183.897C100.902 183.822 101.002 183.724 101.069 183.604C101.138 183.485 101.173 183.359 101.173 183.227V182.782C101.152 182.807 101.107 182.83 101.037 182.85C100.968 182.87 100.888 182.887 100.798 182.902C100.708 182.916 100.621 182.928 100.536 182.939C100.452 182.949 100.384 182.957 100.332 182.964C100.205 182.98 100.087 183.007 99.9774 183.044C99.8689 183.08 99.781 183.134 99.7137 183.207C99.6478 183.278 99.6148 183.376 99.6148 183.499C99.6148 183.668 99.6773 183.796 99.8023 183.883C99.9287 183.968 100.089 184.01 100.282 184.01ZM102.546 184.373V181.208H103.016V181.686H103.049C103.107 181.53 103.211 181.403 103.362 181.305C103.513 181.207 103.684 181.159 103.873 181.159C103.909 181.159 103.954 181.159 104.007 181.161C104.061 181.162 104.101 181.164 104.129 181.167V181.661C104.112 181.657 104.075 181.651 104.015 181.643C103.958 181.633 103.897 181.628 103.832 181.628C103.678 181.628 103.541 181.661 103.42 181.725C103.3 181.789 103.206 181.876 103.136 181.989C103.067 182.1 103.033 182.227 103.033 182.37V184.373H102.546Z" fill="#7B7B7B"></path><path d="M124.077 184.373H123.541L125.091 180.153H125.618L127.168 184.373H126.632L125.371 180.821H125.338L124.077 184.373ZM124.275 182.725H126.434V183.178H124.275V182.725ZM127.759 185.56V181.208H128.229V181.711H128.286C128.322 181.656 128.372 181.586 128.435 181.501C128.499 181.414 128.591 181.337 128.711 181.27C128.832 181.201 128.995 181.167 129.201 181.167C129.468 181.167 129.703 181.234 129.906 181.367C130.109 181.5 130.268 181.689 130.382 181.933C130.496 182.178 130.553 182.466 130.553 182.799C130.553 183.134 130.496 183.425 130.382 183.67C130.268 183.915 130.11 184.104 129.908 184.239C129.706 184.372 129.473 184.439 129.21 184.439C129.006 184.439 128.843 184.405 128.721 184.338C128.599 184.269 128.505 184.192 128.439 184.105C128.373 184.017 128.322 183.944 128.286 183.887H128.245V185.56H127.759ZM128.237 182.791C128.237 183.03 128.272 183.24 128.342 183.423C128.412 183.604 128.514 183.747 128.649 183.85C128.784 183.951 128.949 184.002 129.144 184.002C129.347 184.002 129.517 183.949 129.653 183.841C129.79 183.733 129.893 183.587 129.962 183.405C130.032 183.221 130.067 183.016 130.067 182.791C130.067 182.568 130.032 182.368 129.964 182.189C129.896 182.009 129.794 181.867 129.657 181.762C129.521 181.657 129.35 181.604 129.144 181.604C128.946 181.604 128.78 181.654 128.645 181.754C128.51 181.853 128.409 181.992 128.34 182.17C128.271 182.348 128.237 182.554 128.237 182.791ZM131.295 184.373V181.208H131.765V181.686H131.798C131.855 181.53 131.96 181.403 132.111 181.305C132.262 181.207 132.432 181.159 132.622 181.159C132.657 181.159 132.702 181.159 132.756 181.161C132.809 181.162 132.85 181.164 132.877 181.167V181.661C132.861 181.657 132.823 181.651 132.764 181.643C132.706 181.633 132.645 181.628 132.581 181.628C132.427 181.628 132.289 181.661 132.168 181.725C132.049 181.789 131.954 181.876 131.884 181.989C131.815 182.1 131.781 182.227 131.781 182.37V184.373H131.295Z" fill="#7B7B7B"></path><path d="M154.146 180.153H154.756L156.19 183.656H156.239L157.673 180.153H158.283V184.373H157.805V181.167H157.764L156.445 184.373H155.984L154.665 181.167H154.624V184.373H154.146V180.153ZM160.173 184.447C159.973 184.447 159.791 184.409 159.627 184.334C159.464 184.257 159.334 184.146 159.238 184.002C159.142 183.857 159.093 183.681 159.093 183.475C159.093 183.293 159.129 183.146 159.201 183.034C159.272 182.92 159.367 182.83 159.487 182.766C159.606 182.701 159.738 182.653 159.883 182.622C160.028 182.589 160.175 182.563 160.321 182.543C160.514 182.519 160.67 182.5 160.789 182.488C160.91 182.474 160.998 182.451 161.053 182.42C161.109 182.388 161.137 182.333 161.137 182.255V182.238C161.137 182.035 161.082 181.877 160.971 181.764C160.861 181.652 160.694 181.596 160.47 181.596C160.238 181.596 160.056 181.646 159.924 181.748C159.792 181.85 159.699 181.958 159.646 182.074L159.184 181.909C159.267 181.716 159.376 181.567 159.514 181.46C159.653 181.351 159.804 181.275 159.967 181.233C160.132 181.189 160.294 181.167 160.453 181.167C160.555 181.167 160.672 181.179 160.804 181.204C160.937 181.227 161.065 181.276 161.189 181.35C161.314 181.424 161.418 181.536 161.5 181.686C161.583 181.836 161.624 182.036 161.624 182.288V184.373H161.137V183.944H161.113C161.08 184.013 161.025 184.087 160.948 184.165C160.871 184.243 160.769 184.31 160.641 184.365C160.513 184.42 160.357 184.447 160.173 184.447ZM160.247 184.01C160.44 184.01 160.602 183.973 160.734 183.897C160.867 183.822 160.967 183.724 161.034 183.604C161.103 183.485 161.137 183.359 161.137 183.227V182.782C161.117 182.807 161.072 182.83 161.001 182.85C160.933 182.87 160.853 182.887 160.762 182.902C160.673 182.916 160.586 182.928 160.501 182.939C160.417 182.949 160.349 182.957 160.297 182.964C160.17 182.98 160.052 183.007 159.942 183.044C159.834 183.08 159.746 183.134 159.679 183.207C159.613 183.278 159.58 183.376 159.58 183.499C159.58 183.668 159.642 183.796 159.767 183.883C159.894 183.968 160.054 184.01 160.247 184.01ZM162.711 185.56C162.629 185.56 162.555 185.553 162.491 185.539C162.426 185.527 162.381 185.515 162.357 185.502L162.48 185.074C162.598 185.104 162.703 185.115 162.794 185.107C162.884 185.098 162.965 185.058 163.035 184.985C163.106 184.914 163.171 184.798 163.23 184.637L163.321 184.39L162.151 181.208H162.678L163.552 183.73H163.585L164.458 181.208H164.986L163.642 184.835C163.582 184.998 163.507 185.133 163.418 185.241C163.329 185.349 163.225 185.429 163.107 185.482C162.99 185.534 162.858 185.56 162.711 185.56Z" fill="#7B7B7B"></path><path d="M187.393 180.153H187.904V183.17C187.904 183.439 187.855 183.668 187.756 183.856C187.657 184.044 187.518 184.187 187.338 184.284C187.158 184.382 186.946 184.431 186.701 184.431C186.47 184.431 186.265 184.389 186.085 184.305C185.905 184.22 185.764 184.099 185.661 183.942C185.558 183.786 185.506 183.6 185.506 183.384H186.009C186.009 183.504 186.038 183.608 186.097 183.697C186.158 183.785 186.24 183.854 186.345 183.903C186.449 183.953 186.568 183.977 186.701 183.977C186.848 183.977 186.973 183.947 187.076 183.885C187.179 183.823 187.257 183.732 187.311 183.613C187.366 183.492 187.393 183.344 187.393 183.17V180.153ZM190.857 183.079V181.208H191.343V184.373H190.857V183.837H190.824C190.75 183.998 190.635 184.135 190.478 184.247C190.321 184.359 190.124 184.414 189.885 184.414C189.687 184.414 189.511 184.371 189.357 184.284C189.203 184.197 189.082 184.065 188.994 183.889C188.907 183.712 188.863 183.488 188.863 183.219V181.208H189.349V183.186C189.349 183.417 189.413 183.601 189.543 183.738C189.673 183.876 189.839 183.944 190.041 183.944C190.162 183.944 190.285 183.914 190.41 183.852C190.536 183.79 190.642 183.695 190.727 183.567C190.814 183.44 190.857 183.277 190.857 183.079ZM192.72 182.469V184.373H192.234V181.208H192.704V181.703H192.745C192.819 181.542 192.932 181.413 193.083 181.315C193.234 181.216 193.429 181.167 193.668 181.167C193.882 181.167 194.07 181.211 194.231 181.299C194.391 181.385 194.516 181.517 194.606 181.694C194.695 181.87 194.74 182.093 194.74 182.362V184.373H194.253V182.395C194.253 182.146 194.189 181.953 194.06 181.814C193.931 181.674 193.753 181.604 193.528 181.604C193.373 181.604 193.234 181.637 193.112 181.705C192.991 181.772 192.895 181.87 192.825 181.999C192.755 182.128 192.72 182.285 192.72 182.469Z" fill="#7B7B7B"></path><path d="M21.2481 167.79C20.9377 167.79 20.6732 167.705 20.4548 167.536C20.2364 167.366 20.0695 167.119 19.9541 166.796C19.8387 166.472 19.781 166.081 19.781 165.622C19.781 165.166 19.8387 164.777 19.9541 164.454C20.0709 164.13 20.2385 163.882 20.4569 163.712C20.6767 163.54 20.9404 163.454 21.2481 163.454C21.5558 163.454 21.8189 163.54 22.0373 163.712C22.2571 163.882 22.4246 164.13 22.54 164.454C22.6568 164.777 22.7152 165.166 22.7152 165.622C22.7152 166.081 22.6575 166.472 22.5421 166.796C22.4267 167.119 22.2598 167.366 22.0414 167.536C21.823 167.705 21.5586 167.79 21.2481 167.79ZM21.2481 167.336C21.5558 167.336 21.7948 167.188 21.9652 166.891C22.1355 166.595 22.2207 166.171 22.2207 165.622C22.2207 165.257 22.1815 164.945 22.1032 164.689C22.0263 164.432 21.915 164.236 21.7694 164.101C21.6252 163.967 21.4514 163.899 21.2481 163.899C20.9432 163.899 20.7048 164.05 20.5331 164.351C20.3614 164.65 20.2756 165.074 20.2756 165.622C20.2756 165.987 20.314 166.298 20.3909 166.553C20.4679 166.809 20.5785 167.003 20.7227 167.136C20.8683 167.27 21.0434 167.336 21.2481 167.336Z" fill="#7B7B7B"></path><path d="M16.9783 137.116V141.335H16.4673V137.651H16.4425L15.4123 138.335V137.816L16.4673 137.116H16.9783ZM18.2661 137.116H18.876L20.3101 140.618H20.3595L21.7936 137.116H22.4035V141.335H21.9255V138.129H21.8843L20.5656 141.335H20.104L18.7853 138.129H18.7441V141.335H18.2661V137.116Z" fill="#7B7B7B"></path><path d="M14.8499 112.243V111.872L16.2427 110.347C16.4062 110.168 16.5408 110.013 16.6466 109.881C16.7524 109.748 16.8307 109.623 16.8815 109.506C16.9337 109.388 16.9598 109.265 16.9598 109.135C16.9598 108.987 16.9241 108.859 16.8527 108.75C16.7826 108.642 16.6864 108.558 16.5642 108.499C16.4419 108.44 16.3046 108.41 16.1521 108.41C15.99 108.41 15.8485 108.444 15.7276 108.511C15.6081 108.577 15.5154 108.67 15.4495 108.789C15.3849 108.909 15.3526 109.049 15.3526 109.21H14.8663C14.8663 108.962 14.9233 108.745 15.0374 108.559C15.1514 108.372 15.3066 108.226 15.503 108.122C15.7008 108.017 15.9227 107.965 16.1686 107.965C16.4158 107.965 16.6349 108.017 16.8259 108.122C17.0168 108.226 17.1665 108.367 17.2751 108.544C17.3836 108.721 17.4378 108.918 17.4378 109.135C17.4378 109.291 17.4097 109.442 17.3534 109.591C17.2984 109.738 17.2023 109.902 17.0649 110.083C16.9289 110.263 16.74 110.483 16.4983 110.743L15.5504 111.756V111.789H17.512V112.243H14.8499ZM18.4372 108.023H19.0471L20.4812 111.526H20.5306L21.9647 108.023H22.5746V112.243H22.0966V109.037H22.0554L20.7367 112.243H20.2751L18.9564 109.037H18.9152V112.243H18.4372V108.023Z" fill="#7B7B7B"></path><path d="M15.6808 84.0079C15.4088 84.0079 15.1664 83.9612 14.9535 83.8678C14.7419 83.7744 14.5737 83.6446 14.4486 83.4783C14.325 83.3108 14.2577 83.1164 14.2467 82.8952H14.766C14.777 83.0312 14.8237 83.1487 14.9061 83.2476C14.9885 83.3451 15.0963 83.4206 15.2296 83.4742C15.3628 83.5278 15.5105 83.5546 15.6726 83.5546C15.8539 83.5546 16.0146 83.523 16.1547 83.4598C16.2948 83.3966 16.4047 83.3087 16.4844 83.1961C16.5641 83.0834 16.6039 82.9529 16.6039 82.8046C16.6039 82.6493 16.5655 82.5127 16.4885 82.3945C16.4116 82.275 16.299 82.1816 16.1506 82.1143C16.0023 82.047 15.8209 82.0133 15.6066 82.0133H15.2687V81.56H15.6066C15.7742 81.56 15.9212 81.5298 16.0476 81.4694C16.1753 81.4089 16.2749 81.3238 16.3464 81.2139C16.4192 81.104 16.4556 80.9748 16.4556 80.8265C16.4556 80.6836 16.424 80.5593 16.3608 80.4535C16.2976 80.3478 16.2083 80.2654 16.0929 80.2063C15.9789 80.1472 15.8443 80.1177 15.6891 80.1177C15.5435 80.1177 15.4061 80.1445 15.277 80.198C15.1492 80.2502 15.0448 80.3265 14.9638 80.4268C14.8827 80.5257 14.8388 80.6452 14.8319 80.7853H14.3374C14.3456 80.5641 14.4122 80.3704 14.5372 80.2042C14.6623 80.0366 14.8257 79.9061 15.0276 79.8127C15.2309 79.7193 15.4542 79.6726 15.6973 79.6726C15.9583 79.6726 16.1822 79.7255 16.369 79.8313C16.5558 79.9357 16.6994 80.0737 16.7997 80.2454C16.8999 80.4171 16.9501 80.6026 16.9501 80.8018C16.9501 81.0394 16.8876 81.242 16.7626 81.4096C16.6389 81.5772 16.4707 81.6933 16.2578 81.7578V81.7908C16.5242 81.8348 16.7324 81.9481 16.8821 82.1308C17.0318 82.3121 17.1067 82.5367 17.1067 82.8046C17.1067 83.034 17.0442 83.24 16.9192 83.4227C16.7955 83.604 16.6266 83.7469 16.4123 83.8513C16.198 83.9557 15.9542 84.0079 15.6808 84.0079ZM18.0236 79.7303H18.6335L20.0676 83.2331H20.1171L21.5512 79.7303H22.1611V83.9502H21.683V80.7441H21.6418L20.3231 83.9502H19.8616L18.5428 80.7441H18.5016V83.9502H18.0236V79.7303Z" fill="#7B7B7B"></path><line x1="30.0018" y1="170.311" x2="196.888" y2="170.311" stroke="#E5E5EF" stroke-width="0.621679" stroke-linecap="round"></line><line x1="30.0018" y1="140.4" x2="196.888" y2="140.4" stroke="#E5E5EF" stroke-width="0.621679" stroke-linecap="round" stroke-dasharray="1.66 2.9"></line><line x1="30.0018" y1="111.308" x2="196.888" y2="111.308" stroke="#E5E5EF" stroke-width="0.621679" stroke-linecap="round" stroke-dasharray="1.66 2.9"></line><line x1="30.0018" y1="82.2155" x2="196.888" y2="82.2155" stroke="#E5E5EF" stroke-width="0.621679" stroke-linecap="round" stroke-dasharray="1.66 2.9"></line><path d="M29.6909 153.921C29.6909 151.632 31.5465 149.777 33.8354 149.777H39.4922C41.7812 149.777 43.6368 151.632 43.6368 153.921V154.793H29.6909V153.921Z" fill="#FF1352"></path><rect x="29.6909" y="154.793" width="13.9458" height="5.0163" fill="#FF1352" fill-opacity="0.7"></rect><rect x="29.6909" y="159.809" width="13.9458" height="5.0163" fill="#FF1352" fill-opacity="0.4"></rect><rect x="29.6909" y="164.825" width="13.9458" height="5.0163" fill="#FF1352" fill-opacity="0.2"></rect><path d="M60.6299 123.266C60.6299 120.977 62.4855 119.121 64.7744 119.121H70.4312C72.7202 119.121 74.5757 120.977 74.5757 123.266V131.802H60.6299V123.266Z" fill="#FF1352"></path><rect x="60.6299" y="131.801" width="13.9458" height="12.6805" fill="#FF1352" fill-opacity="0.7"></rect><rect x="60.6299" y="144.48" width="13.9458" height="12.6805" fill="#FF1352" fill-opacity="0.4"></rect><rect x="60.6299" y="157.161" width="13.9458" height="12.6805" fill="#FF1352" fill-opacity="0.2"></rect><path d="M91.1475 112.67C91.1475 110.381 93.003 108.525 95.292 108.525H100.949C103.238 108.525 105.093 110.381 105.093 112.67V123.855H91.1475V112.67Z" fill="#FF1352"></path><rect x="91.1475" y="123.855" width="13.9458" height="15.3294" fill="#FF1352" fill-opacity="0.7"></rect><rect x="91.1475" y="139.183" width="13.9458" height="15.3294" fill="#FF1352" fill-opacity="0.4"></rect><rect x="91.1475" y="154.512" width="13.9458" height="15.3294" fill="#FF1352" fill-opacity="0.2"></rect><path d="M121.665 92.231C121.665 89.942 123.521 88.0864 125.81 88.0864H131.466C133.755 88.0864 135.611 89.942 135.611 92.231V108.526H121.665V92.231Z" fill="#FF1352"></path><rect x="121.665" y="108.525" width="13.9458" height="20.4392" fill="#FF1352" fill-opacity="0.7"></rect><rect x="121.665" y="128.963" width="13.9458" height="20.4392" fill="#FF1352" fill-opacity="0.4"></rect><rect x="121.665" y="149.401" width="13.9458" height="20.4392" fill="#FF1352" fill-opacity="0.2"></rect><path d="M152.183 78.708C152.183 76.419 154.038 74.5635 156.327 74.5635H161.984C164.273 74.5635 166.128 76.419 166.128 78.708V98.3834H152.183V78.708Z" fill="#FF1352"></path><rect x="152.183" y="98.3833" width="13.9458" height="23.8199" fill="#FF1352" fill-opacity="0.7"></rect><rect x="152.183" y="122.201" width="13.9458" height="23.8199" fill="#FF1352" fill-opacity="0.4"></rect><rect x="152.183" y="146.021" width="13.9458" height="23.8199" fill="#FF1352" fill-opacity="0.2"></rect><path d="M182.7 68.311C182.7 66.0221 184.556 64.1665 186.845 64.1665H192.502C194.79 64.1665 196.646 66.0221 196.646 68.311V90.5857H182.7V68.311Z" fill="#FF1352"></path><rect x="182.7" y="90.5859" width="13.9458" height="26.4192" fill="#FF1352" fill-opacity="0.7"></rect><rect x="182.7" y="117.002" width="13.9458" height="26.4192" fill="#FF1352" fill-opacity="0.4"></rect><rect x="182.7" y="143.421" width="13.9458" height="26.4192" fill="#FF1352" fill-opacity="0.2"></rect><path opacity="0.7" d="M67.6106 124.796C43.3616 151.134 38.4692 151.696 36.6631 152.765L36.6633 169.781H190.23V68.2935C188.335 69.5895 182.224 119.375 173.373 109.479C168.797 107.069 164.565 77.7526 159.341 79.4527C153.553 79.4527 149.213 109.479 144.607 111.515C139.93 113.582 134.164 81.1667 124.286 97.2063C120.585 103.215 120.149 107.657 117.555 109.479C111.901 113.45 105.241 109.587 97.3861 114.975C95.5181 116.256 96.6608 117.012 88.1017 127.326C83.1211 133.328 69.7488 121.969 67.6106 124.796Z" fill="url(#paint0_linear_4_6740)"></path><path d="M36.6631 152.761C42.2035 152.761 58.391 134.516 66.2421 126.449C74.0933 118.382 82.4502 140.049 92.9197 121.188C103.389 102.328 113.325 121.556 121.648 102.747C134.492 73.7169 140.082 121.654 146.223 109.839C154.544 93.8283 157.018 56.6229 168.124 97.7453C179.23 138.868 188.335 69.7912 190.23 68.4951" stroke="#00F1EA" stroke-width="0.828906" stroke-linecap="round"></path><path d="M36.6637 154.542C37.1075 154.542 37.4789 154.303 37.7256 153.977C37.9721 153.651 38.1125 153.22 38.1125 152.76C38.1125 152.301 37.9721 151.869 37.7256 151.544C37.4789 151.217 37.1075 150.979 36.6637 150.979C36.2199 150.979 35.8485 151.217 35.6018 151.544C35.3553 151.869 35.2149 152.301 35.2149 152.76C35.2149 153.22 35.3553 153.651 35.6018 153.977C35.8485 154.303 36.2199 154.542 36.6637 154.542Z" fill="#00F1EA" stroke="white" stroke-width="0.828906"></path><path d="M67.6276 126.902C68.0714 126.902 68.4428 126.664 68.6895 126.338C68.936 126.012 69.0763 125.58 69.0763 125.121C69.0763 124.661 68.936 124.23 68.6895 123.904C68.4428 123.578 68.0714 123.339 67.6276 123.339C67.1838 123.339 66.8124 123.578 66.5657 123.904C66.3192 124.23 66.1788 124.661 66.1788 125.121C66.1788 125.58 66.3192 126.012 66.5657 126.338C66.8124 126.664 67.1838 126.902 67.6276 126.902Z" fill="#00F1EA" stroke="white" stroke-width="0.828906"></path><path d="M98.0358 116.317C98.4796 116.317 98.851 116.078 99.0977 115.752C99.3442 115.426 99.4845 114.994 99.4845 114.535C99.4845 114.075 99.3442 113.644 99.0977 113.318C98.851 112.992 98.4796 112.753 98.0358 112.753C97.592 112.753 97.2206 112.992 96.9739 113.318C96.7274 113.644 96.587 114.075 96.587 114.535C96.587 114.994 96.7274 115.426 96.9739 115.752C97.2206 116.078 97.592 116.317 98.0358 116.317Z" fill="#00F1EA" stroke="white" stroke-width="0.828906"></path><path d="M128.722 95.0221C129.166 95.0221 129.537 94.7833 129.784 94.4572C130.03 94.1314 130.171 93.6998 130.171 93.2404C130.171 92.7809 130.03 92.3493 129.784 92.0235C129.537 91.6974 129.166 91.4586 128.722 91.4586C128.278 91.4586 127.907 91.6974 127.66 92.0235C127.413 92.3493 127.273 92.7809 127.273 93.2404C127.273 93.6998 127.413 94.1314 127.66 94.4572C127.907 94.7833 128.278 95.0221 128.722 95.0221Z" fill="#00F1EA" stroke="white" stroke-width="0.828906"></path><path d="M159.408 81.5724C159.852 81.5724 160.224 81.3336 160.47 81.0075C160.717 80.6817 160.857 80.2501 160.857 79.7906C160.857 79.3312 160.717 78.8996 160.47 78.5738C160.224 78.2477 159.852 78.0089 159.408 78.0089C158.965 78.0089 158.593 78.2477 158.346 78.5738C158.1 78.8996 157.96 79.3312 157.96 79.7906C157.96 80.2501 158.1 80.6817 158.346 81.0075C158.593 81.3336 158.965 81.5724 159.408 81.5724Z" fill="#00F1EA" stroke="white" stroke-width="0.828906"></path><path d="M190.094 70.2765C190.538 70.2765 190.91 70.0377 191.156 69.7116C191.403 69.3858 191.543 68.9542 191.543 68.4948C191.543 68.0353 191.403 67.6037 191.156 67.2779C190.91 66.9518 190.538 66.713 190.094 66.713C189.651 66.713 189.279 66.9518 189.032 67.2779C188.786 67.6037 188.646 68.0353 188.646 68.4948C188.646 68.9542 188.786 69.3858 189.032 69.7116C189.279 70.0377 189.651 70.2765 190.094 70.2765Z" fill="#00F1EA" stroke="white" stroke-width="0.828906"></path><line x1="13.6904" y1="57.7669" x2="197.198" y2="57.7669" stroke="#E5E5EF" stroke-width="0.414453"></line><rect x="158" y="15.9092" width="39.1445" height="22.2727" rx="5" fill="#06D960" fill-opacity="0.15"></rect><path d="M163.013 26.5959C163.04 26.6603 163.102 26.7024 163.17 26.7024L165.036 26.7024L165.036 31.0112C165.036 31.1064 165.113 31.1836 165.207 31.1836L167.931 31.1836C168.025 31.1836 168.101 31.1064 168.101 31.0112L168.101 26.7024L169.974 26.7024C170.043 26.7024 170.105 26.6603 170.132 26.5962C170.158 26.5317 170.144 26.4576 170.095 26.4083L166.698 22.9585C166.666 22.9261 166.623 22.9078 166.577 22.9078C166.532 22.9078 166.489 22.9261 166.457 22.9581L163.05 26.408C163.001 26.4573 162.987 26.5314 163.013 26.5959Z" fill="#06D960"></path><path d="M175.146 30.6399C174.662 30.6399 174.234 30.5567 173.863 30.3901C173.494 30.2236 173.205 29.994 172.995 29.7014C172.786 29.4088 172.682 29.0757 172.685 28.7021C172.682 28.4095 172.742 28.1405 172.864 27.8952C172.987 27.6476 173.155 27.4417 173.367 27.2774C173.578 27.1108 173.815 27.005 174.076 26.96V26.9195C173.731 26.8362 173.456 26.6517 173.249 26.3658C173.041 26.08 172.939 25.7514 172.941 25.38C172.939 25.0266 173.032 24.7115 173.222 24.4347C173.413 24.1556 173.675 23.9362 174.008 23.7764C174.341 23.6165 174.72 23.5366 175.146 23.5366C175.567 23.5366 175.943 23.6177 176.273 23.7797C176.607 23.9395 176.869 24.159 177.06 24.4381C177.251 24.7149 177.348 25.0289 177.35 25.38C177.348 25.7514 177.242 26.08 177.033 26.3658C176.824 26.6517 176.551 26.8362 176.216 26.9195V26.96C176.475 27.005 176.708 27.1108 176.915 27.2774C177.124 27.4417 177.291 27.6476 177.415 27.8952C177.541 28.1405 177.605 28.4095 177.607 28.7021C177.605 29.0757 177.499 29.4088 177.29 29.7014C177.08 29.994 176.79 30.2236 176.419 30.3901C176.05 30.5567 175.625 30.6399 175.146 30.6399ZM175.146 29.7858C175.432 29.7858 175.679 29.7385 175.889 29.644C176.098 29.5472 176.26 29.4133 176.375 29.2422C176.49 29.0689 176.548 28.8664 176.55 28.6345C176.548 28.3937 176.485 28.181 176.361 27.9965C176.24 27.8119 176.074 27.6667 175.865 27.5609C175.656 27.4552 175.416 27.4023 175.146 27.4023C174.874 27.4023 174.632 27.4552 174.42 27.5609C174.208 27.6667 174.042 27.8119 173.92 27.9965C173.799 28.181 173.739 28.3937 173.741 28.6345C173.739 28.8664 173.794 29.0689 173.907 29.2422C174.022 29.4133 174.185 29.5472 174.396 29.644C174.608 29.7385 174.858 29.7858 175.146 29.7858ZM175.146 26.5684C175.375 26.5684 175.579 26.5222 175.757 26.43C175.935 26.3377 176.074 26.2094 176.176 26.0451C176.279 25.8808 176.332 25.6883 176.334 25.4678C176.332 25.2517 176.28 25.0626 176.179 24.9006C176.08 24.7385 175.942 24.6136 175.764 24.5258C175.586 24.4358 175.38 24.3908 175.146 24.3908C174.907 24.3908 174.698 24.4358 174.518 24.5258C174.34 24.6136 174.202 24.7385 174.103 24.9006C174.004 25.0626 173.955 25.2517 173.957 25.4678C173.955 25.6883 174.005 25.8808 174.106 26.0451C174.207 26.2094 174.347 26.3377 174.525 26.43C174.705 26.5222 174.912 26.5684 175.146 26.5684ZM181.116 23.5366C181.424 23.5389 181.728 23.5952 182.027 23.7055C182.327 23.8157 182.597 23.9958 182.837 24.2456C183.081 24.4955 183.274 24.8331 183.418 25.2585C183.564 25.6816 183.639 26.2083 183.641 26.8385C183.641 27.4439 183.58 27.983 183.459 28.4556C183.337 28.926 183.163 29.3233 182.935 29.6474C182.71 29.9715 182.437 30.2179 182.115 30.3867C181.793 30.5555 181.431 30.6399 181.028 30.6399C180.616 30.6399 180.25 30.5589 179.931 30.3969C179.611 30.2348 179.351 30.0109 179.151 29.725C178.95 29.4369 178.826 29.1061 178.776 28.7325H179.806C179.873 29.0295 180.011 29.2704 180.218 29.4549C180.427 29.6372 180.697 29.7284 181.028 29.7284C181.534 29.7284 181.929 29.5078 182.213 29.0667C182.496 28.6233 182.639 28.0043 182.642 27.2098H182.588C182.471 27.4034 182.324 27.57 182.149 27.7095C181.975 27.849 181.781 27.9571 181.565 28.0336C181.349 28.1101 181.118 28.1484 180.873 28.1484C180.474 28.1484 180.112 28.0505 179.785 27.8547C179.459 27.6589 179.199 27.3899 179.006 27.0478C178.812 26.7057 178.715 26.3152 178.715 25.8763C178.715 25.4396 178.814 25.0435 179.012 24.6879C179.213 24.3323 179.492 24.0509 179.85 23.8439C180.21 23.6346 180.632 23.5321 181.116 23.5366ZM181.119 24.4144C180.856 24.4144 180.618 24.4797 180.407 24.6102C180.197 24.7385 180.032 24.913 179.91 25.1335C179.789 25.3519 179.728 25.5949 179.728 25.8628C179.728 26.1306 179.787 26.3737 179.904 26.592C180.023 26.8081 180.185 26.9803 180.39 27.1086C180.597 27.2346 180.833 27.2976 181.099 27.2976C181.297 27.2976 181.481 27.2593 181.652 27.1828C181.823 27.1063 181.973 27.0005 182.101 26.8655C182.23 26.7282 182.33 26.5729 182.402 26.3996C182.474 26.2263 182.51 26.044 182.51 25.8526C182.51 25.5983 182.449 25.362 182.328 25.1437C182.208 24.9253 182.044 24.7498 181.835 24.617C181.625 24.482 181.387 24.4144 181.119 24.4144ZM188.47 29.249V28.8844C188.47 28.6233 188.524 28.3847 188.632 28.1686C188.742 27.9503 188.902 27.7759 189.111 27.6453C189.323 27.5126 189.578 27.4462 189.877 27.4462C190.184 27.4462 190.44 27.5114 190.647 27.642C190.854 27.7725 191.011 27.9469 191.116 28.1653C191.225 28.3836 191.279 28.6233 191.279 28.8844V29.249C191.279 29.5101 191.225 29.7498 191.116 29.9681C191.008 30.1842 190.85 30.3586 190.64 30.4914C190.433 30.6219 190.179 30.6872 189.877 30.6872C189.574 30.6872 189.317 30.6219 189.108 30.4914C188.898 30.3586 188.74 30.1842 188.632 29.9681C188.524 29.7498 188.47 29.5101 188.47 29.249ZM189.256 28.8844V29.249C189.256 29.4426 189.302 29.6181 189.395 29.7757C189.487 29.9332 189.648 30.012 189.877 30.012C190.105 30.012 190.263 29.9332 190.353 29.7757C190.443 29.6181 190.489 29.4426 190.489 29.249V28.8844C190.489 28.6908 190.445 28.5153 190.357 28.3577C190.271 28.2002 190.112 28.1214 189.877 28.1214C189.652 28.1214 189.493 28.2002 189.398 28.3577C189.304 28.5153 189.256 28.6908 189.256 28.8844ZM184.992 25.2922V24.9276C184.992 24.6665 185.046 24.4268 185.154 24.2085C185.265 23.9902 185.424 23.8157 185.634 23.6852C185.845 23.5547 186.101 23.4894 186.4 23.4894C186.706 23.4894 186.963 23.5547 187.17 23.6852C187.377 23.8157 187.533 23.9902 187.639 24.2085C187.745 24.4268 187.798 24.6665 187.798 24.9276V25.2922C187.798 25.5533 187.744 25.793 187.636 26.0113C187.53 26.2274 187.372 26.4018 187.163 26.5346C186.956 26.6652 186.702 26.7304 186.4 26.7304C186.094 26.7304 185.836 26.6652 185.627 26.5346C185.42 26.4018 185.262 26.2274 185.154 26.0113C185.046 25.793 184.992 25.5533 184.992 25.2922ZM185.782 24.9276V25.2922C185.782 25.4858 185.827 25.6613 185.917 25.8189C186.01 25.9764 186.17 26.0552 186.4 26.0552C186.625 26.0552 186.783 25.9764 186.873 25.8189C186.965 25.6613 187.011 25.4858 187.011 25.2922V24.9276C187.011 24.734 186.967 24.5585 186.879 24.4009C186.792 24.2434 186.632 24.1646 186.4 24.1646C186.175 24.1646 186.015 24.2434 185.921 24.4009C185.828 24.5585 185.782 24.734 185.782 24.9276ZM185.313 30.5454L190.067 23.6312H190.873L186.12 30.5454H185.313Z" fill="black"></path><defs><linearGradient id="paint0_linear_4_6740" x1="113.447" y1="68.2935" x2="113.447" y2="169.781" gradientUnits="userSpaceOnUse"><stop stop-color="#00F1EA"></stop><stop offset="1" stop-color="#00F1EA" stop-opacity="0"></stop></linearGradient><clipPath id="clip0_4_6740"><rect width="18.4481" height="21" fill="white" transform="translate(11.2417 15.2583)"></rect></clipPath></defs></svg>