<?xml version="1.0" encoding="utf-8"?>
<!-- Generator: Adobe Illustrator 24.0.1, SVG Export Plug-In . SVG Version: 6.00 Build 0)  -->
<svg version="1.1" id="Layer_1" xmlns="http://www.w3.org/2000/svg" xmlns:xlink="http://www.w3.org/1999/xlink" x="0px" y="0px"
	 viewBox="0 0 1080 1080" style="enable-background:new 0 0 1080 1080;" xml:space="preserve">
<style type="text/css">
	.st0{fill:#333333;}
	.st1{fill:url(#SVGID_1_);}
	.st2{fill:url(#SVGID_2_);}
	.st3{fill:url(#SVGID_3_);}
	.st4{fill:url(#SVGID_4_);}
	.st5{fill:#F2F2F2;}
	.st6{fill:url(#SVGID_5_);}
	.st7{fill:url(#SVGID_6_);}
	.st8{fill:url(#SVGID_7_);}
	.st9{fill:url(#SVGID_8_);}
	.st10{fill:url(#SVGID_9_);}
	.st11{fill:url(#SVGID_10_);}
	.st12{fill:#E6E6E6;}
</style>
<g>
	<path class="st0" d="M473.69,536.71h16.16L473,614.04h-19.06l-7.88-40.11l-7.98,40.11h-18.96l-16.96-77.32h16.16l10.38,55.67
		l9.88-55.67h14.96l9.78,55.67L473.69,536.71z"/>
	<path class="st0" d="M543.63,582.41c0.53,2.93,0.6,5.89,0.2,8.88c-0.07,0.46-0.17,1-0.3,1.6l-15.27,0.6l-24.34,0.9
		c0.6,1,1.3,1.9,2.09,2.69c2.19,2.33,4.89,3.69,8.08,4.09c1.2,0.2,2.38,0.22,3.54,0.05c1.16-0.16,2.28-0.46,3.34-0.9
		c1.06-0.43,2.06-0.98,2.99-1.65c0.93-0.67,1.76-1.43,2.49-2.3l16.46-0.6c-2,6.52-5.9,11.67-11.72,15.46
		c-5.82,3.79-12.19,5.22-19.1,4.29c-5.19-0.67-9.8-2.63-13.82-5.89c-4.03-3.26-6.93-7.25-8.73-11.97c-0.4-0.93-0.7-1.86-0.9-2.8
		c-0.93-3.39-1.2-6.88-0.8-10.47c0-0.07,0-0.23,0-0.5c0.13-0.86,0.3-1.63,0.5-2.3c1.53-7.12,5.29-12.8,11.27-17.06
		s12.64-5.89,19.95-4.89c5.59,0.73,10.49,2.93,14.72,6.58c4.22,3.66,7.1,8.12,8.63,13.37C543.2,580.55,543.43,581.48,543.63,582.41z
		 M502.73,583.91l26.04-1c-0.4-0.93-0.86-1.83-1.4-2.69c-2.26-3.59-5.49-5.65-9.68-6.18c-2.86-0.4-5.55,0.05-8.08,1.34
		c-2.53,1.3-4.46,3.18-5.79,5.64C503.36,581.95,502.99,582.91,502.73,583.91z"/>
	<path class="st0" d="M578.35,559.96c7.78,0,14.42,2.76,19.9,8.28c5.49,5.52,8.23,12.17,8.23,19.95c0,7.78-2.74,14.43-8.23,19.95
		c-5.49,5.52-12.12,8.28-19.9,8.28c-3.53,0-6.92-0.63-10.18-1.9v-17.06c2.73,2.99,6.12,4.49,10.18,4.49c2.46,0,4.74-0.61,6.84-1.85
		c2.09-1.23,3.76-2.89,4.99-4.99c1.23-2.09,1.85-4.4,1.85-6.93c0-3.79-1.33-7.02-3.99-9.68c-2.66-2.66-5.89-3.99-9.68-3.99
		c-3.06,0-5.79,0.88-8.18,2.64c-2.39,1.76-4.02,4.04-4.89,6.83c-0.47,1.33-0.7,2.73-0.7,4.19v45.3h-14.47v-45.9
		c0.07-1.2,0.17-2.39,0.3-3.59c1-6.85,4.14-12.57,9.43-17.16C565.13,562.26,571.3,559.96,578.35,559.96z"/>
	<path class="st0" d="M628.34,614.04h-14.47V542.9h14.47V614.04z"/>
	<path class="st0" d="M673.13,559.96h14.47v54.08h-14.47v-2.49c-3.66,2.46-7.72,3.69-12.17,3.69c-4.32,0-8.08-0.71-11.27-2.14
		c-3.19-1.43-5.67-3.47-7.43-6.14c-1.76-2.66-3.04-5.62-3.84-8.88c-0.8-3.26-1.2-6.92-1.2-10.98v-27.14h14.47V587
		c0,3.79,1.05,7.04,3.14,9.73c2.1,2.69,4.64,4.04,7.63,4.04c1.86,0,3.59-0.58,5.19-1.75c1.6-1.16,2.88-2.76,3.84-4.79
		c0.96-2.03,1.48-4.21,1.55-6.53h0.1V559.96z"/>
	<path class="st0" d="M743.17,608.15c-5.52,5.52-12.17,8.28-19.95,8.28c-7.78,0-14.43-2.76-19.95-8.28
		c-5.52-5.52-8.28-12.17-8.28-19.95c0-7.78,2.76-14.42,8.28-19.9c5.52-5.49,12.17-8.23,19.95-8.23c7.78,0,14.43,2.74,19.95,8.23
		c5.52,5.49,8.28,12.12,8.28,19.9C751.45,595.98,748.69,602.63,743.17,608.15z M723.22,629.1c2.46,0,4.72-0.67,6.78-2
		c2.06-1.33,3.59-3.06,4.59-5.19h13.97c-1.26,5.85-4.26,10.71-8.98,14.57c-4.72,3.86-10.18,5.79-16.36,5.79s-11.66-1.93-16.41-5.79
		c-4.76-3.86-7.73-8.71-8.93-14.57h13.97c0.66,1.4,1.56,2.64,2.69,3.74c1.13,1.1,2.44,1.94,3.94,2.54
		C719.97,628.8,721.55,629.1,723.22,629.1z M732.9,578.52c-2.66-2.66-5.89-3.99-9.68-3.99c-3.79,0-7.03,1.33-9.73,3.99
		c-2.69,2.66-4.04,5.89-4.04,9.68c0,3.79,1.35,7.03,4.04,9.73c2.69,2.69,5.94,4.04,9.73,4.04c3.79,0,7.02-1.35,9.68-4.04
		c2.66-2.69,3.99-5.94,3.99-9.73C736.89,584.41,735.55,581.18,732.9,578.52z M746.86,558.42c-1.13,1.1-2.48,1.65-4.04,1.65
		c-1.56,0-2.89-0.55-3.99-1.65c-1.1-1.1-1.65-2.45-1.65-4.04c0-1.59,0.55-2.94,1.65-4.04c1.1-1.1,2.43-1.65,3.99-1.65
		c1.56,0,2.91,0.55,4.04,1.65c1.13,1.1,1.7,2.45,1.7,4.04C748.56,555.97,747.99,557.32,746.86,558.42z"/>
	<path class="st0" d="M820.99,560.06c3.53,0,6.67,0.48,9.43,1.45c2.76,0.97,5.02,2.28,6.78,3.94c1.76,1.66,3.23,3.71,4.39,6.14
		c1.16,2.43,2,4.99,2.49,7.68c0.5,2.69,0.75,5.67,0.75,8.93v25.84h-14.57V588.2c0-3.79-1.05-7.02-3.14-9.68
		c-2.09-2.66-4.61-3.99-7.53-3.99c-2.66,0-4.99,1.13-6.98,3.39s-3.16,5.09-3.49,8.48c0,0.93,0,1.53,0,1.79v25.84h-14.47V588.2
		c0-3.79-1.05-7.02-3.14-9.68c-2.09-2.66-4.61-3.99-7.53-3.99c-2.86,0-5.32,1.26-7.38,3.79c-2.06,2.53-3.16,5.62-3.29,9.28h-0.1
		v26.44h-14.47v-54.08h14.47v3.79c3.72-2.46,7.78-3.69,12.17-3.69c8.38,0,14.57,2.73,18.56,8.18
		C808.52,562.79,814.21,560.06,820.99,560.06z"/>
	<path class="st0" d="M888.54,559.96H903v54.08h-14.47v-2.49c-3.66,2.46-7.72,3.69-12.17,3.69c-4.32,0-8.08-0.71-11.27-2.14
		c-3.19-1.43-5.67-3.47-7.43-6.14c-1.76-2.66-3.04-5.62-3.84-8.88c-0.8-3.26-1.2-6.92-1.2-10.98v-27.14h14.47V587
		c0,3.79,1.05,7.04,3.14,9.73c2.1,2.69,4.64,4.04,7.63,4.04c1.86,0,3.59-0.58,5.19-1.75c1.6-1.16,2.88-2.76,3.84-4.79
		c0.96-2.03,1.48-4.21,1.55-6.53h0.1V559.96z"/>
	<path class="st0" d="M926.05,576.42c-0.07,1.26,0.56,2.38,1.9,3.34s3.03,1.73,5.09,2.29c2.06,0.56,4.27,1.3,6.63,2.19
		c2.36,0.9,4.54,1.88,6.54,2.94c2,1.06,3.59,2.64,4.79,4.74c1.2,2.1,1.7,4.57,1.5,7.43c-0.13,1.13-0.37,2.31-0.7,3.54
		c-0.33,1.23-1.01,2.73-2.05,4.49c-1.03,1.76-2.33,3.28-3.89,4.54c-1.56,1.26-3.78,2.28-6.63,3.04c-2.86,0.77-6.15,1.01-9.88,0.75
		c-5.12-0.46-9.16-1.65-12.12-3.54c-2.96-1.9-5.14-4.07-6.54-6.53l12.07-8.38c0.46,1.4,1.4,2.66,2.79,3.79
		c1.4,1.13,2.96,1.76,4.69,1.9c4.52,0.4,6.92-0.86,7.18-3.79c0.07-1.13-0.38-2.06-1.35-2.8c-0.97-0.73-2.26-1.31-3.89-1.74
		c-1.63-0.43-3.43-0.87-5.39-1.3c-1.96-0.43-3.92-1.03-5.89-1.79c-1.96-0.77-3.73-1.71-5.29-2.84c-1.56-1.13-2.79-2.71-3.69-4.74
		c-0.9-2.03-1.21-4.4-0.95-7.13c0.4-5.19,2.86-9.3,7.38-12.32c4.52-3.03,10.28-4.24,17.26-3.64c7.38,0.6,13.1,3.79,17.16,9.58
		l-9.88,8.08c-0.87-2.26-2.66-3.92-5.39-4.99c-2.73-1.06-5.31-1.31-7.73-0.75C927.36,573.35,926.11,574.56,926.05,576.42z"/>
	<path class="st0" d="M973.49,551.38c-2.03,2-4.46,2.99-7.28,2.99c-2.83,0-5.24-1-7.23-2.99s-2.99-4.4-2.99-7.23
		c0-2.82,1-5.25,2.99-7.28c2-2.03,4.41-3.04,7.23-3.04c2.83,0,5.25,1.01,7.28,3.04c2.03,2.03,3.04,4.46,3.04,7.28
		C976.53,546.98,975.52,549.38,973.49,551.38z M973.54,614.04h-14.57v-54.08h14.57V614.04z"/>
	<path class="st0" d="M1008.16,601.96c1.53,0,3.01-0.26,4.44-0.8c1.43-0.53,2.73-1.25,3.89-2.14c1.16-0.9,2.18-1.95,3.04-3.14
		l13.57,5.49c-1.6,2.99-3.64,5.62-6.14,7.88c-2.49,2.26-5.37,4.03-8.63,5.29c-3.26,1.26-6.65,1.9-10.18,1.9
		c-7.78,0-14.43-2.76-19.95-8.28c-5.52-5.52-8.28-12.17-8.28-19.95c0-7.78,2.76-14.43,8.28-19.95c5.52-5.52,12.17-8.28,19.95-8.28
		c3.79,0,7.4,0.73,10.83,2.2c3.42,1.46,6.42,3.46,8.98,5.99c2.56,2.53,4.57,5.45,6.04,8.78l-13.47,5.49
		c-1.13-2.39-2.81-4.31-5.04-5.74c-2.23-1.43-4.67-2.14-7.33-2.14c-3.79,0-7.03,1.33-9.73,3.99c-2.69,2.66-4.04,5.89-4.04,9.68
		c0,2.53,0.61,4.84,1.85,6.93c1.23,2.1,2.89,3.76,4.99,4.99C1003.32,601.35,1005.63,601.96,1008.16,601.96z"/>
</g>
<g>
	<linearGradient id="SVGID_1_" gradientUnits="userSpaceOnUse" x1="206.1444" y1="471.0277" x2="306.6032" y2="631.749">
		<stop  offset="0.0933" style="stop-color:#334EA6"/>
		<stop  offset="0.4695" style="stop-color:#1E3681"/>
		<stop  offset="0.8031" style="stop-color:#0F2566"/>
		<stop  offset="1" style="stop-color:#091F5C"/>
	</linearGradient>
	<path class="st1" d="M349.62,539.8L241.27,648.15c-2.54,2.54-6.66,2.54-9.21,0l-57.24-57.24c-1.22-1.22-1.91-2.88-1.91-4.6V475.46
		c0-5.8,7.01-8.7,11.11-4.6l55.17,55.17c1.21,1.21,2.85,1.89,4.55,1.91l101.3,0.75C350.84,528.73,353.71,535.72,349.62,539.8z"/>
	<linearGradient id="SVGID_2_" gradientUnits="userSpaceOnUse" x1="13.6467" y1="478.6317" x2="168.3972" y2="652.1296">
		<stop  offset="0" style="stop-color:#7090CB"/>
		<stop  offset="0.1051" style="stop-color:#6888C6"/>
		<stop  offset="0.6966" style="stop-color:#425EAF"/>
		<stop  offset="1" style="stop-color:#334EA6"/>
	</linearGradient>
	<path class="st2" d="M56.78,472.86l108,108c2.54,2.54,2.54,6.66,0,9.21l-51,51c-2.54,2.54-6.66,2.54-9.21,0l-55.5-55.5
		c-1.2-1.2-1.88-2.82-1.91-4.51l-1.5-103.5C45.58,471.72,52.65,468.73,56.78,472.86z"/>
</g>
</svg>
