<?xml version="1.0" encoding="UTF-8"?>
<svg width="75px" height="20px" viewBox="0 0 75 20" version="1.1" xmlns="http://www.w3.org/2000/svg" xmlns:xlink="http://www.w3.org/1999/xlink">
    <!-- Generator: Sketch 64 (93537) - https://sketch.com -->
    <title>Amazon</title>
    <desc>Created with Sketch.</desc>
    <g id="Page-1" stroke="none" stroke-width="1" fill="none" fill-rule="evenodd">
        <g id="Desktop-Login-1920" transform="translate(-642.000000, -655.000000)" fill="#FFFFFF">
            <g id="Logos" transform="translate(230.000000, 653.000000)">
                <path d="M472.464774,18.8099455 C472.473982,18.8090302 472.479813,18.804149 472.488407,18.8026236 C472.57711,18.7876747 472.642179,18.7510653 472.689753,18.6772363 C472.715842,18.6369659 472.738247,18.5863228 472.758505,18.5243919 C472.78398,18.4588 472.79994,18.3898522 472.806079,18.3196841 C472.809148,18.2174828 472.811603,18.1149764 472.814673,18.012775 C472.822653,17.7400348 472.828177,17.4672945 472.83094,17.1948593 C472.832168,17.0917427 472.83493,16.9886261 472.83493,16.8858146 C472.829405,16.7262585 472.802089,16.5679227 472.753287,16.4159936 C472.680238,16.1682697 472.557466,16.1014575 472.28123,16.1377619 L472.28123,16.138067 C472.280923,16.138067 472.280923,16.138067 472.280923,16.138067 L472.28123,18.8050642 C472.352745,18.8133013 472.412903,18.8154369 472.464774,18.8099455 L472.464774,18.8099455 Z M479.95844,3.58042104 C479.991588,3.58347183 480.025043,3.58469214 480.058499,3.58347183 C480.479605,3.56882805 480.809247,3.21737749 480.794207,2.79880963 C480.796969,2.75731894 480.796662,2.71582825 480.792672,2.67433756 C480.753385,2.26583729 480.38814,1.96655517 479.977163,2.00560523 C479.932351,2.00011382 479.887539,1.99858843 479.842421,2.00133413 C479.433285,2.02513027 479.121138,2.3741402 479.145079,2.78080999 C479.142316,2.81863974 479.142623,2.85646949 479.145693,2.89399416 C479.179455,3.30676552 479.543165,3.61397969 479.95844,3.58042104 L479.95844,3.58042104 Z M438.2017,11.7434095 C437.851802,11.6683602 437.493309,11.6332761 437.179934,11.5869042 C436.81162,11.6271746 436.489959,11.6479199 436.174129,11.7000884 C435.675983,11.7714768 435.201472,11.9575747 434.788345,12.2437385 C434.721742,12.2907206 434.701791,12.3981082 434.660356,12.4774287 C434.735247,12.5122076 434.815355,12.5341733 434.897919,12.5430206 C435.288639,12.5158686 435.678439,12.4536325 436.069466,12.4457005 C436.466632,12.4365481 436.863798,12.4569884 437.257894,12.5067162 C437.531675,12.5421053 437.609942,12.6738993 437.600427,12.9527412 C437.600427,13.1187039 437.5771,13.2840565 437.531675,13.4439177 C437.342607,14.0257026 437.133895,14.6032165 436.94053,15.1828658 C436.930708,15.2582202 436.934085,15.3351001 436.950659,15.4095392 C437.029846,15.4077088 437.108113,15.3961158 437.184231,15.3747603 C437.245617,15.3396762 437.300251,15.2948297 437.345983,15.2411358 C437.708773,14.8945665 437.995751,14.477219 438.189116,14.01533 C438.447857,13.4631377 438.587817,12.8636582 438.600708,12.2547213 C438.600708,11.9215754 438.529807,11.8138827 438.2017,11.7434095 L438.2017,11.7434095 Z M480.314784,4.73331312 C480.108835,4.72995726 479.902886,4.73331312 479.696937,4.73331312 C479.341206,4.73453344 479.299464,4.77571905 479.299464,5.13327119 L479.299464,8.81831577 C479.297929,9.54135209 479.297929,10.2643884 479.299464,10.9871196 C479.300078,11.2839611 479.361463,11.3419261 479.665016,11.3419261 L480.282864,11.3419261 C480.557258,11.3404007 480.620485,11.2766392 480.620485,10.9996279 L480.620485,8.02480629 C480.621713,7.03208048 480.621406,6.03996483 480.619871,5.04815425 C480.619565,4.80409136 480.557565,4.73880454 480.314784,4.73331312 L480.314784,4.73331312 Z M483.938079,11.2915881 C484.352432,11.3953148 484.772925,11.4749403 485.196486,11.5292443 C485.620048,11.4566356 486.030412,11.4117891 486.428192,11.3111131 C486.987416,11.1704719 487,11.1292863 487,10.5603147 C486.999693,10.196661 486.940149,10.1478484 486.592092,10.243338 C486.066323,10.3992332 485.515079,10.449266 484.969666,10.3900808 C484.241324,10.3479799 483.632684,9.82385488 483.486586,9.11332679 C483.342637,8.49432228 483.323914,7.85274196 483.431032,7.22641556 C483.469091,6.89387987 483.590942,6.57629303 483.785535,6.30355275 C484.132364,5.8877306 484.650767,5.65190483 485.194031,5.66288766 C485.67683,5.63512551 486.160857,5.6894295 486.625547,5.82305394 C486.858506,5.88498489 486.932169,5.82915551 486.950584,5.59058403 C486.958872,5.47556939 486.959792,5.36024968 486.952733,5.24523504 C486.938,4.97554554 486.882753,4.90751301 486.622171,4.81812498 C485.997571,4.61067152 485.333991,4.54446946 484.679925,4.62470514 C483.499477,4.71683888 482.5038,5.53414449 482.189505,6.66873185 C481.911428,7.60166226 481.917873,8.59560838 482.207307,9.52518292 C482.433821,10.3742167 483.090034,11.0438643 483.938079,11.2915881 L483.938079,11.2915881 Z M473.653816,11.201895 C474.463187,11.5103295 475.337627,11.6107003 476.196414,11.4938552 C476.751648,11.4316192 477.270051,11.1869461 477.669672,10.7988861 C478.280153,10.2070336 478.481806,8.67401359 477.317318,8.04860243 C477.046607,7.90338501 476.761163,7.78409927 476.477561,7.66511861 C476.010108,7.46773274 475.531606,7.29902427 475.071213,7.08546924 C474.731443,6.96648858 474.536236,6.61229231 474.618493,6.26358745 C474.660849,5.93349239 474.918669,5.67173494 475.249846,5.62292236 C475.691209,5.52407689 476.148226,5.51919564 476.591431,5.60827859 C476.8824,5.65617593 477.16723,5.73854716 477.455436,5.80383398 C477.700058,5.85905321 477.775869,5.79956288 477.779246,5.55183905 L477.779246,5.28306479 C477.778018,4.98561314 477.734127,4.92246187 477.445921,4.82178592 C476.930281,4.63721336 476.386403,4.54233391 475.838535,4.54141868 C475.366478,4.52158857 474.896571,4.61250199 474.466563,4.80714215 C473.857924,5.04784918 473.43958,5.61071922 473.387095,6.25962143 C473.294095,6.96862413 473.65443,7.65993227 474.290693,7.9933832 C474.522424,8.11724511 474.762443,8.22524294 475.009213,8.31676653 C475.51227,8.52360983 476.031286,8.70208082 476.525135,8.93088978 C477.131012,9.2115621 476.989211,10.0496131 476.569025,10.282388 C476.369215,10.3958773 476.149147,10.4697063 475.920792,10.4992989 C475.226519,10.561535 474.526721,10.4843501 473.862834,10.2723204 C473.305759,10.1078831 473.286115,10.1203913 473.294095,10.6942442 C473.298699,11.0246443 473.33461,11.0798635 473.653816,11.201895 L473.653816,11.201895 Z M439.279634,9.64080771 C439.181724,9.59291037 439.083814,9.54470795 438.983755,9.50138679 C438.364066,9.26342547 437.704169,9.14780067 437.039975,9.16152921 C437.092153,9.08220877 437.12438,9.02943017 437.160291,8.97756681 C437.758495,8.13707522 438.333066,7.27797385 438.965339,6.46341395 C439.31002,6.0546086 439.470544,5.52346674 439.410079,4.99354518 C439.387366,4.7836511 439.329664,4.70738144 439.112972,4.70738144 C437.806069,4.70616113 436.498859,4.70616113 435.19165,4.70738144 C434.979562,4.70738144 434.902216,4.78395617 434.89884,4.9975112 C434.895157,5.24676043 434.895464,5.49661982 434.89884,5.74617412 C434.901909,5.97010183 434.978027,6.04454101 435.203006,6.04454101 L437.230578,6.04454101 C437.17134,6.13362396 437.134509,6.1915889 437.094915,6.24741829 C436.360742,7.28132971 435.621657,8.31402082 434.897305,9.35586429 C434.784355,9.51725088 434.713148,9.70365391 434.689514,9.89890422 C434.666802,10.2442532 434.664039,10.5905174 434.681227,10.9361715 C434.685217,11.1500316 434.826712,11.2327079 435.018849,11.1411843 C436.324217,10.4895364 437.86193,10.4855704 439.170675,11.1302015 C439.383069,11.2278267 439.524563,11.1405742 439.52886,10.9053586 C439.533464,10.6173644 439.531009,10.3293701 439.52886,10.0413759 C439.536534,9.86961668 439.437703,9.71067072 439.279634,9.64080771 L439.279634,9.64080771 Z M467.562507,11.4398563 C468.062801,11.5710401 468.588877,11.5734807 469.090399,11.4468731 C469.711316,11.3001303 470.295401,11.0283053 470.806131,10.6478722 C470.838358,10.8074283 470.867823,10.9364766 470.892685,11.0685756 C470.892992,11.0752874 470.893605,11.0819991 470.894526,11.0887108 C470.914783,11.2494872 471.062416,11.3632816 471.223861,11.3431464 C471.404028,11.3400956 471.584502,11.3461972 471.764669,11.341621 C471.971539,11.3370448 472.04643,11.2656564 472.04643,11.0624741 C472.048271,9.0462095 472.048271,7.03025001 472.04643,5.01398545 C472.046123,4.81141325 471.975222,4.7421604 471.762828,4.73636391 C471.550433,4.73056742 471.337731,4.73422836 471.125337,4.73422836 C470.770834,4.73544867 470.726329,4.78029523 470.726329,5.13357627 C470.728478,6.65042714 470.72725,8.16727801 470.722646,9.68412888 C470.726943,9.76772042 470.69625,9.84917641 470.638241,9.90988705 C470.107868,10.2677443 469.485416,10.4666555 468.844856,10.4837399 C468.100247,10.4910618 467.699398,10.146323 467.674843,9.40742257 C467.64323,8.46137379 467.657348,7.51227422 467.653665,6.56653052 C467.651824,6.0546086 467.655507,5.54238161 467.651824,5.03045969 C467.650289,4.80958278 467.582458,4.74155025 467.363924,4.73575375 C467.15153,4.72995726 466.938828,4.73392328 466.726433,4.73392328 C466.378683,4.73483852 466.325891,4.78761712 466.325891,5.13510166 C466.323129,6.54944612 466.323129,7.96379057 466.325891,9.37844011 C466.323436,9.57674121 466.335406,9.77473723 466.361188,9.97151293 C466.406921,10.6649566 466.888799,11.2537583 467.562507,11.4398563 L467.562507,11.4398563 Z M436.39389,13.1510423 C436.305187,13.1635505 436.21894,13.1879568 436.137297,13.2233459 C434.354655,13.9479076 432.480855,14.4265759 430.567461,14.6450122 C428.77469,14.8484997 426.962275,14.8143309 425.178712,14.543116 C422.651461,14.178547 420.213525,13.3551398 417.986143,12.113775 C417.937035,12.0857077 417.883629,12.0420815 417.832679,12.0420815 C417.751036,12.044217 417.632561,12.0539796 417.59972,12.1052328 C417.573017,12.1854684 417.585294,12.2733311 417.633175,12.3431941 C417.706531,12.432277 417.79155,12.5112924 417.885471,12.5784097 C420.70676,14.9769378 424.299975,16.289386 428.012279,16.2774879 C429.197945,16.2774879 430.37962,16.1438635 431.5349,15.8787501 C433.206741,15.5266894 434.799702,14.8750415 436.236128,13.9552295 C436.365039,13.8710278 436.493028,13.7837753 436.613344,13.6879806 C436.733046,13.612016 436.780006,13.4613072 436.724145,13.3313437 C436.671353,13.200465 436.533236,13.1251106 436.39389,13.1510423 L436.39389,13.1510423 Z M443.729488,9.38881278 C443.692349,9.75826298 443.430232,10.0666975 443.070205,10.1649328 C442.769721,10.2686595 442.437931,10.1405265 442.287229,9.86229479 C442.142973,9.59291037 442.045369,9.3015603 441.997489,9.00014262 C441.866123,8.22219216 441.88239,7.42654713 442.04629,6.65469824 C442.083736,6.28585819 442.349229,5.97955926 442.710791,5.88834076 C442.726751,5.88315442 442.743019,5.87857824 442.758979,5.8749173 C443.153996,5.77820738 443.553311,6.01830425 443.6503,6.41094042 C443.744527,6.85330442 443.813586,7.30054966 443.85717,7.75054062 C443.86515,7.85884353 443.865764,7.96806167 443.859319,8.07666966 L443.901061,8.081856 C443.846734,8.51750826 443.819418,8.95865193 443.729488,9.38881278 L443.729488,9.38881278 Z M442.729207,4.59755314 C441.79645,4.61768833 440.955465,5.16133842 440.558913,6.00091477 C440.245232,6.62754624 440.090233,7.32098993 440.107421,8.02084027 C440.095451,8.61116739 440.201034,9.19783357 440.418033,9.74758523 C440.82011,10.7213962 441.506096,11.3605359 442.594158,11.4587712 C443.668102,11.6152765 444.719026,11.0566776 445.184637,10.0825615 C445.922801,8.74296135 445.886276,7.11353647 445.088261,5.80810508 C444.61774,4.97035921 443.688666,4.49352133 442.729207,4.59755314 L442.729207,4.59755314 Z M451.546043,5.95576313 C451.464707,5.28367494 450.949373,4.74429595 450.278427,4.62867116 C449.453402,4.48009787 448.83003,4.73422836 448.431023,5.38587628 C448.354597,5.51126359 448.29137,5.64458295 448.222004,5.77424136 L448.189777,5.77332612 L448.189777,5.03137493 C448.189777,4.78853235 448.128391,4.725076 447.882848,4.72172014 C447.580216,4.71866935 447.277277,4.72172014 446.974646,4.72172014 C446.63641,4.72233029 446.586381,4.77297334 446.586381,5.11466139 C446.590678,7.08577432 446.594975,9.0574974 446.599272,11.0304408 L446.599272,11.0496608 C446.601727,11.2735885 446.672321,11.3468073 446.900062,11.3489429 C447.228476,11.3510784 447.557196,11.3489429 447.88561,11.3489429 C448.231212,11.3486378 448.287073,11.2931135 448.287073,10.9450188 C448.287073,9.82965138 448.284925,8.71672459 448.287073,7.60257749 C448.272954,7.24288981 448.348766,6.88533767 448.507755,6.56164926 C448.652318,6.26358745 448.972752,6.09091296 449.303007,6.13270873 C449.623134,6.17725021 449.867142,6.44022797 449.886172,6.7608656 C449.925152,6.99425074 449.944795,7.2300765 449.945102,7.46681751 C449.950934,8.65753934 449.948172,9.84978657 449.948172,11.0395932 C449.948172,11.2781646 450.01631,11.3468073 450.257863,11.3486378 C450.599168,11.3507733 450.940779,11.3486378 451.282084,11.3486378 C451.571825,11.3474175 451.635973,11.2842662 451.635973,11.0014583 C451.63628,9.68870506 451.642419,8.37534162 451.63229,7.06350358 C451.631676,6.69252799 451.602825,6.32216255 451.546043,5.95576313 L451.546043,5.95576313 Z M415.550663,9.18349487 C415.491426,9.43030347 415.380625,9.66185814 415.225012,9.86290495 C415.003716,10.1713394 414.599798,10.2906252 414.244988,10.1521195 C413.919337,9.97578403 413.739477,9.61579127 413.795031,9.2515274 C413.803011,8.77926571 414.134494,8.37351115 414.597956,8.26886919 C414.915321,8.18131162 415.247725,8.15110884 415.631079,8.08582202 C415.628623,8.45313667 415.601614,8.81984116 415.550663,9.18349487 L415.550663,9.18349487 Z M417.712977,10.0828666 C417.456691,9.7665001 417.323484,9.36928775 417.336989,8.96322811 C417.347731,8.11846543 417.356018,7.27309259 417.32993,6.42894006 C417.366761,5.57685549 416.769171,4.82697226 415.926037,4.66772122 C415.18327,4.45874237 414.393542,4.4825385 413.664586,4.73575375 C412.94269,4.94686815 412.39298,5.5310937 412.229387,6.26114683 C412.160942,6.5396836 412.219565,6.62419038 412.505623,6.65469824 C412.819304,6.68795181 413.132985,6.71754443 413.44636,6.75232339 C413.673487,6.77764492 413.745308,6.74591674 413.796258,6.52961601 C413.804546,6.50154877 413.813753,6.47348154 413.824496,6.44632954 C414.024,5.93532287 414.602253,5.68210762 415.116052,5.88010364 C415.344714,5.94661077 415.516594,6.13545444 415.560485,6.36822942 C415.603148,6.6180888 415.605604,6.87374468 415.627396,7.14831544 C415.556188,7.15746779 415.525495,7.16051858 415.494495,7.16387445 C414.947241,7.24044918 414.392314,7.28377034 413.853654,7.40000529 C412.572227,7.67701667 411.92031,8.54343994 412.007785,9.79426226 C412.019448,10.5688569 412.577444,11.2284368 413.342925,11.3730441 C414.14094,11.5710401 414.985301,11.3587054 415.592099,10.8074283 C415.676504,10.7296333 415.763979,10.6542789 415.837642,10.5883819 C416.047581,10.8190213 416.244629,11.0554572 416.461935,11.2690123 C416.636577,11.4413817 416.738171,11.4313141 416.930001,11.2690123 C417.170633,11.0658299 417.407276,10.8586815 417.648215,10.6564144 C417.933352,10.4184531 417.945322,10.3742167 417.712977,10.0828666 L417.712977,10.0828666 Z M431.532752,9.51816611 C431.390337,9.92239528 431.009438,10.1954406 430.57851,10.2018473 C430.306264,10.2042879 430.061028,10.0383251 429.963118,9.78572006 C429.956366,9.7707712 429.949613,9.75582235 429.943475,9.74056842 C429.714813,9.17617299 429.989821,8.5339825 430.557639,8.30669893 C430.917667,8.17551513 431.299793,8.11571972 431.68284,8.13097365 C431.735632,8.59865917 431.684375,9.07244626 431.532752,9.51816611 L431.532752,9.51816611 Z M429.716347,7.46742767 C428.559533,7.77525199 427.998774,8.62337054 428.087783,9.80890603 C428.100981,10.5551283 428.627364,11.1951833 429.36031,11.3565698 C430.158632,11.5786671 431.016191,11.3834168 431.637415,10.8379362 C431.732869,10.7534294 431.828324,10.6670922 431.917027,10.5877717 C432.126352,10.8205467 432.312965,11.0484404 432.519528,11.2528431 C432.712893,11.4435172 432.813259,11.43467 433.01798,11.2604701 C433.257692,11.0566776 433.495254,10.8507495 433.735887,10.6478722 C434.001994,10.4233344 434.013964,10.3604882 433.791748,10.0831717 C433.537611,9.77382199 433.404097,9.38393152 433.41576,8.98488869 C433.427423,8.14012601 433.43172,7.29475317 433.409314,6.45060064 C433.453819,5.59912623 432.864516,4.8434465 432.023531,4.67443295 C431.237793,4.44653923 430.398343,4.48223342 429.635318,4.77632921 C428.956085,5.00849403 428.449959,5.57868596 428.302633,6.27762107 C428.242782,6.53053124 428.304168,6.62419038 428.561067,6.65256269 C428.855105,6.6852061 429.149757,6.71327333 429.444408,6.74164564 C429.791852,6.77581445 429.791852,6.77581445 429.90296,6.44022797 C429.932425,6.3670091 429.970791,6.29745118 430.016831,6.23307959 C430.336343,5.78766482 430.958795,5.68424317 431.406911,6.00183 C431.519554,6.09640437 431.598742,6.22392723 431.634345,6.36609387 C431.673325,6.62541069 431.696959,6.88686306 431.704632,7.14892559 C431.63189,7.15746779 431.594751,7.16051858 431.55792,7.16631507 C430.939152,7.23495776 430.32468,7.33532863 429.716347,7.46742767 L429.716347,7.46742767 Z M455.058843,11.3446718 L455.696641,11.3446718 C456.058203,11.3446718 456.106084,11.2964694 456.106084,10.9337309 C456.106084,9.40345655 456.104549,7.8734873 456.110381,6.34321297 C456.108539,6.25413002 456.145064,6.16840293 456.210746,6.10769228 C456.788079,5.74983507 457.459947,5.57166916 458.140101,5.59577037 C458.565811,5.58417738 458.934739,5.88651029 459.005333,6.30385783 C459.046461,6.4911761 459.067026,6.68246039 459.066719,6.87404976 C459.07163,8.24415782 459.069788,9.61426588 459.069788,10.9843739 C459.070095,11.283351 459.130867,11.3443667 459.431043,11.3443667 L459.991495,11.3443667 C460.344156,11.3443667 460.396948,11.2921983 460.396948,10.9477645 C460.393265,9.39155849 460.393265,7.83565755 460.396948,6.2800617 C460.401859,6.21507995 460.435928,6.15558962 460.489027,6.11775988 C461.068508,5.76447884 461.737613,5.58234691 462.41746,5.59332974 C462.856982,5.57716057 463.237881,5.89291694 463.301722,6.32551841 C463.339474,6.50704019 463.358504,6.69161275 463.358504,6.87710055 C463.363415,8.07422903 463.360959,9.27166259 463.360959,10.4687911 C463.360959,10.6481773 463.358811,10.8272584 463.360959,11.0066447 C463.364029,11.2790799 463.428484,11.3422311 463.707789,11.3422311 L464.287577,11.3422311 C464.632872,11.3422311 464.686585,11.2885373 464.686585,10.9404426 C464.68904,9.53189465 464.68904,8.12334669 464.686585,6.71479872 C464.686278,6.51771794 464.676149,6.31819653 464.657733,6.12111574 C464.615991,5.23913347 463.883659,4.54568978 462.995407,4.54660501 C462.048532,4.51548699 461.11731,4.79280345 460.343849,5.33645355 C460.287681,5.37336806 460.229365,5.40906226 460.16491,5.44994279 C459.857674,4.84985316 459.218035,4.49138578 458.542177,4.5411136 C457.928013,4.5368425 457.322136,4.6808396 456.776416,4.96090177 C456.525655,5.08506877 456.283489,5.22662524 456.01953,5.37031727 L455.940342,4.97096937 C455.926223,4.82941289 455.799462,4.72568616 455.657047,4.7394147 C455.502355,4.74002485 455.346742,4.73636391 455.193278,4.73636391 C454.819745,4.73636391 454.779844,4.77480382 454.779844,5.14089815 L454.779844,11.0758975 C454.777389,11.0966429 454.777696,11.1173882 454.780765,11.1378285 C454.800102,11.2714529 454.924715,11.3638917 455.058843,11.3446718 L455.058843,11.3446718 Z M419.057018,11.3422311 C419.404461,11.3449769 419.752825,11.3437565 420.100576,11.3422311 C420.380188,11.3422311 420.443108,11.2812154 420.443108,11.0066447 C420.443415,9.85405767 420.432059,8.70116558 420.449861,7.54888366 C420.455999,7.21787336 420.508484,6.88899861 420.606394,6.57263209 C420.716275,6.2529097 421.050827,6.06711683 421.38231,6.14155601 C421.684635,6.15986073 421.932327,6.38683921 421.97499,6.68490102 C422.015504,6.87252437 422.036068,7.06350358 422.036068,7.25539803 C422.041593,8.51049145 422.039138,9.76558487 422.039138,11.0206783 C422.039752,11.2684021 422.113415,11.3425362 422.360799,11.3440616 C422.708549,11.3465022 423.0563,11.3465022 423.40405,11.3440616 C423.656652,11.3422311 423.726939,11.2723681 423.726939,11.0261697 C423.728781,10.1109339 423.724177,9.19569802 423.728781,8.28046217 C423.728781,7.87104667 423.738909,7.46132609 423.759167,7.05252075 C423.757325,6.78588204 423.86874,6.53083632 424.066095,6.35083994 C424.298134,6.14369156 424.629617,6.08816725 424.917209,6.20806315 C425.169504,6.31301019 425.327266,6.5653102 425.309771,6.83683017 C425.3199,6.96435303 425.324197,7.09248605 425.324197,7.22031399 L425.324197,11.0240342 C425.324503,11.2723681 425.397246,11.3465022 425.645858,11.3465022 C426.006499,11.3495154 426.367447,11.3513835 426.728089,11.3465022 C426.931889,11.3437565 427.011077,11.2644361 427.011077,11.0667452 C427.016602,9.54318256 427.024582,8.01931488 427.022127,6.4954472 C427.056196,6.05735431 426.941404,5.62078681 426.695861,5.25560771 C426.203547,4.65795871 425.386503,4.43250561 424.654785,4.69243259 C424.162164,4.86053091 423.769909,5.237303 423.58391,5.72115768 C423.264397,4.99690105 422.771163,4.58229921 421.982663,4.58657031 C421.273657,4.5710113 420.632176,5.00300262 420.383257,5.66349782 C420.365455,5.43133299 420.367604,5.22418462 420.365455,5.00910419 C420.363307,4.79402377 420.293327,4.71988967 420.075407,4.71683888 C419.734103,4.71195762 419.392491,4.71134746 419.051186,4.71683888 C418.826821,4.72141506 418.755921,4.79676948 418.755921,5.02649367 C418.755,7.03086017 418.755,9.03522667 418.755921,11.0395932 C418.756228,11.2638259 418.831732,11.3400956 419.057018,11.3422311 L419.057018,11.3422311 Z M467.981772,15.5385875 C467.981772,15.2820164 468.026891,15.2383901 468.285018,15.2368647 L468.671134,15.2368647 C468.927113,15.2390003 468.9664,15.2753046 468.9664,15.5239437 L468.9664,16.7717152 C468.9664,16.8403579 468.972231,16.9090006 468.975301,16.9819144 L469.534525,16.9834398 L469.534525,16.2512511 C469.534525,15.9952902 469.537901,15.7393292 469.534525,15.4833683 C469.532683,15.3149649 469.611257,15.2353393 469.780068,15.2374749 C469.934453,15.2374749 470.090066,15.2356444 470.24353,15.2374749 C470.475261,15.2402206 470.527132,15.2899484 470.527132,15.5215031 L470.527132,19.3996624 C470.526519,19.6720976 470.491529,19.7065715 470.211917,19.7065715 C470.070422,19.7065715 469.928621,19.7023004 469.787127,19.7065715 C469.60696,19.7120629 469.531762,19.6306069 469.533604,19.4518309 C469.538515,19.0103821 469.535139,18.5686283 469.535139,18.1271795 L469.535139,17.9026417 L468.967627,17.9026417 L468.967627,18.1091799 C468.967627,18.5634419 468.963637,19.0180091 468.967627,19.4722711 C468.969469,19.634878 468.898568,19.7077918 468.737738,19.7059614 C468.576907,19.7041309 468.415769,19.7080969 468.254939,19.7059614 C468.024742,19.7029106 467.981772,19.6626402 467.981772,19.4359668 L467.981772,15.5385875 Z M471.298138,17.4749215 C471.29691,16.8156466 471.297217,16.1569818 471.298751,15.4989273 C471.299058,15.2862875 471.344177,15.2399155 471.559027,15.23778 C471.87455,15.234119 472.190379,15.2304581 472.505595,15.23778 C473.019701,15.2216108 473.484391,15.5385875 473.654737,16.0209168 C473.875418,16.611549 473.946933,17.2467226 473.863141,17.8712186 C473.827845,18.2449399 473.747429,18.6131698 473.623123,18.9676711 C473.466589,19.4283398 473.020929,19.7291473 472.532298,19.704436 C472.204191,19.7120629 471.875777,19.7029106 471.547364,19.7071817 C471.368424,19.7096223 471.294454,19.6367085 471.295966,19.4536613 C471.302128,18.7943865 471.298444,18.1354167 471.298444,17.4761418 L471.298138,17.4749215 Z M454.797339,21.9925256 L455.045338,21.9925256 C459.323311,21.9964916 463.600671,21.9986271 467.877109,21.9986271 C473.145849,22.0004576 478.414588,22.0004576 483.683941,21.9986271 L483.704199,21.9986271 C485.529811,21.9925256 487.004911,20.5165552 486.998791,18.7019476 L486.998791,13.1635505 L454.797339,13.1635505 L454.797339,21.9925256 Z" id="Amazon"></path>
            </g>
        </g>
    </g>
</svg>