<?xml version="1.0" encoding="UTF-8"?>
<svg width="165px" height="40px" viewBox="0 0 165 40" version="1.1" xmlns="http://www.w3.org/2000/svg" xmlns:xlink="http://www.w3.org/1999/xlink">
    <title>apple</title>
    <g id="Page-1" stroke="none" stroke-width="1" fill="none" fill-rule="evenodd">
        <g id="Desktop-Sell-Your-Music-1920" transform="translate(-547.000000, -1856.000000)" fill="#080808">
            <g id="Store-Guide" transform="translate(140.000000, 1631.000000)">
                <g id="Apple" transform="translate(331.000000, 145.000000)">
                    <path d="M208.17745,92.5156087 C209.897484,92.5156087 211.647619,92.5156087 213.361919,92.474 C213.539656,93.2430435 213.635692,94.0278696 213.648592,94.817 C213.607024,102.851783 213.648592,110.886565 213.607024,118.968696 C211.768021,119.010304 209.969152,119.010304 208.128716,119.010304 C208.137316,110.179217 208.092882,101.346696 208.176017,92.5156087 L208.17745,92.5156087 Z M156.702564,92.5156087 L162.139305,92.5156087 C162.307009,98.4584783 161.973035,104.359739 162.307009,110.306913 C162.517713,114.869522 168.663968,116.249783 171.79873,113.655696 C173.412695,112.251043 174.291346,110.183522 174.18241,108.045696 C174.225411,102.856087 174.140843,97.708087 174.225411,92.5170435 L179.702286,92.5170435 C179.702286,101.391174 179.743854,110.26387 179.702286,119.178174 C177.944985,119.178174 176.147549,119.138 174.400281,118.97013 L174.400281,114.665783 C173.051488,117.483696 170.315201,119.377609 167.206239,119.645913 L164.822559,119.645913 C162.361476,119.413478 160.105365,118.169522 158.591735,116.213913 C157.208541,114.142087 156.546328,111.669957 156.709731,109.183478 L156.702564,92.5156087 Z M222.562668,93.8958696 C226.564614,91.5614783 231.476745,91.4194348 235.60626,93.5185217 C238.639253,95.1828696 240.655993,98.236087 241,101.681 C239.279966,101.722609 237.571399,101.722609 235.858532,101.722609 C235.425656,100.267739 234.61724,98.9534783 233.514985,97.9132609 C231.683149,96.6434783 229.369703,96.2876522 227.242594,96.9505217 C224.608075,97.787 223.103046,100.508783 222.642937,103.101435 C222.224395,106.283783 222.30753,109.883652 224.31567,112.520783 C226.568914,115.304261 230.598094,115.855217 233.514985,113.777652 C234.610073,112.770435 235.404156,111.47913 235.808364,110.047217 C237.529831,110.047217 239.236965,110.047217 240.951266,110.088826 C240.617292,115.321478 235.849931,119.214043 230.831732,119.589957 L227.956408,119.589957 C224.957816,119.298696 222.164194,117.929913 220.094419,115.739 C217.733673,112.786217 216.58125,109.045739 216.873656,105.27513 C216.920957,100.929174 218.757093,96.281913 222.562668,93.8958696 L222.562668,93.8958696 Z M186.810327,93.979087 C190.853841,91.5887391 195.837639,91.430913 200.025922,93.5601304 C202.525705,94.9547391 204.112436,97.5617391 204.205605,100.425565 L199.188839,100.425565 C198.877799,99.3666957 198.351756,98.3824348 197.642242,97.5373478 C196.062677,96.3206522 194.010103,95.9031304 192.082232,96.4067391 C190.4912,96.784087 188.693764,97.9964783 188.903035,99.8387391 C188.736765,101.303652 190.032524,102.264957 191.245148,102.682478 C194.253775,103.771478 197.517539,103.975217 200.44303,105.194783 C202.135831,105.774435 203.523325,107.011217 204.290173,108.628217 C205.547231,111.708696 204.568245,115.252609 201.907926,117.249826 C200.107624,118.544 198.004882,119.353217 195.801805,119.594261 L191.828527,119.594261 C189.241309,119.282913 186.828961,118.122174 184.972757,116.294261 C183.774467,114.868087 183.017652,113.123391 182.796914,111.272522 C184.595783,111.272522 186.393219,111.31413 188.193521,111.440391 C188.639297,113.140609 189.887755,114.51513 191.536121,115.123478 C193.829499,115.625652 196.763591,115.751913 198.559593,113.951261 C199.670448,112.814913 199.651815,110.991304 198.516592,109.879348 C198.315922,109.682783 198.08945,109.517783 197.842912,109.388652 C193.829499,107.504783 188.768299,108.005522 185.381266,104.784435 C182.250804,101.807261 183.214023,96.1986957 186.808894,93.9805217 L186.810327,93.979087 Z M85.0316121,89.5427391 C87.8754018,89.0405652 90.3837848,90.7565652 93.1014386,91.2171304 C95.6513891,90.671913 98.0780704,89.1653913 100.754157,89.4164783 C103.75705,89.438 106.587939,90.824 108.447009,93.1842174 C105.383915,94.9733913 103.675348,98.4111304 104.09819,101.936391 C104.30746,105.201957 106.821577,107.675522 109.534931,109.134696 C108.071468,112.819217 106.063329,116.628565 102.719296,118.929957 C99.3738294,121.063478 95.9824956,117.206783 92.4750595,118.093478 C90.717758,118.427783 89.1295933,119.179609 87.3737252,119.641609 L85.9933978,119.641609 C84.8424084,119.198261 83.7903209,118.528217 82.9002033,117.674522 C79.0516271,113.632739 76.6278124,108.44313 76,102.896261 L76,99.9664348 C76.3325399,95.0264783 79.9704119,90.2127826 85.0301788,89.5427391 L85.0316121,89.5427391 Z M114.845536,82.6371304 L121.325764,82.6371304 C125.382178,92.3477391 129.312455,102.14013 133.285734,111.936826 C137.383715,102.226217 141.230858,92.3907826 145.287272,82.6787391 L151.7675,82.6787391 C151.809068,94.817 151.7675,106.913652 151.7675,119.051913 C150.047466,119.051913 148.338899,119.051913 146.666166,119.093522 C146.583031,110.217957 146.749301,101.346696 146.583031,92.5141739 C146.20749,93.1842174 145.86635,93.8944348 145.53811,94.606087 C142.241378,102.768565 138.847178,110.888 135.504578,119.050478 C134.041116,119.050478 132.577653,119.092087 131.114191,118.967261 C127.601022,110.009913 123.79688,101.220435 120.242143,92.3046957 C120.032872,101.220435 120.200575,110.094565 120.159008,119.007435 C118.403139,119.050478 116.645838,119.050478 114.855569,119.050478 C114.845536,106.870609 114.803968,94.7294783 114.845536,82.6371304 L114.845536,82.6371304 Z M209.390074,82.3860435 C210.910871,81.563913 212.810075,82.1306522 213.632825,83.6543913 C213.933831,84.2125217 214.059967,84.851 213.991165,85.4823043 C213.906597,87.2040435 212.269698,88.0778261 210.811969,88.4551739 C209.961986,88.2413913 209.18367,87.808087 208.552991,87.1997391 C207.403435,85.9543478 207.479403,84.0116522 208.722128,82.8609565 C208.924232,82.6744348 209.147836,82.5166087 209.391508,82.3903478 L209.390074,82.3860435 Z M100.377183,80 L101.255833,80 C101.423537,84.6874348 97.5763938,89.5011304 92.6843303,89.417913 C92.6957972,84.851 95.9079608,80.9182609 100.377183,80 L100.377183,80 Z" id="apple"></path>
                </g>
            </g>
        </g>
    </g>
</svg>