<?xml version="1.0" encoding="utf-8"?>
<!-- Generator: Adobe Illustrator 25.0.0, SVG Export Plug-In . SVG Version: 6.00 Build 0)  -->
<svg version="1.1" id="Layer_1" xmlns="http://www.w3.org/2000/svg" xmlns:xlink="http://www.w3.org/1999/xlink" x="0px" y="0px"
	 viewBox="0 0 1000 180" style="enable-background:new 0 0 1000 180;" xml:space="preserve">
<style type="text/css">
	.st0{fill:#020202;}
	.st1{fill:#FEA202;}
</style>
<g>
	<path class="st0" d="M471.5,24c-0.1,1-0.2,2.1-0.2,3.1c0,38.7,0,77.5,0,116.2c0,1,0,2.1,0,3.3c-8.6,0-17,0-25.6,0
		c0-3.6,0-7.2,0-11.1c-2.2,2.3-4,4.5-6,6.4c-11.2,10.4-38.7,11.3-49.8-11c-4.9-10-5.5-20.6-4.4-31.5c1-10.4,4.6-19.6,12-27.3
		c9.2-9.6,25.6-13.1,37.7-8c4.1,1.7,6.5,3.8,10.4,9.3c0-16.8,0-33.1,0-49.4C454.2,24,462.9,24,471.5,24z M446.1,103.9
		C445.9,103.9,446.3,104,446.1,103.9c0-1.9,0.1-3.8,0-5.7C445.7,90,440,83,432.8,81.7c-8.9-1.6-15.9,2.2-19.3,10.7
		c-3,7.4-3.2,15.2-1.4,22.9c2,8.5,7.5,13.4,15,13.7c8.4,0.3,14.7-3.9,17.2-12.4C445.7,112.6,446.1,109.2,446.1,103.9z"/>
	<path class="st0" d="M993.7,146.7c-9.4,0-18.9,0-28.3,0c-1.7,0-2.8-0.5-3.7-2c-7.8-12.3-15.7-24.4-23.6-36.6
		c-0.5-0.7-1-1.4-1.8-2.6c0,13.9,0,27.4,0,41c-8.7,0-17.1,0-25.8,0c0-0.7,0-1.5,0-2.2c0-39.1,0-78.2,0-117.3c0-1,0.4-1.9,0.5-2.9
		c8.1,0,16.2,0,24.3,0c0.2,1,0.6,1.9,0.6,2.9c0,24.1,0,48.2,0,72.3c0,0.8,0,1.6,0,3.2c0.9-1.3,1.4-1.9,1.9-2.6
		c7.3-11.2,14.6-22.5,21.8-33.8c1-1.6,2-2.2,3.9-2.2c6.8,0.1,13.5,0.1,20.3,0.1c2.4,0,4.8,0,7.7,0c-10.1,13.2-19.9,26-29.7,38.8
		c10.5,14.4,20.9,28.7,31.3,43c0.1,0.2,0.4,0.2,0.6,0.3C993.7,146.4,993.7,146.6,993.7,146.7z"/>
	<path class="st1" d="M121.5,170.6c-3.3-2.7-6.8-5.2-9.8-8.2c-1.3-1.3-2-3.7-2.1-5.6c-0.4-18.2-0.5-36.5-0.8-54.7
		c0-1.8-0.4-3.6-0.7-6.2c-1,1.4-1.5,2.1-1.9,2.8c-6.8,11.2-13.5,22.5-20.3,33.7c-0.7,1.1-2.1,2.5-3.2,2.6c-2,0.1-3.4-1.2-4.1-3.5
		c-2.8-9.5-5.9-18.9-8.9-28.3c-1.1-3.4-2-3.7-4.4-1c-4,4.6-7.7,9.6-11.8,14c-2.4,2.5-5.4,4.5-8.4,6.4c-2.1,1.4-3.9,0.6-4.6-1.9
		c-1.3-5-2.5-10.1-3.7-15.2c-0.3-1.3-0.7-2.5-1.2-4.4c-1.7,1.2-3,2.1-4.3,3.1c-8.3,6.5-16.6,6.7-25.1,0.5c-1.9-1.3-2.1-4.8-0.6-8.2
		c1.1-2.4,2.9-3.3,5.4-2.5c2.3,0.8,4.6,1.7,6.9,2.4c4.4,1.4,8.1,0,11.2-3.3c1.8-1.9,3.6-4,5.7-5.6c4.5-3.4,9.1-1.3,10,4.2
		c0.3,1.9,0.7,3.8,1.2,6.6c1.8-1.6,3.1-2.4,4-3.5C54.5,89.5,59,84,63.7,78.6c1.8-2,3.9-4,6.2-5.4c4.2-2.6,6.6-1.3,8,3.6
		c1.7,6.1,3.7,12.1,5.9,18c0.9,2.4,2.7,4.5,4.4,7.3c1.3-1.9,2.3-3,3-4.3c6.6-12.2,13.2-24.4,19.9-36.6c1-1.8,2-3.5,3-5.2
		c2.3-3.7,5.8-5,10-3.9c3.9,1,5.3,3.2,5.2,7.4c-0.7,19.5-1.3,38.9-1.9,58.4c0,0.4,0.1,0.9,0.6,1.5c1.4-4.1,2.9-8.1,4.2-12.3
		c7.4-23.9,14.7-47.8,22-71.7c1.3-4.4,2-5.1,6.6-4.9c10.7,0.4,14.2,2,13.5,13.9c-0.6,12-2.1,23.9-3,35.9c-0.7,9.4-1.2,18.9-1.1,28.6
		c0.7-1.5,1.5-2.9,2.2-4.4c2.9-5.8,13.5-9.8,19.3-7.1c1,0.4,2,1.9,2.1,2.9c0.3,3.5,0.1,7.1,0.1,10.7c-4.1,0.9-8.2,1.6-12.1,2.8
		c-1.6,0.5-3.3,1.8-4.1,3.2c-2,3.2-3.5,6.7-5.3,10c-1.6,2.8-3.9,3.9-7,2.1c-4.6-2.7-9.3-5.2-13.8-8.1c-1.1-0.7-2-2.7-1.9-4
		c0.2-5.1,0.8-10.2,0.5-15.5c-0.5,1.1-1,2.2-1.4,3.3c-6,18.1-11.9,36.3-18.1,54.4c-1.4,4.1-3.9,7.8-5.9,11.6
		C123.7,170.6,122.6,170.6,121.5,170.6z"/>
	<path class="st0" d="M495.5,24c1.4,0.3,2.9,0.6,4.3,0.9c6.9,1.7,10.7,6.5,10.3,13.5c-0.3,6.3-5.1,11.3-11.8,12.1
		c-4.1,0.5-8.1,0.2-11.7-2.2c-4.8-3.2-6.9-8.4-5.6-14c1.2-5,5.7-8.8,11.6-9.7c0.6-0.1,1.2-0.4,1.8-0.6C494.8,24,495.1,24,495.5,24z"
		/>
	<path class="st1" d="M6.1,97.8c1.6-1.6,3.5-1.9,5.6-1.4c1.6,0.4,2.5,1.5,2.2,3.2c-0.2,1.6-1.1,2.3-2.8,2.4c-1.9,0.1-3.8,0-5.1-1.7
		C6.1,99.6,6.1,98.7,6.1,97.8z"/>
	<path class="st0" d="M750.2,146.6c-8.7,0-17,0-25.6,0c0-1,0-1.9,0-2.8c0-14.4,0.1-28.8-0.1-43.1c0-3.5-0.5-7.1-1.3-10.5
		c-1.2-5-4.6-8-9.8-8.6c-5.3-0.7-9.5,1.2-12.6,5.5c-3.1,4.5-3.8,9.5-3.8,14.8c0,13.9,0,27.9,0,41.8c0,0.9,0,1.9,0,2.9
		c-8.6,0-17,0-25.7,0c0-1,0-1.9,0-2.9c0-14.6,0.1-29.3,0-43.9c0-3.2-0.4-6.4-1.1-9.5c-1.2-5-4.4-8.1-9.7-8.8
		c-5.5-0.7-9.9,0.9-13.1,5.6c-3.1,4.5-3.6,9.7-3.6,14.9c0,14.1,0,28.2,0,42.4c0,0.7,0,1.4,0,2.2c-8.5,0-16.9,0-25.4,0
		c0-27.4,0-54.9,0-82.6c8.3,0,16.7,0,25.3,0c0,4,0,8.1,0,12.2c6.8-8.6,15.2-14,26.3-14.4c11.5-0.3,20.1,4.1,24.9,14.9
		c2.6-2.8,4.8-5.8,7.7-8c10.2-7.9,21.5-9.1,33.3-4.3c8.5,3.5,11.8,11.2,13.3,19.7c0.6,3.7,0.9,7.4,0.9,11.1c0.1,16.5,0,33.1,0,49.6
		C750.2,145.5,750.2,146,750.2,146.6z"/>
	<path class="st0" d="M566.1,148.7c-8.4-0.1-16.6-1.2-24.1-5.3c-10.3-5.6-16.6-14.1-19.2-25.5c-2-8.9-1.9-17.7,0.4-26.5
		c3.5-13.1,11.8-22,24.5-26.4c13.4-4.6,26.9-4.8,40.1,0.7c13.4,5.6,20.7,16.3,22.9,30.5c1.4,9.2,0.8,18.4-2.8,27.1
		c-6.2,15.3-18.2,22.9-34.2,25c-1.6,0.2-3.3,0.3-4.9,0.4C568,148.7,567.1,148.7,566.1,148.7z M585.6,104.7c-0.4-3-0.6-6-1.2-9
		c-1.8-9.2-7.1-13.7-16.4-14.4c-8.7-0.6-15.5,3.7-18.4,11.8c-2.8,8-2.7,16.2-0.2,24.2c2.1,6.7,6.8,10.4,13.7,11.5
		c11.3,1.8,19.2-3.6,21.3-14.8C585,111,585.2,107.9,585.6,104.7z"/>
	<path class="st0" d="M352.7,64c8.6,0,17,0,25.5,0c0,27.6,0,55,0,82.6c-8.4,0-16.8,0-25.4,0c0-4,0-8,0-12c-0.2-0.1-0.4-0.2-0.6-0.3
		c-0.6,0.8-1.2,1.6-1.8,2.5c-9.9,13.3-30.4,16.2-42.5,5.9c-5.5-4.7-8-11-9-17.9c-0.6-4.3-0.9-8.6-0.9-12.9c-0.1-15.9,0-31.7,0-47.8
		c8.5,0,17,0,25.6,0c0,1,0,1.9,0,2.9c0,14.4,0,28.8,0,43.2c0,2.8,0.2,5.5,0.7,8.3c1,5.5,4,9.4,9.7,10.5c6,1.1,11.6-0.1,15.1-5.5
		c1.7-2.6,3-6,3.2-9.1c0.4-10.7,0.3-21.5,0.3-32.2C352.7,76,352.7,70,352.7,64z"/>
	<path class="st0" d="M221.8,87.9c0-6.2,0-11.9,0-17.7c0-0.7,0.5-1.7,1.1-2c15-6,30.5-9,46.3-4c12.3,3.9,18.2,13.6,19,25.9
		c0.8,12.1,0.5,24.2,0.6,36.4c0.1,6.7,0,13.3,0,20.1c-8.1,0-16.1,0-24.3,0c0-3.8,0-7.6,0-11.1c-3.1,2.9-5.8,6.4-9.3,8.7
		c-9.6,6.1-19.9,6.3-29.9,1.3c-7.9-3.9-11.3-11.2-11.8-19.8c-0.8-15.5,7.1-25.7,22.9-28.8c8.4-1.6,16.9-2.5,25.4-3.7
		c0.8-0.1,1.7-0.2,2.5-0.3c0.7-6.9-3-12.1-9.8-13.1c-10.9-1.7-20.9,1.4-30.3,6.7C223.7,86.8,223,87.3,221.8,87.9z M264.7,107.4
		c-5.7,0.8-11.3,1.4-16.8,2.4c-2.2,0.4-4.5,1.3-6.4,2.5c-3.7,2.2-4.5,5.9-4,9.9c0.5,4,2.9,6.4,6.5,7.6c5.8,2,12.7-0.1,16.7-4.7
		C265,120,265,114,264.7,107.4z"/>
	<path class="st0" d="M829.8,146.7c-8.3,0-16.1,0-24.3,0c0-3.9,0-7.7,0-11.7c-2.4,2.6-4.4,5.2-6.8,7.4c-8.6,7.6-24.5,8.7-34,2.3
		c-9-6.1-11.3-15-10-25.1c1.5-12.4,9.1-20,22.6-22.6c8.4-1.6,16.9-2.5,25.4-3.7c0.8-0.1,1.7-0.2,2.5-0.3c0.9-6.7-2.9-12-9.7-13.1
		c-9.6-1.6-18.5,0.7-27.1,5c-1.8,0.9-3.6,2-5.8,3.2c0-5.4,0.2-10.4-0.1-15.5c-0.2-3,0.8-4.3,3.5-5.2c12.6-4.3,25.4-6.9,38.7-4.3
		c14.8,2.9,23.7,12.7,24.4,27.8c0.6,12.3,0.4,24.6,0.5,36.9C829.8,133.8,829.8,140.1,829.8,146.7z M805.5,107.5
		c-4.6,0.6-9.1,1-13.5,1.8c-2.9,0.5-6,1.1-8.7,2.3c-4,1.8-5.8,5.9-5.1,10.4c0.6,4.3,3.2,7.1,7.6,8.1c7,1.7,13.9-1.3,17.5-7.5
		C806,117.9,805.7,112.8,805.5,107.5z"/>
	<path class="st0" d="M903.1,87.3c-4.9-3.4-9.8-5.3-15.3-5.8c-16.6-1.6-28,9.5-26.6,26.2c1.2,14,9.5,21.6,23.6,21.4
		c5.7-0.1,10.9-1.8,15.8-4.5c0.7-0.4,1.5-0.8,2.5-1.4c0,6.6,0.1,12.9-0.1,19.2c0,0.7-0.9,1.8-1.7,2.1c-5.8,2.8-12,3.7-18.4,4
		c-10.8,0.6-21.1-0.7-30.3-6.9c-12.4-8.4-17.6-20.5-17.5-35.1c0.1-9.9,2.2-19.2,8.2-27.4c7.2-9.7,17.1-14.9,28.9-16.6
		c8.4-1.2,16.9-1.2,25.3,1c5.6,1.4,5.6,1.5,5.6,7.2C903.1,76.1,903.1,81.4,903.1,87.3z"/>
	<path class="st0" d="M525.5,128.3c0,5.9,0,11.8,0,17.8c-7.6,2-15.3,3.3-23.1,2.6c-11.6-1-19.7-9.7-19.9-21.8
		c-0.3-20.8-0.1-41.6-0.1-62.4c0-0.2,0.1-0.3,0.2-0.5c8.3,0,16.7,0,25.2,0c0,1.1,0,2,0,2.9c0,16.5,0,33.1,0,49.6
		c0,1.3,0,2.6,0.1,3.9c0.4,5.7,4.1,9,9.8,8.8C520.3,129.1,522.9,128.6,525.5,128.3z"/>
</g>
</svg>
