<?xml version="1.0" encoding="UTF-8" standalone="no"?>
<svg
   xmlns:dc="http://purl.org/dc/elements/1.1/"
   xmlns:cc="http://creativecommons.org/ns#"
   xmlns:rdf="http://www.w3.org/1999/02/22-rdf-syntax-ns#"
   xmlns:svg="http://www.w3.org/2000/svg"
   xmlns="http://www.w3.org/2000/svg"
   xmlns:sodipodi="http://sodipodi.sourceforge.net/DTD/sodipodi-0.dtd"
   xmlns:inkscape="http://www.inkscape.org/namespaces/inkscape"
   width="325px"
   height="80px"
   viewBox="0 0 325 80"
   version="1.1"
   id="svg15"
   sodipodi:docname="BMP.svg"
   inkscape:version="1.0.1 (0767f8302a, 2020-10-17)">
  <metadata
     id="metadata19">
    <rdf:RDF>
      <cc:Work
         rdf:about="">
        <dc:format>image/svg+xml</dc:format>
        <dc:type
           rdf:resource="http://purl.org/dc/dcmitype/StillImage" />
      </cc:Work>
    </rdf:RDF>
  </metadata>
  <sodipodi:namedview
     pagecolor="#ffffff"
     bordercolor="#666666"
     borderopacity="1"
     objecttolerance="10"
     gridtolerance="10"
     guidetolerance="10"
     inkscape:pageopacity="0"
     inkscape:pageshadow="2"
     inkscape:window-width="1920"
     inkscape:window-height="1016"
     id="namedview17"
     showgrid="false"
     inkscape:zoom="3.7907692"
     inkscape:cx="162.5"
     inkscape:cy="40"
     inkscape:window-x="0"
     inkscape:window-y="27"
     inkscape:window-maximized="1"
     inkscape:current-layer="svg15" />
  <!-- Generator: Sketch 47 (45396) - http://www.bohemiancoding.com/sketch -->
  <title
     id="title2">boomplay</title>
  <desc
     id="desc4">Created with Sketch.</desc>
  <defs
     id="defs6" />
  <g
     id="white-logos"
     stroke="none"
     stroke-width="1"
     fill="none"
     fill-rule="evenodd"
     style="fill:#000000">
    <g
       id="boomplay"
       fill="#FFFFFF"
       style="fill:#000000">
      <g
         id="Page-1"
         transform="translate(5.000000, 5.000000)"
         style="fill:#000000">
        <path
           d="M69.7735829,35.0802293 C69.7735829,54.3476326 54.1543011,69.9669144 34.8868978,69.9669144 C15.6191077,69.9669144 1.93370165e-05,54.3476326 1.93370165e-05,35.0802293 C1.93370165e-05,15.812826 15.6191077,0.193350829 34.8868978,0.193350829 C54.1543011,0.193350829 69.7735829,15.812826 69.7735829,35.0802293 Z M34.8867044,66.1902983 C52.0411519,66.1902983 65.9970635,52.2345801 65.9970635,35.0801326 C65.9970635,17.9260718 52.0411519,3.97016022 34.8867044,3.97016022 C17.7326436,3.97016022 3.77673204,17.9260718 3.77673204,35.0801326 C3.77673204,52.2345801 17.7326436,66.1902983 34.8867044,66.1902983 Z"
           id="Combined-Shape"
           style="fill:#000000" />
        <path
           d="M34.8867044,5.61109945 C51.1361796,5.61109945 64.3559309,18.8310442 64.3559309,35.0801326 C64.3559309,51.3296077 51.1361796,64.5493591 34.8867044,64.5493591 C18.637616,64.5493591 5.4174779,51.3296077 5.4174779,35.0801326 C5.4174779,18.8310442 18.637616,5.61109945 34.8867044,5.61109945 Z M51.577721,23.2427265 C52.5952348,16.8907099 49.6807597,13.4730856 42.8284945,12.9962348 L33.2968923,12.9962348 C31.3902624,12.9962348 30.1654558,13.9493564 29.6205387,15.8557928 L28.8729696,18.4722845 L37.1536602,18.2162624 C39.0107873,17.8167597 41.3350967,19.3153785 42.6366713,21.8854613 C44.0948757,24.7649365 43.7114227,27.8890249 41.781395,28.8684448 C39.8519475,29.8438039 37.1060912,28.3020635 35.6486602,25.423942 C34.5487707,23.2485276 34.4979144,20.9367873 35.369047,19.5120359 L28.5152348,19.7239696 L23.4526105,37.4436381 L33.7969475,37.0356271 C36.2423066,36.4880028 39.3254006,38.4389144 41.0711464,41.8151575 C43.0274724,45.5974779 42.556616,49.7232238 40.0211464,51.037174 C37.486837,52.3455166 33.8470304,50.342395 31.8918646,46.5614282 C30.4164503,43.7039972 30.3236326,40.6545497 31.4565884,38.7651298 L22.9792403,39.0992735 L18.8629696,53.5057376 C18.3186326,55.412174 18.9989088,56.3656823 20.9051519,56.3656823 L31.1514503,56.3656823 C40.1828039,55.8890249 46.1509807,51.6818702 49.0583011,43.7360967 C50.3059254,37.7006271 48.1473343,34.1263729 42.5902624,33.0125608 L42.6581354,32.7747155 C46.9898204,31.5048536 49.9638536,28.328942 51.577721,23.2427265 Z"
           id="path9"
           style="fill:#000000" />
        <path
           d="M82.640625,46 L82.640625,23.25 L90.078125,23.25 C92.5468873,23.25 94.4036396,23.7604116 95.6484375,24.78125 C96.8932354,25.8020884 97.515625,27.31249 97.515625,29.3125 C97.515625,30.3750053 97.2135447,31.3151001 96.609375,32.1328125 C96.0052053,32.9505249 95.1822969,33.5833311 94.140625,34.03125 C95.3697978,34.3750017 96.3411423,35.028641 97.0546875,35.9921875 C97.7682327,36.955734 98.125,38.10416 98.125,39.4375 C98.125,41.4791769 97.4635483,43.0833275 96.140625,44.25 C94.8177017,45.4166725 92.9479288,46 90.53125,46 L82.640625,46 Z M85.640625,35.359375 L85.640625,43.546875 L90.59375,43.546875 C91.9895903,43.546875 93.0911418,43.1848995 93.8984375,42.4609375 C94.7057332,41.7369755 95.109375,40.7395897 95.109375,39.46875 C95.109375,36.729153 93.6198066,35.359375 90.640625,35.359375 L85.640625,35.359375 Z M85.640625,32.953125 L90.171875,32.953125 C91.4843816,32.953125 92.5338502,32.6250033 93.3203125,31.96875 C94.1067748,31.3124967 94.5,30.4218806 94.5,29.296875 C94.5,28.0468688 94.1354203,27.1380237 93.40625,26.5703125 C92.6770797,26.0026013 91.5677158,25.71875 90.078125,25.71875 L85.640625,25.71875 L85.640625,32.953125 Z M101.34375,37.390625 C101.34375,35.7343667 101.669268,34.2447983 102.320312,32.921875 C102.971357,31.5989517 103.877598,30.5781286 105.039062,29.859375 C106.200527,29.1406214 107.526034,28.78125 109.015625,28.78125 C111.31772,28.78125 113.17968,29.578117 114.601562,31.171875 C116.023445,32.765633 116.734375,34.8854034 116.734375,37.53125 L116.734375,37.734375 C116.734375,39.3802166 116.419274,40.8567643 115.789062,42.1640625 C115.158851,43.4713607 114.257818,44.4895797 113.085938,45.21875 C111.914057,45.9479203 110.567716,46.3125 109.046875,46.3125 C106.755197,46.3125 104.898445,45.515633 103.476562,43.921875 C102.05468,42.328117 101.34375,40.2187631 101.34375,37.59375 L101.34375,37.390625 Z M104.25,37.734375 C104.25,39.6093844 104.684891,41.1145777 105.554688,42.25 C106.424484,43.3854223 107.588534,43.953125 109.046875,43.953125 C110.515632,43.953125 111.682287,43.3776099 112.546875,42.2265625 C113.411463,41.0755151 113.84375,39.463552 113.84375,37.390625 C113.84375,35.5364491 113.40365,34.0338599 112.523438,32.8828125 C111.643225,31.7317651 110.473966,31.15625 109.015625,31.15625 C107.588535,31.15625 106.437504,31.7239527 105.5625,32.859375 C104.687496,33.9947973 104.25,35.6197811 104.25,37.734375 Z M119.59375,37.390625 C119.59375,35.7343667 119.919268,34.2447983 120.570312,32.921875 C121.221357,31.5989517 122.127598,30.5781286 123.289062,29.859375 C124.450527,29.1406214 125.776034,28.78125 127.265625,28.78125 C129.56772,28.78125 131.42968,29.578117 132.851562,31.171875 C134.273445,32.765633 134.984375,34.8854034 134.984375,37.53125 L134.984375,37.734375 C134.984375,39.3802166 134.669274,40.8567643 134.039062,42.1640625 C133.408851,43.4713607 132.507818,44.4895797 131.335938,45.21875 C130.164057,45.9479203 128.817716,46.3125 127.296875,46.3125 C125.005197,46.3125 123.148445,45.515633 121.726562,43.921875 C120.30468,42.328117 119.59375,40.2187631 119.59375,37.59375 L119.59375,37.390625 Z M122.5,37.734375 C122.5,39.6093844 122.934891,41.1145777 123.804688,42.25 C124.674484,43.3854223 125.838534,43.953125 127.296875,43.953125 C128.765632,43.953125 129.932287,43.3776099 130.796875,42.2265625 C131.661463,41.0755151 132.09375,39.463552 132.09375,37.390625 C132.09375,35.5364491 131.65365,34.0338599 130.773438,32.8828125 C129.893225,31.7317651 128.723966,31.15625 127.265625,31.15625 C125.838535,31.15625 124.687504,31.7239527 123.8125,32.859375 C122.937496,33.9947973 122.5,35.6197811 122.5,37.734375 Z M141.328125,29.09375 L141.40625,30.96875 C142.64584,29.5104094 144.317698,28.78125 146.421875,28.78125 C148.78647,28.78125 150.395829,29.6874909 151.25,31.5 C151.812503,30.6874959 152.544266,30.0312525 153.445312,29.53125 C154.346359,29.0312475 155.411452,28.78125 156.640625,28.78125 C160.348977,28.78125 162.234375,30.744772 162.296875,34.671875 L162.296875,46 L159.40625,46 L159.40625,34.84375 C159.40625,33.6354106 159.130211,32.7317738 158.578125,32.1328125 C158.026039,31.5338512 157.098965,31.234375 155.796875,31.234375 C154.723953,31.234375 153.833337,31.5546843 153.125,32.1953125 C152.416663,32.8359407 152.005209,33.6979113 151.890625,34.78125 L151.890625,46 L148.984375,46 L148.984375,34.921875 C148.984375,32.4635294 147.781262,31.234375 145.375,31.234375 C143.479157,31.234375 142.182295,32.0416586 141.484375,33.65625 L141.484375,46 L138.59375,46 L138.59375,29.09375 L141.328125,29.09375 Z M180.9375,37.734375 C180.9375,40.3073045 180.348964,42.3802005 179.171875,43.953125 C177.994786,45.5260495 176.401052,46.3125 174.390625,46.3125 C172.338531,46.3125 170.723964,45.6614648 169.546875,44.359375 L169.546875,52.5 L166.65625,52.5 L166.65625,29.09375 L169.296875,29.09375 L169.4375,30.96875 C170.614589,29.5104094 172.24999,28.78125 174.34375,28.78125 C176.37501,28.78125 177.981765,29.5468673 179.164062,31.078125 C180.34636,32.6093827 180.9375,34.7395697 180.9375,37.46875 L180.9375,37.734375 Z M178.046875,37.40625 C178.046875,35.4999905 177.640629,33.9947972 176.828125,32.890625 C176.015621,31.7864528 174.901049,31.234375 173.484375,31.234375 C171.734366,31.234375 170.421879,32.0104089 169.546875,33.5625 L169.546875,41.640625 C170.411463,43.1822994 171.734366,43.953125 173.515625,43.953125 C174.901049,43.953125 176.0026,43.4036513 176.820312,42.3046875 C177.638025,41.2057237 178.046875,39.5729275 178.046875,37.40625 Z M187.75,46 L184.859375,46 L184.859375,22 L187.75,22 L187.75,46 Z M202.8125,46 C202.645833,45.666665 202.510417,45.0729209 202.40625,44.21875 C201.062493,45.6145903 199.458343,46.3125 197.59375,46.3125 C195.927075,46.3125 194.559901,45.8411505 193.492188,44.8984375 C192.424474,43.9557245 191.890625,42.7604239 191.890625,41.3125 C191.890625,39.5520745 192.559889,38.1849007 193.898438,37.2109375 C195.236986,36.2369743 197.11978,35.75 199.546875,35.75 L202.359375,35.75 L202.359375,34.421875 C202.359375,33.4114533 202.057295,32.6067738 201.453125,32.0078125 C200.848955,31.4088512 199.958339,31.109375 198.78125,31.109375 C197.749995,31.109375 196.88542,31.3697891 196.1875,31.890625 C195.48958,32.4114609 195.140625,33.041663 195.140625,33.78125 L192.234375,33.78125 C192.234375,32.9374958 192.533851,32.1223998 193.132812,31.3359375 C193.731774,30.5494752 194.544266,29.9270856 195.570312,29.46875 C196.596359,29.0104144 197.723952,28.78125 198.953125,28.78125 C200.901051,28.78125 202.427078,29.2682243 203.53125,30.2421875 C204.635422,31.2161507 205.208333,32.5572831 205.25,34.265625 L205.25,42.046875 C205.25,43.5989661 205.447915,44.8333287 205.84375,45.75 L205.84375,46 L202.8125,46 Z M198.015625,43.796875 C198.92188,43.796875 199.781246,43.5625023 200.59375,43.09375 C201.406254,42.6249977 201.99479,42.0156288 202.359375,41.265625 L202.359375,37.796875 L200.09375,37.796875 C196.552066,37.796875 194.78125,38.833323 194.78125,40.90625 C194.78125,41.8125045 195.08333,42.5208308 195.6875,43.03125 C196.29167,43.5416692 197.067704,43.796875 198.015625,43.796875 Z M215.078125,41.765625 L219.015625,29.09375 L222.109375,29.09375 L215.3125,48.609375 C214.260411,51.4218891 212.588553,52.828125 210.296875,52.828125 L209.75,52.78125 L208.671875,52.578125 L208.671875,50.234375 L209.453125,50.296875 C210.432297,50.296875 211.19531,50.0989603 211.742188,49.703125 C212.289065,49.3072897 212.739582,48.5833386 213.09375,47.53125 L213.734375,45.8125 L207.703125,29.09375 L210.859375,29.09375 L215.078125,41.765625 Z M236.9375,23.25 L244.375,41.8125 L251.8125,23.25 L255.703125,23.25 L255.703125,46 L252.703125,46 L252.703125,37.140625 L252.984375,27.578125 L245.515625,46 L243.21875,46 L235.765625,27.625 L236.0625,37.140625 L236.0625,46 L233.0625,46 L233.0625,23.25 L236.9375,23.25 Z M270.984375,44.328125 C269.859369,45.6510483 268.208344,46.3125 266.03125,46.3125 C264.229158,46.3125 262.856776,45.7890677 261.914062,44.7421875 C260.971349,43.6953073 260.494792,42.1458436 260.484375,40.09375 L260.484375,29.09375 L263.375,29.09375 L263.375,40.015625 C263.375,42.5781378 264.416656,43.859375 266.5,43.859375 C268.708344,43.859375 270.17708,43.0364666 270.90625,41.390625 L270.90625,29.09375 L273.796875,29.09375 L273.796875,46 L271.046875,46 L270.984375,44.328125 Z M288.03125,41.515625 C288.03125,40.7343711 287.736982,40.1276063 287.148438,39.6953125 C286.559893,39.2630187 285.533861,38.8906266 284.070312,38.578125 C282.606764,38.2656234 281.445317,37.8906272 280.585938,37.453125 C279.726558,37.0156228 279.091148,36.4947947 278.679688,35.890625 C278.268227,35.2864553 278.0625,34.5677125 278.0625,33.734375 C278.0625,32.3489514 278.648432,31.1770881 279.820312,30.21875 C280.992193,29.2604119 282.489574,28.78125 284.3125,28.78125 C286.229176,28.78125 287.783848,29.2760367 288.976562,30.265625 C290.169277,31.2552133 290.765625,32.5208256 290.765625,34.0625 L287.859375,34.0625 C287.859375,33.2708294 287.523441,32.5885445 286.851562,32.015625 C286.179684,31.4427055 285.333338,31.15625 284.3125,31.15625 C283.260411,31.15625 282.437503,31.3854144 281.84375,31.84375 C281.249997,32.3020856 280.953125,32.901038 280.953125,33.640625 C280.953125,34.3385452 281.229164,34.8645816 281.78125,35.21875 C282.333336,35.5729184 283.330722,35.9114567 284.773438,36.234375 C286.216153,36.5572933 287.385412,36.9427061 288.28125,37.390625 C289.177088,37.8385439 289.841144,38.377601 290.273438,39.0078125 C290.705731,39.638024 290.921875,40.4062455 290.921875,41.3125 C290.921875,42.8229242 290.317714,44.0338496 289.109375,44.9453125 C287.901036,45.8567754 286.333343,46.3125 284.40625,46.3125 C283.052077,46.3125 281.854172,46.0729191 280.8125,45.59375 C279.770828,45.1145809 278.955732,44.4453168 278.367188,43.5859375 C277.778643,42.7265582 277.484375,41.79688 277.484375,40.796875 L280.375,40.796875 C280.427084,41.7656298 280.815101,42.5338513 281.539062,43.1015625 C282.263024,43.6692737 283.218744,43.953125 284.40625,43.953125 C285.500005,43.953125 286.377601,43.731773 287.039062,43.2890625 C287.700524,42.846352 288.03125,42.255212 288.03125,41.515625 Z M297.828125,46 L294.9375,46 L294.9375,29.09375 L297.828125,29.09375 L297.828125,46 Z M294.703125,24.609375 C294.703125,24.1406227 294.846353,23.7447933 295.132812,23.421875 C295.419272,23.0989567 295.843747,22.9375 296.40625,22.9375 C296.968753,22.9375 297.395832,23.0989567 297.6875,23.421875 C297.979168,23.7447933 298.125,24.1406227 298.125,24.609375 C298.125,25.0781273 297.979168,25.4687484 297.6875,25.78125 C297.395832,26.0937516 296.968753,26.25 296.40625,26.25 C295.843747,26.25 295.419272,26.0937516 295.132812,25.78125 C294.846353,25.4687484 294.703125,25.0781273 294.703125,24.609375 Z M309.234375,43.953125 C310.26563,43.953125 311.166663,43.6406281 311.9375,43.015625 C312.708337,42.3906219 313.135416,41.6093797 313.21875,40.671875 L315.953125,40.671875 C315.901041,41.6406298 315.567711,42.5624956 314.953125,43.4375 C314.338539,44.3125044 313.518234,45.0104141 312.492188,45.53125 C311.466141,46.0520859 310.380214,46.3125 309.234375,46.3125 C306.93228,46.3125 305.101569,45.5442785 303.742188,44.0078125 C302.382806,42.4713465 301.703125,40.369805 301.703125,37.703125 L301.703125,37.21875 C301.703125,35.5729084 302.005205,34.1093814 302.609375,32.828125 C303.213545,31.5468686 304.080724,30.5520869 305.210938,29.84375 C306.341151,29.1354131 307.677076,28.78125 309.21875,28.78125 C311.114593,28.78125 312.690098,29.3489527 313.945312,30.484375 C315.200527,31.6197973 315.869791,33.0937409 315.953125,34.90625 L313.21875,34.90625 C313.135416,33.8124945 312.721358,32.914066 311.976562,32.2109375 C311.231767,31.507809 310.312505,31.15625 309.21875,31.15625 C307.749993,31.15625 306.611983,31.6848905 305.804688,32.7421875 C304.997392,33.7994845 304.59375,35.328115 304.59375,37.328125 L304.59375,37.875 C304.59375,39.8229264 304.994788,41.3229114 305.796875,42.375 C306.598962,43.4270886 307.744784,43.953125 309.234375,43.953125 Z"
           id="Boomplay-Music"
           style="fill:#000000" />
      </g>
    </g>
  </g>
</svg>
