<svg xmlns="http://www.w3.org/2000/svg" xmlns:xlink="http://www.w3.org/1999/xlink" width="194.296" height="37.149" viewBox="0 0 194.296 37.149"><defs><style>.a{fill:#40ab5d;}.b{fill:url(#a);}.c{fill:url(#b);}.d{fill:url(#c);}.e{fill:url(#d);}.f{fill:url(#e);}.g{fill:url(#f);}.h{fill:url(#g);}.i{fill:url(#h);}.j{fill:url(#i);}</style><linearGradient id="a" x1="-6.229" y1="9.247" x2="-6.234" y2="9.806" gradientUnits="objectBoundingBox"><stop offset="0" stop-color="#358c7b"/><stop offset="0.526" stop-color="#33a65e"/></linearGradient><linearGradient id="b" x1="-6.513" y1="7.137" x2="-5.95" y2="7.626" gradientUnits="objectBoundingBox"><stop offset="0" stop-color="#222b90"/><stop offset="1" stop-color="#367b99"/></linearGradient><linearGradient id="c" x1="-4.859" y1="5.238" x2="-4.313" y2="5.238" gradientUnits="objectBoundingBox"><stop offset="0" stop-color="#f90"/><stop offset="1" stop-color="#ff8000"/></linearGradient><linearGradient id="d" x1="-5.406" y1="5.238" x2="-4.861" y2="5.238" gradientUnits="objectBoundingBox"><stop offset="0" stop-color="#ff8000"/><stop offset="1" stop-color="#cc1953"/></linearGradient><linearGradient id="e" x1="-5.956" y1="5.238" x2="-5.411" y2="5.238" gradientUnits="objectBoundingBox"><stop offset="0" stop-color="#cc1953"/><stop offset="1" stop-color="#241284"/></linearGradient><linearGradient id="f" x1="-6.505" y1="5.238" x2="-5.959" y2="5.238" gradientUnits="objectBoundingBox"><stop offset="0" stop-color="#222b90"/><stop offset="1" stop-color="#3559a6"/></linearGradient><linearGradient id="g" x1="-5.978" y1="7.234" x2="-5.389" y2="7.528" xlink:href="#e"/><linearGradient id="h" x1="-5.426" y1="7.563" x2="-4.841" y2="7.2" gradientUnits="objectBoundingBox"><stop offset="0.003" stop-color="#fc0"/><stop offset="1" stop-color="#ce1938"/></linearGradient><linearGradient id="i" x1="-5.36" y1="9.883" x2="-4.907" y2="9.167" gradientUnits="objectBoundingBox"><stop offset="0.003" stop-color="#ffd100"/><stop offset="1" stop-color="#fd5a22"/></linearGradient></defs><g transform="translate(0 0)"><path d="M234.1-62.144c0,7.791,4.8,12.454,11.93,12.454,3.556,0,6.548-.991,8.219-3.594v3.594h6.509V-86.8H254v15.777c-1.535-2.6-4.372-3.769-7.927-3.769-6.956-.019-11.969,4.741-11.969,12.649Zm20.11,0c0,4.449-3.031,7.228-6.664,7.228-3.769,0-6.664-2.778-6.664-7.228,0-4.527,2.914-7.364,6.664-7.364C251.179-69.508,254.21-66.632,254.21-62.144Z" transform="translate(-188.615 86.8)"/><path d="M399.835-9.637c-.777,2.876-2.74,4.313-5.829,4.313-3.594,0-6.548-2.176-6.626-6.023h17.04a13.928,13.928,0,0,0,.311-3.07c0-6.9-4.7-10.783-11.638-10.783-7.4,0-12.493,5.265-12.493,12.416,0,7.966,5.615,12.746,13.387,12.746,5.868,0,9.851-2.448,11.6-7.325Zm-12.454-6.217a5.631,5.631,0,0,1,5.732-4.411c3.031,0,5.091,1.632,5.091,4.2l-.039.214Z" transform="translate(-306.651 37.169)"/><path d="M528.935-9.637c-.777,2.876-2.739,4.313-5.829,4.313-3.594,0-6.548-2.176-6.626-6.023h17.04a13.928,13.928,0,0,0,.311-3.07c0-6.9-4.7-10.783-11.638-10.783-7.4,0-12.493,5.265-12.493,12.416,0,7.966,5.615,12.746,13.387,12.746,5.868,0,9.851-2.448,11.6-7.325Zm-12.454-6.217a5.631,5.631,0,0,1,5.732-4.411c3.031,0,5.091,1.632,5.091,4.2l-.039.214Z" transform="translate(-410.667 37.169)"/><path d="M662.674.061v-6.12h-14.2L662.286-19.5v-5.6H640.427v5.829h13.348L640-5.768V.061Z" transform="translate(-515.65 37.088)"/><path d="M778.635-9.637c-.777,2.876-2.74,4.313-5.829,4.313-3.594,0-6.548-2.176-6.625-6.023h17.04a13.928,13.928,0,0,0,.311-3.07c0-6.9-4.7-10.783-11.638-10.783-7.4,0-12.493,5.265-12.493,12.416,0,7.966,5.615,12.746,13.387,12.746,5.868,0,9.851-2.448,11.6-7.325Zm-12.454-6.217a5.631,5.631,0,0,1,5.732-4.411c3.031,0,5.091,1.632,5.091,4.2l-.039.214Z" transform="translate(-611.851 37.169)"/><rect class="a" width="8.335" height="4.877" transform="translate(30.213 11.988)"/><rect class="b" width="8.335" height="4.877" transform="translate(30.213 18.75)"/><rect class="c" width="8.335" height="4.877" transform="translate(30.213 25.511)"/><rect class="d" width="8.335" height="4.877" transform="translate(0 32.273)"/><rect class="e" width="8.335" height="4.877" transform="translate(10.065 32.273)"/><rect class="f" width="8.335" height="4.877" transform="translate(20.149 32.273)"/><rect class="g" width="8.335" height="4.877" transform="translate(30.213 32.273)"/><rect class="h" width="8.335" height="4.877" transform="translate(20.149 25.511)"/><rect class="i" width="8.335" height="4.877" transform="translate(10.065 25.511)"/><rect class="j" width="8.335" height="4.877" transform="translate(10.065 18.75)"/><path d="M910.184-16.254v.719h6.587v-1.924c0-4.313-2.7-7.442-7.228-7.442a6.241,6.241,0,0,0-6.043,3.769V-24.9h-6.8V.223h6.8V-15.962c0-2.565,1.38-3.983,3.5-3.983A3.474,3.474,0,0,1,910.184-16.254Z" transform="translate(-722.474 36.927)"/></g></svg>