<?xml version="1.0" encoding="utf-8"?>
<!-- Generator: Adobe Illustrator 25.0.0, SVG Export Plug-In . SVG Version: 6.00 Build 0)  -->
<svg version="1.1" id="Layer_1" xmlns="http://www.w3.org/2000/svg" xmlns:xlink="http://www.w3.org/1999/xlink" x="0px" y="0px"
	 viewBox="0 0 240 80" style="enable-background:new 0 0 240 80;" xml:space="preserve">
<style type="text/css">
	.st0{fill-rule:evenodd;clip-rule:evenodd;fill:#003AA6;}
	.st1{fill-rule:evenodd;clip-rule:evenodd;fill:#0054A6;}
</style>
<desc>Created with Sketch.</desc>
<g id="white-logos">
	<g id="_x37_digital">
		<g id="_x37_digital_x5F_logo_x5F_colour" transform="translate(2.000000, 1.000000)">
			<path id="Fill-1" class="st0" d="M26.1,27.5V8.2H51c1,0,1.8,0.6,2.2,1.4l7.7,16.9c0.1,0.3,0.2,0.6,0.2,1H26.1"/>
			<path id="Fill-2" class="st0" d="M78.3,49.4c-4,0-7.3-3.4-7.3-7.5c0-4.1,3.3-7.5,7.3-7.5c3.9,0,7.2,3.4,7.2,7.5
				C85.5,45.9,82.2,49.4,78.3,49.4z M85.3,30.3c-1.8-1.7-4.5-2.6-7.4-2.6c-8.5,0-14.3,7.3-14.3,14.2c0,7,5.2,14.2,14,14.2
				c2.9,0,5.7-1,7.7-2.7v1.9h7V19.1h-7V30.3L85.3,30.3z"/>
			<path id="Fill-3" class="st0" d="M161.3,48.6l3.1,1.8l-2.7,5.9l-0.6-0.3c-5.3-2.5-8.7-4.6-8.7-10.6V34h-3.1v-6.4h3.1v-8.4h7v8.4
				h4.4V34h-4.4v10.4C159.4,47,160.1,47.9,161.3,48.6"/>
			<path id="Fill-4" class="st0" d="M210,50.4l-2.7,5.9l-0.6-0.3c-5.3-2.5-8.7-4.6-8.7-10.6V19.1h7v25.3c0,2.7,0.6,3.5,1.9,4.3
				L210,50.4"/>
			<path id="Fill-5" class="st0" d="M180.3,49.4c-4,0-7.3-3.4-7.3-7.5c0-4.1,3.3-7.5,7.3-7.5c3.9,0,7.2,3.4,7.2,7.5
				C187.6,45.9,184.2,49.4,180.3,49.4z M187.3,30.3c-1.8-1.7-4.5-2.6-7.4-2.6c-8.5,0-14.3,7.3-14.3,14.2c0,7,5.2,14.2,14,14.2
				c2.9,0,5.7-1,7.7-2.7v1.9h7V27.5h-7V30.3L187.3,30.3z"/>
			<path id="Fill-6" class="st0" d="M100.3,16.8c-2.4,0-4.3,1.9-4.3,4.3c0,2.4,1.9,4.3,4.3,4.3c2.4,0,4.3-1.9,4.3-4.3
				C104.6,18.7,102.7,16.8,100.3,16.8z M96.8,55.3h7V27.5h-7V55.3z"/>
			<path id="Fill-7" class="st0" d="M142.3,16.8c-2.4,0-4.3,1.9-4.3,4.3c0,2.4,1.9,4.3,4.3,4.3c2.4,0,4.3-1.9,4.3-4.3
				C146.6,18.7,144.7,16.8,142.3,16.8z M138.8,55.3h7V27.5h-7V55.3z"/>
			<path id="Fill-9" class="st0" d="M121.5,48.7c-4,0-6.9-3-6.9-7.2c0-3.9,3.1-7.1,6.9-7.1c3.8,0,6.8,3.2,6.8,7.2
				C128.3,45.6,125.3,48.7,121.5,48.7z M128.3,30.3L128.3,30.3c-1.9-1.7-4.4-2.6-7.3-2.6c-6.8,0-13.8,4.8-13.8,13.9
				c0,4,1.4,7.5,3.9,10.1c2.4,2.4,5.7,3.7,9.2,3.7c3.2,0,5.7-0.9,7.9-2.9h0V53c0,0.6-0.9,3.6-3.5,5.3c-2.6,1.6-6.1,1.5-10.5-0.5
				l-2.8,6.1c0,0,4.5,2.3,9.2,2.3c3.4,0,5.9-1,7.7-2.2c4.8-3.1,6.6-8.3,6.6-10.9V27.5h-6.7V30.3L128.3,30.3z"/>
			<g id="Clip-12">
				<path id="path-1_1_" class="st1" d="M34.9,46.8l8.8-19.3h17.4c0,0.3-0.1,0.7-0.2,1L43.7,66.1L34.9,46.8z"/>
			</g>
		</g>
	</g>
</g>
</svg>
