<?xml version="1.0" encoding="utf-8"?>
<!-- Generator: Adobe Illustrator 25.0.0, SVG Export Plug-In . SVG Version: 6.00 Build 0)  -->
<svg version="1.1" id="Layer_1" xmlns="http://www.w3.org/2000/svg" xmlns:xlink="http://www.w3.org/1999/xlink" x="0px" y="0px"
	 viewBox="0 0 1000 250" style="enable-background:new 0 0 1000 250;" xml:space="preserve">
<style type="text/css">
	.st0{fill:#232323;}
	.st1{fill:#D40024;}
</style>
<g>
	<path class="st0" d="M676.7,89.1c7.6,0,15,0,22.7,0c7.6,23.6,15.3,47.4,22.9,71c0.2,0,0.2,0,0.2,0h0.2c7.9-23.6,15.7-47.2,23.6-71
		c5.8,0,11.6,0,17.3,0c7.9,23.6,15.7,47.4,23.6,71.2c0.2,0,0.2,0,0.5,0c2.5-7.9,5.1-15.7,7.6-23.6c2.5-7.9,5.1-16,7.6-23.8
		c2.5-7.9,5.1-15.7,7.6-23.8c7.2,0,14.3,0,21.5,0c0.5,0.7,0,1.4-0.2,1.9c-4.2,12-8.3,24.1-12.5,36.3c-7.6,21.7-15,43.2-22.7,65
		c-0.2,0.5-0.5,0.9-0.5,1.4c-5.8,0-11.8,0-17.8,0c-7.9-22.7-15.7-45.3-23.6-68c-0.2,0-0.2,0-0.5,0c-3.9,11.3-7.9,22.7-11.8,34
		c-3.9,11.3-7.9,22.7-11.8,34c-6,0-11.8,0-17.6,0C701,158.9,689,124,676.7,89.1z"/>
	<path class="st1" d="M166.6,113.1c0.2-8.1,0.5-16.2,0.9-24.3c0.7-14.1,2.3-28.2,5.6-42.1c1.9-7.4,3.9-14.6,7.2-21.5
		c0.5-1.2,1.2-2.1,1.6-3.2c0.5-1.4,1.4-1.6,2.8-1.4c4.2,0.9,8.6,1.6,12.7,2.5c5.1,1.2,9.5,3.5,13.6,6.7c7.4,6,12.3,13.4,14.3,22.7
		c0.9,4.6,0.9,9.5,0.5,14.3c-1.2,11.6-5.1,22-9.7,32.4c-6,13.6-13.4,26.8-21,39.8c-6.9,11.8-14.3,23.1-22,34.5
		c-0.2,0.5-0.5,0.9-0.9,1.4c-0.2,0.2-0.7,0.5-1.2,0.5c-0.2,0-0.7-0.5-0.7-0.9c-0.2-1.6-0.5-3.2-0.5-5.1c-0.7-10.6-1.6-21.3-2.3-31.9
		c-0.2-5.6-0.5-11.1-0.5-16.7c0-2.8,0-5.3,0-8.1C166.8,113.1,166.8,113.1,166.6,113.1z"/>
	<path class="st1" d="M158.7,113.4c0,5.6,0.2,10.9,0,16.4c-0.5,10.6-1.2,21.5-1.9,32.1c-0.2,4.2-0.7,8.1-1.2,12c0,0.2,0,0.5,0,0.7
		c-0.2,0.2-0.5,0.7-0.7,0.9c-0.2,0-0.7-0.2-1.2-0.5c-0.2-0.2-0.5-0.5-0.7-0.9c-14.3-21-27.8-42.6-38.9-65.2
		c-4.6-9.7-9-19.4-11.8-29.8c-1.6-6-2.8-12.3-2.8-18.5c0.2-18.3,13-33.8,30.3-37.7c3.5-0.7,7.2-1.4,10.6-2.1
		c2.1-0.5,2.1-0.2,3.2,1.6c2.8,5.1,4.9,10.6,6.5,16.2c2.8,9.5,4.6,19.2,5.8,29.1c1.2,9.3,1.9,18.3,2.3,27.5c0.2,6,0.2,12.3,0.5,18.3
		C158.7,113.4,158.7,113.4,158.7,113.4z"/>
	<path class="st0" d="M443.2,193.6c-6.9,0-13.9,0-21,0c0-14.1,0-28.2,0-42.1c-1.6-0.5-45.8-0.5-48.1,0c0,6.9,0,14.1,0,21
		c0,6.9,0,13.9,0,20.8c-1.4,0.5-19.2,0.5-21,0c0-34.7,0-69.6,0-104.3c6.9,0,13.9,0,21,0c0,14.1,0,28,0,42.1c16.2,0,31.9,0,48.1,0
		c0-14.1,0-28,0-42.1c7.2,0,14.1,0,21,0C443.2,124,443.2,158.7,443.2,193.6z"/>
	<path class="st0" d="M928.6,193.6c-26.4,0-52.5,0-78.6,0c0,0,0,0-0.2-0.2c0,0,0,0,0-0.2c0-0.5,0-0.9,0-1.4c0-34.2,0-68.2,0-102.5
		c0.2-0.2,0.2-0.2,0.2-0.2s0,0,0.2,0c0.7,0,1.2,0,1.9,0c25,0,49.7,0,74.7,0c0.5,1.4,0.5,17.1,0,19.2c-18.5,0-37,0-55.7,0
		c0,7.2,0,14.1,0,21.3c4.4,0,8.6,0,12.7,0s8.6,0,12.7,0s8.6,0,12.7,0c0.5,1.4,0.5,16.9,0,19c-12.7,0-25.4,0-38.2,0
		c0,8.8,0,17.1,0,25.9c0.7,0,1.4,0.2,2.3,0.2c17.8,0,35.4,0,53.2,0c0.7,0,1.6,0,2.3,0C928.8,176.1,929.1,189.9,928.6,193.6z"/>
	<path class="st0" d="M605,171.9c-3.2,7.2-6.2,14.3-9.5,21.7c-7.2,0-14.3,0-21.7,0c15.5-34.9,30.8-69.6,46-104.5c0.7,0,1.4,0,1.9,0
		c4.9,0,9.7,0,14.8,0c1.6,0,2.3,0.5,3,1.9c7.4,17.1,15,34.2,22.4,51.3c7.2,16.2,14.3,32.6,21.5,48.8c0.2,0.7,0.7,1.6,0.9,2.3
		c-1.4,0.5-18.5,0.5-22,0.2c-0.2-0.5-0.5-0.9-0.7-1.4c-2.8-6.2-5.6-12.5-8.1-18.7c-0.5-1.2-0.9-1.6-2.3-1.6c-14.8,0-29.8,0-44.6,0
		C606.2,171.9,605.7,171.9,605,171.9z M645.1,152.9c-5.3-12.5-10.6-24.7-16.2-37.2c-5.3,12.7-10.6,25-16,37.2
		C623.8,152.9,634.2,152.9,645.1,152.9z"/>
	<path class="st0" d="M472.8,89.1c7.2,0,13.9,0,21,0c0,0.7,0,1.4,0,2.1c0,19,0,38.2,0,57.1c0,3.9,0.5,7.9,1.6,11.6
		c3,8.8,9,13.4,18,14.6c3.5,0.5,6.9,0.2,10.6-0.5c8.3-1.6,13.6-6.7,16-15c0.9-3.5,1.4-6.9,1.4-10.4c0-19.2,0-38.2,0-57.4
		c0-0.7,0-1.6,0-2.3c1.4-0.5,18.5-0.5,21-0.2c0,0.5,0,0.9,0,1.6c0,19.2,0,38.6,0,57.8c0,7.2-0.9,14.3-3.5,21
		c-4.6,12-13.2,19.9-25.4,23.6c-10.9,3-21.7,3-32.4,0c-13.6-3.9-22.4-13-26.4-26.6c-1.6-5.8-2.3-11.8-2.3-17.8c0-19.2,0-38.4,0-57.6
		C472.8,90.5,472.8,89.8,472.8,89.1z"/>
	<path class="st1" d="M258.4,57.2c1.2,1.2,2.1,2.1,3,3c6.5,6.9,11.8,14.6,15.5,23.4c2.5,5.8,3.9,11.8,3.7,18.3
		c-0.2,7.9-2.8,15-7.2,21.3c-3.2,4.6-7.6,8.6-12,12c-8.6,7.2-17.8,13.2-27.1,19.2c-16.4,10.2-33.1,19.2-50.4,28
		c-0.2,0.2-0.5,0.2-0.9,0.5c-0.5,0-0.9,0-1.2-0.2c-0.2-0.2-0.2-0.7-0.2-1.2c0.2-0.5,0.5-1.2,0.7-1.6c12-25.9,26.1-50.9,41.6-74.9
		c9.9-15.5,20.6-30.5,31.9-44.9C256.8,59,257.7,58.3,258.4,57.2z"/>
	<path class="st1" d="M67.3,57.4c0.5,0.5,0.7,0.9,1.2,1.4C82.8,77.1,96,96,108.3,115.7c10.9,17.3,20.8,35.2,29.8,53.7
		c1.9,3.7,3.7,7.6,5.3,11.3c0.2,0.2,0.2,0.5,0.5,0.9c0.2,0.9-0.2,1.6-1.2,1.2c-0.2,0-0.7-0.2-0.9-0.5
		c-20.8-10.4-41.2-21.5-60.6-34.5c-8.3-5.6-16.2-11.3-23.4-18.3c-9-8.8-13.6-19.4-12.5-32.1c0.5-5.3,2.1-10.4,4.4-15.3
		c4.2-8.8,9.9-16.7,16.9-23.8c0.2-0.2,0.5-0.5,0.7-0.7C67.1,57.4,67.1,57.4,67.3,57.4z"/>
	<path class="st1" d="M27.6,127.7c0.5,0.2,0.9,0.5,1.4,0.7c31.5,17.1,62.7,34.5,93,53.4c4.6,2.8,9,5.8,13.6,8.8
		c0.7,0.5,1.6,0.7,1.4,1.9c-0.2,0.9-1.4,0.7-2.1,0.7c-10.2,0-20.4,0-30.8,0c-6.9,0-13.9,0.2-20.8,0.2c-3.7,0-7.4,0-10.9-0.2
		c-17.8-1.2-31.2-9.5-40.5-24.5c-5.6-9-7.6-19-6.7-29.6c0.2-3.2,1.2-6.5,1.9-9.9C27.1,128.6,27.3,128.2,27.6,127.7z"/>
	<path class="st1" d="M298.1,127.5c0.5,1.4,0.9,2.8,1.2,4.2c3.5,18.3-0.7,34.2-14.1,47.4c-7.9,7.9-17.6,12.3-28.7,13.6
		c-3.5,0.5-6.9,0.5-10.6,0.5c-18.3,0-36.5,0-54.8,0c-0.5,0-1.2,0-1.6,0c-0.9-0.2-1.2-0.9-0.5-1.6c0.5-0.5,0.9-0.7,1.4-1.2
		c10.9-6.9,21.7-13.9,32.8-20.6c24.1-14.3,48.6-28,73.3-41.4C297,128.2,297.5,128,298.1,127.5z"/>
	<path class="st0" d="M954.3,89.1c6.9,0,13.6,0,20.4,0c0.5,1.2,0.5,101.1,0.2,104.1c-1.4,0.5-18.3,0.5-20.6,0
		C954.3,158.7,954.3,124,954.3,89.1z"/>
	<path class="st1" d="M275.5,202.4c-3.5,6-7.4,11.1-12,15.7c-3.7,3.5-7.9,6.2-12.5,8.1c-6.9,2.5-13.6,2.8-20.6-0.2
		c-2.3-1.2-4.9-2.3-7.2-3.5c-9.3-4.9-17.8-10.6-26.4-16.7c-1.9-1.2-3.7-2.5-5.3-3.7c-0.2-0.2-0.7-0.5-0.9-0.7
		c-0.2-0.2-0.5-0.7-0.2-1.2c0-0.2,0.7-0.7,0.9-0.7c0.9,0,1.9,0,2.8,0c8.3,0.2,16.7,0.5,25,0.9c6.9,0.2,13.9,0.5,20.8,0.7
		c6.7,0.2,13.4,0.5,20.4,0.7C264.8,202,269.9,202.2,275.5,202.4z"/>
	<path class="st1" d="M50.2,202.4c3,0,6-0.2,8.8-0.2c8.1-0.2,16.2-0.5,24.3-0.7c6.7-0.2,13.4-0.5,20.1-0.7
		c9.9-0.5,19.9-0.7,29.8-1.2c0.7,0,1.2,0,1.9,0c0.5,0,0.9,0.2,0.9,0.5c0,0.5-0.2,0.9-0.5,1.2c0,0.2-0.5,0.2-0.5,0.5
		c-10.4,7.4-21,14.6-32.4,20.8c-2.3,1.2-4.4,2.3-6.7,3.2c-7.2,3.2-14.6,3-21.7,0c-5.1-2.3-9.5-5.6-13.4-9.5c-3.5-3.7-6.5-7.6-9-12
		C50.9,203.8,50.7,203.1,50.2,202.4z"/>
	<path class="st0" d="M645.1,152.9c-10.9,0-21.3,0-32.1,0"/>
</g>
</svg>
