<?xml version="1.0" encoding="utf-8"?>
<!-- Generator: Adobe Illustrator 25.0.0, SVG Export Plug-In . SVG Version: 6.00 Build 0)  -->
<svg version="1.1" id="Layer_1" xmlns="http://www.w3.org/2000/svg" xmlns:xlink="http://www.w3.org/1999/xlink" x="0px" y="0px"
	 viewBox="0 0 265 80" style="enable-background:new 0 0 265 80;" xml:space="preserve">
<style type="text/css">
	.st0{fill:#333333;}
</style>
<desc>Created with Sketch.</desc>
<g id="white-logos">
	<g id="itunes">
		<g id="apple-itunes" transform="translate(1.000000, 2.000000)">
			<path id="Shape" class="st0" d="M75.3,53.2C73.7,56.6,73,58,71.1,61c-2.7,4.1-6.5,9.3-11.3,9.3c-4.2,0-5.3-2.7-11-2.7
				c-5.7,0-6.9,2.8-11.1,2.7c-4.7,0-8.3-4.7-11.1-8.8C19.1,50,18.3,36.5,23,29.3c3.3-5.1,8.6-8.1,13.5-8.1c5,0,8.2,2.7,12.3,2.7
				c4,0,6.5-2.8,12.3-2.8c4.4,0,9,2.4,12.3,6.5C62.5,33.6,64.3,49.1,75.3,53.2L75.3,53.2z"/>
			<path id="Shape_1_" class="st0" d="M56.7,16.6c2.1-2.7,3.7-6.5,3.1-10.4c-3.4,0.2-7.5,2.4-9.8,5.3c-2.1,2.6-3.9,6.4-3.2,10.2
				C50.5,21.7,54.4,19.5,56.7,16.6L56.7,16.6z"/>
			<path id="Shape_2_" class="st0" d="M94.5,34.9c0,2.3-1.8,4.2-4.6,4.2c-2.7,0-4.5-1.9-4.4-4.2c-0.1-2.4,1.7-4.3,4.5-4.3
				C92.7,30.6,94.4,32.4,94.5,34.9z M85.7,69.7V42.5h8.5v27.2H85.7z M108.5,39.3H98.4v-7.1h28.8v7.1H117v30.4h-8.5L108.5,39.3z
				 M154.2,61c0,3.6,0.1,6.5,0.2,8.7H147l-0.4-3.8h-0.2c-1.1,1.7-3.6,4.5-8.5,4.5c-5.5,0-9.6-3.5-9.6-11.9v-16h8.5v14.6
				c0,4,1.3,6.3,4.2,6.3c2.3,0,3.7-1.6,4.2-2.9c0.2-0.5,0.3-1.2,0.3-1.8V42.5h8.5L154.2,61L154.2,61L154.2,61L154.2,61z M160.9,51.2
				c0-3.4-0.1-6.3-0.2-8.7h7.3l0.4,3.7h0.2c1.1-1.7,3.9-4.3,8.4-4.3c5.6,0,9.7,3.7,9.7,11.7v16.1h-8.5V54.6c0-3.5-1.2-5.9-4.3-5.9
				c-2.3,0-3.7,1.6-4.3,3.2c-0.2,0.6-0.3,1.3-0.3,2.1v15.7h-8.5L160.9,51.2L160.9,51.2L160.9,51.2z M200.1,58.8
				c0.3,3.5,3.7,5.2,7.7,5.2c2.9,0,5.2-0.4,7.5-1.1l1.1,5.7c-2.8,1.1-6.2,1.7-9.9,1.7c-9.2,0-14.5-5.4-14.5-13.9
				c0-6.9,4.3-14.5,13.8-14.5c8.8,0,12.1,6.8,12.1,13.6c0,1.4-0.2,2.7-0.3,3.3L200.1,58.8z M210,53c0-2.1-0.9-5.5-4.8-5.5
				c-3.6,0-5,3.2-5.2,5.5H210z M222.9,62.3c1.6,0.9,4.8,2.1,7.3,2.1c2.6,0,3.6-0.9,3.6-2.3c0-1.4-0.8-2.1-4-3.1
				c-5.6-1.9-7.8-5-7.7-8.1c0-5.1,4.3-9,11.1-9c3.2,0,6,0.7,7.7,1.6l-1.5,5.8c-1.2-0.7-3.6-1.6-5.9-1.6c-2.1,0-3.2,0.8-3.2,2.2
				c0,1.3,1.1,2,4.4,3.1c5.2,1.8,7.3,4.4,7.4,8.4c0,5.1-4,8.9-11.8,8.9c-3.6,0-6.7-0.8-8.8-2L222.9,62.3L222.9,62.3z"/>
		</g>
	</g>
</g>
</svg>
