<?xml version="1.0" encoding="utf-8"?>
<!-- Generator: Adobe Illustrator 25.0.0, SVG Export Plug-In . SVG Version: 6.00 Build 0)  -->
<svg version="1.1" id="Layer_1" xmlns="http://www.w3.org/2000/svg" xmlns:xlink="http://www.w3.org/1999/xlink" x="0px" y="0px"
	 viewBox="0 0 345 80" style="enable-background:new 0 0 345 80;" xml:space="preserve">
<style type="text/css">
	.st0{fill:#FF004F;}
</style>
<desc>Created with Sketch.</desc>
<g id="white-logos">
	<g id="itunes-radio">
		<g id="ITunes_Radio_Logo" transform="translate(1.000000, 2.000000)">
			<path id="Shape" class="st0" d="M90.3,63.8c0,3.1-2.5,5.7-5.7,5.7H24.4c-3.1,0-5.7-2.5-5.7-5.7V22.6c0-3.1,2.5-5.7,5.7-5.7h60.2
				c3.1,0,5.7,2.5,5.7,5.7V63.8z M78.1,24.1c-2,0-3.6,1.6-3.6,3.6s1.6,3.6,3.6,3.6c2,0,3.6-1.6,3.6-3.6S80.1,24.1,78.1,24.1z
				 M78.1,36.9c-2,0-3.6,1.6-3.6,3.6c0,2,1.6,3.6,3.6,3.6c2,0,3.6-1.6,3.6-3.6C81.7,38.5,80.1,36.9,78.1,36.9z M47.5,40.9
				c-1,0-1.8,0.8-1.8,1.8c0,1,0.8,1.8,1.8,1.8c1,0,1.8-0.8,1.8-1.8C49.4,41.7,48.6,40.9,47.5,40.9z M64.3,40.9c-1,0-1.8,0.8-1.8,1.8
				c0,1,0.8,1.8,1.8,1.8c1,0,1.8-0.8,1.8-1.8C66.1,41.7,65.3,40.9,64.3,40.9z M30.8,40.9c-1,0-1.8,0.8-1.8,1.8c0,1,0.8,1.8,1.8,1.8
				c1,0,1.8-0.8,1.8-1.8C32.7,41.7,31.8,40.9,30.8,40.9z M47.5,49.2c-1,0-1.8,0.8-1.8,1.8c0,1,0.8,1.8,1.8,1.8c1,0,1.8-0.8,1.8-1.8
				C49.4,50.1,48.6,49.2,47.5,49.2z M47.5,57.5c-1,0-1.8,0.8-1.8,1.8c0,1,0.8,1.8,1.8,1.8c1,0,1.8-0.8,1.8-1.8
				C49.4,58.3,48.6,57.5,47.5,57.5z M47.5,32.6c-1,0-1.8,0.8-1.8,1.8c0,1,0.8,1.8,1.8,1.8c1,0,1.8-0.8,1.8-1.8
				C49.4,33.4,48.6,32.6,47.5,32.6z M47.5,24c-1,0-1.8,0.8-1.8,1.8c0,1,0.8,1.8,1.8,1.8c1,0,1.8-0.8,1.8-1.8
				C49.4,24.9,48.6,24,47.5,24z M62,32.6c-1,0-1.8,0.8-1.8,1.8c0,1,0.8,1.8,1.8,1.8s1.8-0.8,1.8-1.8C63.9,33.4,63,32.6,62,32.6z
				 M33.1,32.6c-1,0-1.8,0.8-1.8,1.8c0,1,0.8,1.8,1.8,1.8c1,0,1.8-0.8,1.8-1.8C34.9,33.4,34.1,32.6,33.1,32.6z M33.1,49.2
				c-1,0-1.8,0.8-1.8,1.8c0,1,0.8,1.8,1.8,1.8c1,0,1.8-0.8,1.8-1.8C34.9,50.1,34.1,49.2,33.1,49.2z M62,49.2c-1,0-1.8,0.8-1.8,1.8
				c0,1,0.8,1.8,1.8,1.8s1.8-0.8,1.8-1.8C63.9,50.1,63,49.2,62,49.2z M40.3,36.9c-1,0-1.8,0.8-1.8,1.8c0,1,0.8,1.8,1.8,1.8
				c1,0,1.8-0.8,1.8-1.8C42.2,37.7,41.3,36.9,40.3,36.9z M54.8,36.9c-1,0-1.8,0.8-1.8,1.8c0,1,0.8,1.8,1.8,1.8s1.8-0.8,1.8-1.8
				C56.6,37.7,55.8,36.9,54.8,36.9z M40.3,45c-1,0-1.8,0.8-1.8,1.8c0,1,0.8,1.8,1.8,1.8c1,0,1.8-0.8,1.8-1.8
				C42.2,45.8,41.3,45,40.3,45z M54.8,45c-1,0-1.8,0.8-1.8,1.8c0,1,0.8,1.8,1.8,1.8s1.8-0.8,1.8-1.8C56.6,45.8,55.8,45,54.8,45z
				 M39.2,55.2c-1,0-1.8,0.8-1.8,1.8c0,1,0.8,1.8,1.8,1.8c1,0,1.8-0.8,1.8-1.8C41,56.1,40.2,55.2,39.2,55.2z M55.9,55.2
				c-1,0-1.8,0.8-1.8,1.8c0,1,0.8,1.8,1.8,1.8s1.8-0.8,1.8-1.8C57.7,56.1,56.9,55.2,55.9,55.2z M55.9,26.4c-1,0-1.8,0.8-1.8,1.8
				c0,1,0.8,1.8,1.8,1.8c1,0,1.8-0.8,1.8-1.8C57.7,27.2,56.9,26.4,55.9,26.4z M39.2,26.4c-1,0-1.8,0.8-1.8,1.8c0,1,0.8,1.8,1.8,1.8
				c1,0,1.8-0.8,1.8-1.8C41,27.2,40.2,26.4,39.2,26.4z M84.8,16.9L29.3,5.1c0,0-0.1,0.5-0.3,1.3l-0.1,0.3c-0.2,0.8-0.3,1.4-0.3,1.4
				l41.5,8.8H84.8z M28.1,4.8l-2.7-0.6c-0.8-0.2-1.6,0.3-1.8,1.2l0,0c-0.2,0.8,0.3,1.6,1.2,1.8l2.7,0.6L28.1,4.8z"/>
			<g id="Group" transform="translate(108.000000, 20.220899)">
				<path id="Shape_1_" class="st0" d="M12.6,5.5c0,1.6-1.1,2.8-3,2.8c-1.7,0-2.9-1.2-2.9-2.8c0-1.6,1.2-2.8,2.9-2.8
					C11.5,2.7,12.6,3.9,12.6,5.5z M7.1,31.9V11.3h5.3v20.7H7.1z"/>
				<polygon id="Shape_2_" class="st0" points="22.4,7.7 14.2,7.7 14.2,3.3 35.8,3.3 35.8,7.7 27.6,7.7 27.6,31.9 22.4,31.9 				"/>
				<path id="Shape_3_" class="st0" d="M54.1,25.7c0,2.5,0.1,4.5,0.2,6.2h-4.6l-0.3-3.1h-0.1c-0.9,1.5-2.9,3.6-6.6,3.6
					c-3.8,0-7.2-2.3-7.2-9V11.3h5.2v11.2c0,3.4,1.1,5.6,3.9,5.6c2.1,0,3.4-1.5,4-2.8c0.2-0.5,0.3-1,0.3-1.6V11.3h5.2V25.7z"/>
				<path id="Shape_4_" class="st0" d="M58.4,17.4c0-2.4,0-4.4-0.2-6.2h4.6l0.3,3.1h0.1c0.9-1.6,3.1-3.6,6.6-3.6
					c3.6,0,7.3,2.3,7.3,8.9v12.3h-5.2V20.3c0-3-1.1-5.2-3.9-5.2c-2.1,0-3.5,1.5-4.1,3.1c-0.2,0.5-0.2,1.1-0.2,1.7v12.1h-5.3V17.4z"
					/>
				<path id="Shape_5_" class="st0" d="M85.1,23.1c0.1,3.7,3.1,5.3,6.4,5.3c2.4,0,4.2-0.3,5.7-0.9l0.8,3.6c-1.8,0.7-4.2,1.3-7.2,1.3
					c-6.7,0-10.7-4.1-10.7-10.4c0-5.7,3.5-11.1,10.1-11.1c6.7,0,8.9,5.5,8.9,10.1c0,1-0.1,1.7-0.2,2.2L85.1,23.1L85.1,23.1z
					 M94.2,19.4c0-1.9-0.8-5.1-4.3-5.1c-3.2,0-4.6,2.9-4.8,5.1H94.2z"/>
				<path id="Shape_6_" class="st0" d="M101.8,27.1c1.2,0.7,3.4,1.5,5.3,1.5c2.3,0,3.3-0.9,3.3-2.3c0-1.4-0.8-2.1-3.4-3
					c-4-1.4-5.7-3.6-5.7-6c0-3.7,3-6.5,7.8-6.5c2.3,0,4.3,0.6,5.5,1.2l-1,3.7c-0.9-0.5-2.5-1.2-4.4-1.2c-1.9,0-2.9,0.9-2.9,2.2
					c0,1.3,1,2,3.6,2.9c3.7,1.4,5.5,3.3,5.5,6.3c0,3.7-2.9,6.5-8.4,6.5c-2.5,0-4.8-0.6-6.3-1.4L101.8,27.1z"/>
				<path id="Shape_7_" class="st0" d="M126.7,3.7c1.9-0.4,4.5-0.6,7.1-0.6c3.9,0,6.5,0.7,8.3,2.3c1.4,1.3,2.2,3.2,2.2,5.4
					c0,3.8-2.4,6.3-5.4,7.3v0.1c2.2,0.8,3.5,2.8,4.2,5.8c0.9,4,1.6,6.7,2.2,7.9h-3.8c-0.5-0.8-1.1-3.3-1.9-6.8
					c-0.8-3.9-2.4-5.4-5.7-5.6h-3.5v12.4h-3.7V3.7L126.7,3.7z M130.3,16.7h3.8c3.9,0,6.5-2.2,6.5-5.4c0-3.7-2.7-5.3-6.6-5.3
					c-1.8,0-3.1,0.2-3.7,0.3V16.7z"/>
				<path id="Shape_8_" class="st0" d="M159.6,31.9l-0.3-2.6h-0.1c-1.1,1.6-3.4,3.1-6.3,3.1c-4.2,0-6.3-2.9-6.3-5.9
					c0-5,4.4-7.7,12.4-7.6v-0.4c0-1.7-0.5-4.8-4.7-4.8c-1.9,0-3.9,0.6-5.3,1.5l-0.8-2.5c1.7-1.1,4.2-1.8,6.7-1.8
					c6.3,0,7.8,4.3,7.8,8.4V27c0,1.8,0.1,3.5,0.3,4.9H159.6L159.6,31.9z M159,21.5c-4.1-0.1-8.7,0.6-8.7,4.6c0,2.4,1.6,3.6,3.5,3.6
					c2.7,0,4.4-1.7,5-3.4c0.1-0.4,0.2-0.8,0.2-1.2V21.5L159,21.5z"/>
				<path id="Shape_9_" class="st0" d="M184.7,1.8v24.8c0,1.8,0,3.9,0.2,5.3h-3.4l-0.2-3.6h-0.1c-1.1,2.3-3.7,4-7,4
					c-5,0-8.8-4.2-8.8-10.4c0-6.8,4.2-11,9.2-11c3.1,0,5.3,1.5,6.2,3.1h0.1V1.8H184.7z M180.9,19.8c0-0.5,0-1.1-0.2-1.6
					c-0.6-2.4-2.6-4.3-5.4-4.3c-3.9,0-6.2,3.4-6.2,7.9c0,4.2,2,7.6,6.1,7.6c2.5,0,4.8-1.7,5.5-4.5c0.1-0.5,0.2-1,0.2-1.6V19.8
					L180.9,19.8z"/>
				<path id="Shape_10_" class="st0" d="M193.3,5.6c0,1.3-0.9,2.3-2.4,2.3c-1.3,0-2.3-1-2.3-2.3c0-1.3,1-2.3,2.3-2.3
					C192.4,3.3,193.3,4.3,193.3,5.6z M189.2,31.9V11.4h3.7v20.5H189.2z"/>
				<path id="Shape_11_" class="st0" d="M216,21.5c0,7.6-5.3,10.9-10.2,10.9c-5.6,0-9.8-4.1-9.8-10.6c0-6.9,4.5-10.9,10.2-10.9
					C212,10.9,216,15.2,216,21.5z M199.7,21.7c0,4.5,2.6,7.9,6.2,7.9c3.6,0,6.2-3.4,6.2-8c0-3.5-1.7-7.9-6.2-7.9
					S199.7,17.8,199.7,21.7z"/>
			</g>
		</g>
	</g>
</g>
</svg>
