<?xml version="1.0" encoding="utf-8"?>
<!-- Generator: Adobe Illustrator 25.0.0, SVG Export Plug-In . SVG Version: 6.00 Build 0)  -->
<svg version="1.1" id="Layer_1" xmlns="http://www.w3.org/2000/svg" xmlns:xlink="http://www.w3.org/1999/xlink" x="0px" y="0px"
	 viewBox="0 0 219.3 100" style="enable-background:new 0 0 219.3 100;" xml:space="preserve">
<style type="text/css">
	.st0{fill-rule:evenodd;clip-rule:evenodd;fill:#00ADCB;}
</style>
<desc>Created with Sketch.</desc>
<g id="default---square-logos">
	<g id="kkbox">
		<g id="KKBOX_logo_20130820" transform="translate(1.000000, 37.000000)">
			<path id="Fill-1" class="st0" d="M152.2,27.8c-5,0-9.1-4.1-9.1-9.1c0-5,4.1-9.1,9.1-9.1c5,0,9.1,4.1,9.1,9.1
				C161.2,23.7,157.2,27.8,152.2,27.8z M152.2-0.3c-10.5,0-19,8.5-19,19c0,10.5,8.5,19,19,19c10.5,0,19-8.5,19-19
				C171.2,8.2,162.7-0.3,152.2-0.3L152.2-0.3z"/>
			<path id="Fill-2" class="st0" d="M46.2,0.1c-2.2,0-4.5,0-6.9,0c-2.9,0-4.3,0.7-6,2.1L19.6,15.6V1c0-0.5-0.4-0.8-0.8-0.8H10
				C9.5,0.1,9.1,0.5,9.1,1v36c0,0.5,0.4,0.8,0.8,0.8h8.7c0.5,0,0.8-0.4,0.8-0.8V22l14.1,14c1.4,1.1,3.2,1.7,5.4,1.7
				c0.8,0,5.8,0,6.7,0c2.2,0,1.4-1.3,1.4-1.3L29.7,19L47.3,1.4C47.3,1.4,48.4,0.1,46.2,0.1"/>
			<path id="Fill-3" class="st0" d="M86.8,0.1c-2.2,0-4.5,0-6.9,0c-3,0-4.3,0.7-6,2.1L60.4,15.4V1c0-0.5-0.4-0.8-0.8-0.8h-8.7
				C50.4,0.1,50,0.5,50,1v36c0,0.5,0.4,0.8,0.8,0.8h8.7c0.5,0,0.8-0.4,0.8-0.8V22.3L74.3,36c1.4,1.1,3.2,1.7,5.4,1.7
				c0.8,0,5.8,0,6.7,0c2.2,0,1.4-1.3,1.4-1.3L70.2,19L87.8,1.4C87.8,1.4,88.9,0.1,86.8,0.1"/>
			<path id="Fill-4" class="st0" d="M209.5,36.4l-13.9-17.5L209,1.4c0,0,1.1-1.2-1.1-1.2h-5.6c-2.8,0-4.4,0.3-5.7,1.9l-6.8,9.6
				L182.6,2c-1.4-1.7-2.9-1.8-5.7-1.8h-5.6c-2.2,0-1.1,1.2-1.1,1.2L184,18.9l-13.7,17.6c0,0-0.8,1.3,1.4,1.3h5.1
				c1.7,0,4.4,0.1,6-1.5c0,0,3.7-5.4,7.1-9.8c3.4,4.4,7.1,9.6,7.1,9.6c1.6,1.6,4.5,1.7,6.2,1.7h4.7
				C210.1,37.7,209.5,36.4,209.5,36.4"/>
			<path id="Fill-5" class="st0" d="M110.4,0.2c-3.5,0.3-6.5,1.9-9,4.3v-17.1c0-0.4-0.3-0.7-0.8-0.5l-8.9,3.3
				C91.3-9.6,91-9.1,91-8.7v45.6c0,0.4,0.4,0.8,0.8,0.8h8.8c0.4,0,0.7-0.3,0.8-0.7V20.9h0c0-0.1,0,1,0,0.9c0-5.2,3.3-10.6,9.3-12.4
				c5.1-1.5,9.5,2.2,9.5,7.4c0,5.1-4.4,10.7-9.5,11.3c-2,0.2-3.7,0.1-5-0.4v10h4.8c0,0,0,0,0,0c11.3,0,19.2-8.2,19.4-18.8
				C130.3,7.3,122.1-0.8,110.4,0.2"/>
		</g>
	</g>
</g>
</svg>
