<?xml version="1.0" encoding="utf-8"?>
<!-- Generator: Adobe Illustrator 25.0.0, SVG Export Plug-In . SVG Version: 6.00 Build 0)  -->
<svg version="1.1" id="Layer_1" xmlns="http://www.w3.org/2000/svg" xmlns:xlink="http://www.w3.org/1999/xlink" x="0px" y="0px"
	 viewBox="0 0 290 80" style="enable-background:new 0 0 290 80;" xml:space="preserve">
<style type="text/css">
	.st0{fill:#241F73;}
</style>
<desc>Created with Sketch.</desc>
<g id="white-logos">
	<g id="napster">
		<g id="napster-horz-logo" transform="translate(1.000000, 2.000000)">
			<path id="Shape" class="st0" d="M144.3,25.6c1.2,1.5,1.4,3.6,0.6,6.4l-5,17.8h-7.4l-0.1-1.9c-1.6,0.9-4.7,2.4-8.5,2.4
				c-3.4,0-5.8-0.9-7.1-2.4c-0.9-1.1-1.2-2.4-1.1-4c0.1-0.7,0.1-1.4,0.4-2.3c1.6-5.6,6.9-8.5,15.2-8.5h4.7l0.5-1.6
				c0.1-0.3,0.1-0.6,0.1-0.9c0.1-0.4-0.1-0.6-0.1-0.9c-0.4-0.6-2-0.6-3.7-0.6c-3.4,0-8.5,1.1-9.5,1.3l-1.3,0.3l1.7-6l0.5-0.1
				c0.2-0.1,5.6-1.4,11.1-1.4C138.6,23,142.5,23.3,144.3,25.6z M132.6,37.5c-5.2,0.1-7.1,1.1-7.9,3.9c-0.1,0.4-0.2,0.9-0.2,1.2
				c-0.1,0.6,0.1,0.9,0.3,1.2c0.4,0.4,1.1,0.6,2.5,0.6c2.5,0,5.1-1.2,5.9-1.6l1.5-5.4L132.6,37.5z"/>
			<path id="Shape_1_" class="st0" d="M175.3,25.9c1.9,2.3,2.1,5.9,0.7,10.7c-2.4,8.7-8.9,13.5-17.9,13.5c-2,0-3.9-0.4-5-0.8
				l-2.6,9.2h-8.6l9.9-35h6.7l0.3,1.9c1.6-0.9,4.5-2.3,8.2-2.3C169.5,23,173.2,23.3,175.3,25.9z M167.5,36.3c1-3.6,1.1-5.7,0.3-6.7
				c-0.6-0.7-1.7-0.9-3.2-0.9c-2.4,0-5.1,1.1-6,1.5L154.7,44c0.9,0.2,2.7,0.6,4.4,0.6C162,44.6,165.4,43.6,167.5,36.3z"/>
			<path id="Shape_2_" class="st0" d="M248.6,26.1c1.1,1.5,1.6,3.4,1.5,5.9c-0.1,1.4-0.4,3-0.9,4.7l-0.7,2.3h-18
				c-0.1,0.4-0.1,0.9-0.1,1.2c-0.1,1.1,0.1,2,0.6,2.5c0.9,1.1,2.9,1.3,4.4,1.3c1.7,0,4-0.3,5.9-0.6c1.9-0.3,3.2-0.6,3.3-0.6l1.3-0.3
				l-1.7,6.1l-0.6,0.1c-0.1,0.1-1.3,0.4-3.1,0.6c-1.8,0.3-4.2,0.6-6.5,0.6c-3.7,0-8.2-0.4-10.5-3.4c-1.9-2.3-2.1-5.8-0.8-10.4
				c3.3-11.7,12.4-13.4,17.5-13.4C244.1,23,246.9,24,248.6,26.1z M231.8,34h9.6c0.2-0.9,0.4-1.7,0.4-2.4c0.1-1.2-0.1-2-0.5-2.4
				c-0.4-0.6-1.3-0.9-2.6-0.9C235.3,28.3,233.2,30,231.8,34z"/>
			<path id="Shape_3_" class="st0" d="M115.2,25.4c1.1,1.4,1.3,3.4,0.6,6l-5.2,18.3H102l5.2-18.5c0.1-0.7,0.1-1.1-0.1-1.4
				c-0.4-0.5-1.6-0.6-2.8-0.6c-3.1,0-6.7,1.4-7.9,1.9l-5.2,18.6h-8.6l7.4-26.2H97l0.4,2.4c2-0.9,6.4-2.9,10.8-2.9
				C111.6,23.1,113.9,23.9,115.2,25.4z"/>
			<path id="Shape_4_" class="st0" d="M201.5,24.1l0.7,0.2l-1.6,5.7l-0.9-0.2c0,0-1.1-0.3-2.4-0.5c-1.4-0.3-3.1-0.5-4.5-0.5
				c-4,0-4.8,1.1-5,2c-0.3,1.1,0.4,1.5,2.5,2.1l0.3,0.1l2.9,0.9c0.4,0.1,1,0.4,1.7,0.6c0.6,0.3,1.4,0.7,2,1.4
				c1.3,1.2,2.1,3.1,1.3,5.9c-2.1,7.4-9.5,8.2-14.8,8.2c-3.8,0-7.8-1.1-7.9-1.1l-0.7-0.1l1.7-6l0.9,0.2c0.1,0,1.2,0.3,2.7,0.6
				c1.5,0.4,3.3,0.6,4.4,0.6c3.5,0,5-0.7,5.4-2.3c0.4-1.2-0.3-1.6-2.6-2.4l-2.7-0.9c-0.5-0.1-1.1-0.4-1.8-0.7
				c-0.7-0.4-1.4-0.8-2.1-1.4c-1.3-1.2-2.1-2.9-1.4-5.6c1.4-5,6.6-7.9,14.2-7.9C198,23,201.3,24,201.5,24.1z"/>
			<path id="Shape_5_" class="st0" d="M273.8,23.5l-1.9,6.9l-0.9-0.1c0,0-2.1-0.4-4-0.4c-2,0-3.7,0.8-4.2,1.1l-5.3,18.8h-8.6
				l7.4-26.2h6.9l0.1,1.9c1.4-1.1,3.7-2.3,6.6-2.3c1.6,0,3.1,0.3,3.1,0.3L273.8,23.5z"/>
			<path id="Shape_6_" class="st0" d="M217.9,23.5h7.4l-2.5,5.4h-6.4l-4,14.3c-0.1,0.2-0.1,0.4-0.1,0.5c0,0.2,0.1,0.3,0.1,0.4
				c0.1,0.1,0.3,0.1,0.6,0.1c0.3,0.1,0.6,0.1,0.7,0.1c0.8,0,2.2-0.2,3.4-0.4c1.2-0.2,2.2-0.4,2.2-0.4l1.3-0.3l-1.6,5.9l-0.5,0.1
				c-0.1,0.1-3.8,0.9-7.5,0.9c-2.1,0-5-0.2-6.4-2c-0.7-0.9-0.9-1.9-0.9-3.3c0.1-0.6,0.1-1.3,0.4-2.1l3.9-14h-4.6l1.5-5.4h4.7
				c0.3-0.8,1.3-3.1,1.6-5.2l8.5-1.6l-0.1,0.1C219,19.7,218.2,22.5,217.9,23.5z"/>
			<path id="Shape_7_" class="st0" d="M48.7,53.4c-2.1,2.1-4.8,3.7-7.7,4.7c-2.9-0.9-5.4-2.6-7.6-4.7H48.7z"/>
			<path id="Shape_8_" class="st0" d="M26.7,23.1c-3-2.5-6.6-4.4-10.5-5.5v23.6v0.9c0,13.7,11.1,24.8,24.9,24.8S66,55.9,66,42.1
				v-1.2V17.6c-3.9,1.1-7.5,2.9-10.5,5.5c-4.1-2.9-8.9-4.6-14.3-4.6C35.7,18.6,30.7,20.2,26.7,23.1z M26.8,15.9
				c4.2-2.2,9.1-3.4,14.3-3.4c5.2,0,10,1.3,14.2,3.4c1-0.6,2.1-1.2,3.1-1.7C53.9,10,47.8,7.4,41.1,7.4c-6.7,0-12.8,2.6-17.4,6.8
				C24.7,14.7,25.8,15.4,26.8,15.9z M17.7,11.9C23.4,5.6,31.7,1.5,41,1.5s17.6,4,23.3,10.5c2.4-0.6,5-1.1,7.6-1.1v10.5
				c4,2.5,6.7,6.9,6.7,12s-2.6,9.5-6.7,12l-0.1,0.3c-1.6,15.5-15,27.3-31,27.3S11.6,61,10,45.4c-4-2.5-6.7-7-6.7-12
				c0-5.1,2.6-9.5,6.7-12V10.9C12.7,10.9,15.3,11.3,17.7,11.9z"/>
			<path id="Shape_9_" class="st0" d="M48.8,42.1c4.2-0.5,11.1-0.4,11.1-0.4c-0.1,1.2,0,4.9-4,7.2c-0.6,0.4-2.3,0.9-3.9,1
				c-3.9,0.1-9.3,0.2-9.3,0.2C43.7,45.8,45.3,42.6,48.8,42.1z"/>
			<path id="Shape_10_" class="st0" d="M33.3,42.1c3.4,0.4,5.1,3.7,6,7.9c0,0-5.4-0.1-9.3-0.2c-1.6-0.1-3.2-0.6-3.9-1
				c-4-2.3-3.9-5.9-4-7.2C22.1,41.7,29.2,41.7,33.3,42.1z"/>
			<path id="Shape_11_" class="st0" d="M48.3,61.8c-2.1,1.3-4.6,2-7.3,2c-2.7,0-5.2-0.7-7.3-2c0,0,0.1-0.9,0.6-1.4
				c0.5-0.8,0.9-1,0.9-1c1.8,0.5,3.7,0.8,5.8,0.8c2,0,4-0.3,5.8-0.8c0,0,0.6,0.3,1.1,1.1C48.3,61.3,48.3,61.8,48.3,61.8z"/>
			<path id="Shape_12_" class="st0" d="M279.5,17.4c1.5,0,2.9,1.1,2.9,2.9s-1.4,2.9-2.9,2.9c-1.5,0-2.9-1.1-2.9-2.9
				C276.6,18.4,277.9,17.4,279.5,17.4z M279.5,22.5c1.2,0,2.1-0.9,2.1-2.2c0-1.3-0.9-2.2-2.1-2.2c-1.2,0-2.1,0.9-2.1,2.2
				C277.4,21.5,278.3,22.5,279.5,22.5z M278.4,18.6h1.2c0.8,0,1.3,0.3,1.3,0.9c0,0.6-0.4,0.9-0.9,0.9l0.9,1.4h-0.6l-0.8-1.4H279v1.4
				h-0.6V18.6z M278.9,19.9h0.6c0.4,0,0.6-0.1,0.6-0.4c0-0.4-0.4-0.4-0.6-0.4H279L278.9,19.9L278.9,19.9z"/>
		</g>
	</g>
</g>
</svg>
