<?xml version="1.0" encoding="utf-8"?>
<!-- Generator: Adobe Illustrator 25.0.0, SVG Export Plug-In . SVG Version: 6.00 Build 0)  -->
<svg version="1.1" id="Layer_1" xmlns="http://www.w3.org/2000/svg" xmlns:xlink="http://www.w3.org/1999/xlink" x="0px" y="0px"
	 viewBox="0 0 295 80" style="enable-background:new 0 0 295 80;" xml:space="preserve">
<style type="text/css">
	.st0{fill-rule:evenodd;clip-rule:evenodd;fill:#00BC52;}
</style>
<desc>Created with Sketch.</desc>
<g id="white-logos">
	<g id="saavn">
		<g id="horizontal" transform="translate(2.000000, 2.000000)">
			<path id="Logo" class="st0" d="M117.7,41.3c-2-2.1-5.7-4.1-11.3-6.2c-2.8-1-5.5-2.2-8.2-3.5c-1.2-0.6-2.3-1.5-3.1-2.5
				c-0.7-0.9-1-2.1-1-3.2c0-1.8,1-3.5,2.6-4.4c2.3-1.2,5-1.8,7.6-1.6c3.8,0.1,7.5,0.8,11,2.2c0.4,0.3,0.9,0.4,1.3,0.2
				c0.5-0.1,0.8-0.5,1-0.9l1.2-2.9c0.3-0.4,0.3-1,0.1-1.4s-0.6-0.8-1.1-0.9c-4.2-1.6-8.6-2.4-13.1-2.4c-4.5-0.3-9,0.9-12.8,3.3
				c-3,2-4.8,5.5-4.6,9.1c-0.1,1.9,0.4,3.9,1.3,5.6c1,1.7,2.4,3.1,4.1,4.2c2.9,1.7,6.1,3.2,9.3,4.3c3.3,1.1,6.4,2.7,9.3,4.6
				c1.6,1.3,2.5,3.2,2.4,5.2s-1.2,3.9-3,4.9c-2.6,1.3-5.6,2-8.5,1.8c-2.5,0-5-0.3-7.5-1c-0.9-0.2-2.3-0.7-3.3-1.1
				c-0.4-0.2-0.9-0.3-1.3-0.1c-0.4,0.2-0.8,0.6-0.9,1l-1,2.4c-0.3,0.4-0.4,0.9-0.2,1.4c0.1,0.5,0.5,0.8,1,1
				c4.2,1.7,8.6,2.4,13.1,2.2c5.9,0,10.4-1.2,13.7-3.6c3.2-2.4,5.1-6.2,4.9-10.2C120.7,46.2,119.6,43.4,117.7,41.3L117.7,41.3z
				 M232.9,61c2.5-6.5,14.4-38.5,16.9-45.1c0.6-1.5-1-1.2-1-1.2h-5.1c-0.7,0-1.3,0.4-1.5,1.1c-5.6,15.4-9.2,25.6-10.8,30.3
				c-1.2,3.1-2.1,6.3-3,9.5h-0.3c-0.4-2-1.7-6.2-4-12.8c0,0-7.8-21.9-9.7-27.1c-0.2-0.7-0.8-1.1-1.5-1.1h-5.3c0,0-1.3-0.2-0.7,1.2
				c2.5,6.6,14.4,38.5,16.9,45.1c0.2,0.6,0.6,1,1.2,1.2h6.7C232.2,62,232.7,61.5,232.9,61L232.9,61z M290.8,60.7V31.2
				c0-6-1.4-10.4-4.2-13.1c-2.8-2.7-6.2-4.1-11.8-4.1c-3,0-6,0.6-8.8,1.9c-2.5,1.2-4.6,3-6.1,5.4h-0.3c0,0-0.7-3.9-1-5.7
				c-0.1-0.6-0.7-1-1.3-0.9h-3.5c-0.3,0-0.7,0.1-0.9,0.3s-0.3,0.6-0.3,0.9v44.8c-0.1,0.3,0,0.7,0.2,1c0.2,0.3,0.6,0.4,0.9,0.4h4.7
				c0.4,0,0.7-0.1,0.9-0.4s0.3-0.7,0.2-1V37.3c0-6.1,1.2-10.5,3.5-13.2s5.9-4,10.8-4c2.7-0.3,5.4,0.8,7.2,2.8
				c1.9,2.4,2.8,5.5,2.6,8.6v29.2c0,1.6,1.1,1.5,1.1,1.5h4.7C289.6,62.1,290.8,62.3,290.8,60.7z M205.5,61.2V29.7
				c0-5.5-1.6-9.5-4.3-12s-7.4-3.7-13-3.7c-2.8,0-5.6,0.4-8.3,1.1c-2.2,0.6-4.3,1.3-6.4,2.3c-1.6,0.6-0.8,1.8-0.8,1.8l1.2,3.1
				c0,0,0.2,1.3,2.2,0.5c3.6-1.7,7.6-2.7,11.6-2.8c3.5,0,6.6,0.9,8.2,2.6c1.8,2.4,2.6,5.3,2.4,8.2v2.9l-8.5,0.3
				c-15.1,0.5-22.7,5.5-22.7,15c-0.2,3.8,1.2,7.6,4,10.3c3,2.6,6.9,3.9,10.9,3.6c3.5,0,7,0,9.3-1.1c2.9-1.3,5.5-3.4,7.6-5.9h0.6
				c0,0,0.1,3.7,0.2,5.4c0,0.5,0.4,0.9,0.8,0.9h4.1c0.2,0,0.5-0.1,0.6-0.2C205.5,61.7,205.5,61.5,205.5,61.2L205.5,61.2z M177,54.9
				c-1.6-1.5-2.5-3.7-2.3-5.9c-0.2-2.9,1.2-5.7,3.7-7.3c2.5-1.6,6.6-2.4,12.2-2.6l7.7-0.3V43c0.2,3.8-1.1,7.5-3.8,10.3
				c-3.1,2.6-7,3.9-11,3.7C181.1,57.1,178.8,56.4,177,54.9L177,54.9z M162.3,61.2V29.7c0-5.5-1.6-9.5-4.3-12
				c-2.7-2.5-7.4-3.7-13-3.7c-2.8,0-5.6,0.4-8.3,1.1c-2.2,0.6-4.3,1.3-6.4,2.3c-1.6,0.6-0.8,1.8-0.8,1.8l1.2,3.1
				c0,0,0.2,1.3,2.2,0.5c3.6-1.7,7.6-2.7,11.6-2.8c3.5,0,6.6,0.9,8.2,2.6c1.8,2.4,2.6,5.3,2.4,8.2v2.9l-8.5,0.3
				c-15.1,0.5-22.7,5.5-22.7,15c-0.2,3.8,1.2,7.6,4,10.3c3,2.6,6.9,3.9,10.9,3.6c3.5,0,7,0,9.3-1.1c2.9-1.3,5.5-3.4,7.6-5.9h0.6
				c0,0,0.1,3.7,0.2,5.4c0,0.5,0.4,0.9,0.8,0.9h4.1c0.2,0,0.5-0.1,0.6-0.2C162.3,61.7,162.3,61.5,162.3,61.2L162.3,61.2z
				 M133.8,54.9c-1.6-1.5-2.5-3.7-2.3-5.9c-0.2-2.9,1.2-5.7,3.7-7.3c2.5-1.6,6.6-2.4,12.2-2.6l7.7-0.3V43c0.2,3.8-1.1,7.5-3.8,10.3
				c-3.1,2.6-7,3.9-11,3.7C137.9,57.1,135.6,56.4,133.8,54.9L133.8,54.9z M26.6,0h23.1c7.7,0,11.5,0,15.6,1.3c4.5,1.6,8,5.2,9.7,9.6
				c1.3,4.1,1.3,7.9,1.3,15.6v23c0,7.6,0,11.4-1.3,15.6c-1.6,4.5-5.2,8-9.7,9.6c-4.1,1.3-8,1.3-15.6,1.3H26.6C19,76,15.1,76,11,74.7
				c-4.5-1.6-8-5.2-9.7-9.6C0,60.9,0,57.1,0,49.5v-23c0-7.6,0-11.4,1.3-15.6C3,6.5,6.5,2.9,11,1.3C15.1,0,19,0,26.6,0L26.6,0L26.6,0
				z M28.2,5.1h20c6.6,0,10.8,0,14.4,1.1c3.6,1.1,6.4,3.9,7.5,7.5c1.1,3.6,1.1,7.7,1.1,14.3V48c0,6.6,0,10.8-1.1,14.3
				c-1.1,3.6-3.9,6.4-7.5,7.5c-3.6,1.1-7.8,1.1-14.4,1.1h-20c-6.6,0-10.8,0-14.4-1.1c-3.6-1.1-6.4-3.9-7.5-7.5
				c-1.1-3.6-1.1-7.7-1.1-14.3V28c0-6.6,0-10.8,1.1-14.3c1.1-3.6,3.9-6.4,7.5-7.5C17.3,5.1,21.5,5.1,28.2,5.1L28.2,5.1L28.2,5.1z
				 M55.5,65.8H43c-0.5,0-0.9-0.3-1-0.7c-0.2-0.4-0.1-0.9,0.2-1.2c6.4-6.8,14.4-9.2,22-11.7c0.3-0.1,0.6,0,0.9,0.2s0.4,0.5,0.3,0.8
				v2.6c0.1,2.7-0.9,5.3-2.7,7.2C60.7,64.8,58.1,65.8,55.5,65.8z M32.1,64.5c-1.8-14.2-9.5-27.1-21.2-35.3c-0.4-0.2-0.6-0.6-0.5-1
				v-7.2c0-7.9,5.4-9.9,7.9-9.9c0.5,0,1,0.2,1.2,0.6C26.9,28,31.7,38.4,34.6,63.1c0,0.5,0.1,0.7,0.4,0c2.1-4.5,11.8-27.4,7.9-50.8
				c-0.1-0.3,0-0.6,0.2-0.9c0.2-0.2,0.5-0.4,0.8-0.4h11.6c2.7-0.1,5.3,0.9,7.2,2.8s2.9,4.5,2.7,7.2v10.2c0,0.4-0.2,0.8-0.6,1
				c-13.1,6.7-22.9,18.4-27,32.5c0,0.6-0.5,1.1-1.1,1.2h-3.5C32.4,65.8,32.2,65.5,32.1,64.5z M20.3,65.8c-6,0-10-3.7-10-10.1V55
				c0-0.3,0.1-0.6,0.4-0.8s0.6-0.3,0.9-0.2c6.1,1.9,12.5,3.7,17.3,10c0.3,0.3,0.3,0.8,0.1,1.2s-0.6,0.6-1,0.7L20.3,65.8L20.3,65.8z"
				/>
		</g>
	</g>
</g>
</svg>
