<?xml version="1.0" encoding="UTF-8"?>
<svg width="180px" height="54px" viewBox="0 0 180 54" version="1.1" xmlns="http://www.w3.org/2000/svg" xmlns:xlink="http://www.w3.org/1999/xlink">
    <title>spotify-sg</title>
    <g id="Page-1" stroke="none" stroke-width="1" fill="none" fill-rule="evenodd">
        <g id="spotify-sg" fill="#1ED760" fill-rule="nonzero">
            <path d="M26.9987143,0.0890357143 C12.1329643,0.0890357143 0.0813214286,12.1403571 0.0813214286,27.0061071 C0.0813214286,41.8725 12.1329643,53.9228571 26.9987143,53.9228571 C41.8660714,53.9228571 53.9164286,41.8725 53.9164286,27.0061071 C53.9164286,12.1413214 41.8660714,0.0903214286 26.9983929,0.0903214286 L26.9987143,0.0890357143 Z M39.3428571,38.9111786 C38.8607143,39.7018929 37.8257143,39.9526071 37.035,39.46725 C30.7150714,35.6068929 22.7590714,34.7326071 13.3894286,36.8733214 C12.4865357,37.0790357 11.5865357,36.5133214 11.3808214,35.6101071 C11.1741429,34.7068929 11.7376071,33.8068929 12.64275,33.6011786 C22.8963214,31.2586071 31.6915714,32.26725 38.7867857,36.6033214 C39.5775,37.0886786 39.8282143,38.1204643 39.3428571,38.9111786 L39.3428571,38.9111786 Z M42.6375,31.5819643 C42.03,32.5693929 40.7378571,32.8811786 39.7510714,32.2736786 C32.5157143,27.8263929 21.4865357,26.5384286 12.9285,29.1362143 C11.8186071,29.4714643 10.6463571,28.8459643 10.3095,27.738 C9.97521429,26.6281071 10.6010357,25.4581071 11.709,25.1206071 C21.4846071,22.1544643 33.6375,23.59125 41.9464286,28.6971429 C42.9332143,29.3046429 43.245,30.5967857 42.6375,31.5822857 L42.6375,31.5819643 Z M42.9203571,23.9499643 C34.245,18.7971429 19.9317857,18.3233571 11.6488929,20.83725 C10.3188214,21.2406429 8.91225,20.4897857 8.50917857,19.1597143 C8.10610714,17.829 8.85632143,16.4233929 10.1873571,16.0190357 C19.6955357,13.1326071 35.5017857,13.6902857 45.4898571,19.6196786 C46.6887857,20.3297143 47.0809286,21.8748214 46.3705714,23.0695714 C45.6634286,24.2659286 44.1141429,24.6603214 42.9216429,23.9499643 L42.9203571,23.9499643 Z M73.3146429,24.9373929 C68.6667857,23.8291071 67.8407143,23.05125 67.8407143,21.4167857 C67.8407143,19.8726429 69.2935714,18.8334643 71.4567857,18.8334643 C73.5525,18.8334643 75.6289286,19.6225714 77.8082143,21.2470714 C77.8725,21.29625 77.9560714,21.3158571 78.0364286,21.303 C78.12,21.2907857 78.1907143,21.2461071 78.2389286,21.1789286 L80.5082143,17.9800714 C80.6014286,17.8482857 80.5757143,17.6666786 80.4503571,17.5660714 C77.8564286,15.4854643 74.9378571,14.4739286 71.5242857,14.4739286 C66.5067857,14.4739286 63,17.4853929 63,21.7941429 C63,26.4146786 66.0246429,28.05075 71.2510714,29.3136429 C75.6964286,30.3380357 76.4485714,31.19625 76.4485714,32.7301071 C76.4485714,34.4304643 74.9314286,35.4879643 72.4885714,35.4879643 C69.7757143,35.4879643 67.5610714,34.5718929 65.0860714,32.4311786 C65.025,32.3765357 64.9414286,32.3540357 64.8642857,32.35725 C64.7807143,32.3636786 64.7067857,32.40225 64.6553571,32.4633214 L62.1096429,35.4911786 C62.0035714,35.61975 62.0164286,35.8061786 62.1385714,35.9154643 C65.0185714,38.4868929 68.5607143,39.8433214 72.3857143,39.8433214 C77.7921429,39.8433214 81.2861015,36.8893929 81.2861015,32.3154643 C81.2957143,28.4560714 78.9846429,26.3185714 73.3242857,24.9415714 L73.3146429,24.9373929 Z M93.5196429,20.3538214 C91.1764286,20.3538214 89.2542857,21.2769643 87.6664286,23.1685714 L87.6664286,21.0394286 C87.6664286,20.8713214 87.5314286,20.7343929 87.3642857,20.7343929 L83.2017857,20.7343929 C83.0346429,20.7343929 82.8996429,20.8713214 82.8996429,21.0394286 L82.8996429,44.6968929 C82.8996429,44.8640357 83.0346429,45.00225 83.2017857,45.00225 L87.3642857,45.00225 C87.5314286,45.00225 87.6664286,44.8640357 87.6664286,44.6968929 L87.6664286,37.2301071 C89.2542857,39.0076071 91.1764286,39.8786786 93.5196429,39.8786786 C97.875,39.8786786 102.285007,36.5261786 102.285007,30.1172143 C102.291429,23.7069643 97.8814286,20.3535 93.5228571,20.3535 L93.5196429,20.3538214 Z M97.4442857,30.1172143 C97.4442857,33.3793929 95.4353571,35.6583214 92.5553571,35.6583214 C89.7107143,35.6583214 87.5635714,33.2765357 87.5635714,30.1172143 C87.5635714,26.9575714 89.7107143,24.5764286 92.5553571,24.5764286 C95.3871429,24.5761071 97.4442857,26.9058214 97.4442857,30.1168929 L97.4442857,30.1172143 Z M113.583214,20.3538214 C107.974286,20.3538214 103.580357,24.6725357 103.580357,30.1869643 C103.580357,35.64225 107.945357,39.9140357 113.515714,39.9140357 C119.143929,39.9140357 123.550714,35.6101071 123.550714,30.1172143 C123.550714,24.6429643 119.172857,20.3544643 113.583214,20.3544643 L113.583214,20.3538214 L113.583214,20.3538214 Z M113.583214,35.6904643 C110.600357,35.6904643 108.350357,33.2926071 108.350357,30.1156071 C108.350357,26.9241429 110.523214,24.60825 113.515714,24.60825 C116.517857,24.60825 118.780714,27.0051429 118.780714,30.1853571 C118.780714,33.3761786 116.595,35.6904643 113.583214,35.6904643 L113.583214,35.6904643 Z M135.527143,20.7343929 L130.946786,20.7343929 L130.946786,16.0524643 C130.946786,15.8846786 130.811786,15.74775 130.644643,15.74775 L126.482143,15.74775 C126.315,15.74775 126.176786,15.8846786 126.176786,16.0524643 L126.176786,20.7343929 L124.1775,20.7343929 C124.010357,20.7343929 123.875357,20.8713214 123.875357,21.0394286 L123.875357,24.6159643 C123.875357,24.78375 124.010357,24.921 124.1775,24.921 L126.176786,24.921 L126.176786,34.1765357 C126.176786,37.91475 128.037857,39.8111786 131.711786,39.8111786 C133.203214,39.8111786 134.440714,39.5026071 135.6075,38.8404643 C135.703929,38.7890357 135.761786,38.6861786 135.761786,38.5768929 L135.761786,35.16975 C135.761786,35.0668929 135.707143,34.96725 135.617143,34.9126071 C135.527143,34.85475 135.414643,34.8515357 135.321429,34.89975 C134.521071,35.3015357 133.746429,35.4879643 132.878571,35.4879643 C131.544643,35.4879643 130.946786,34.8804643 130.946786,33.5240357 L130.946786,24.9226071 L135.527143,24.9226071 C135.694286,24.9226071 135.829286,24.7856786 135.829286,24.6175714 L135.829286,21.0413571 C135.835714,20.87325 135.700714,20.7363214 135.530357,20.7363214 L135.527143,20.7343929 L135.527143,20.7343929 Z M151.482857,20.7527143 L151.482857,20.1776786 C151.482857,18.486 152.132143,17.7316071 153.585,17.7316071 C154.452857,17.7316071 155.150357,17.9038929 155.931429,18.16425 C156.027857,18.1944643 156.1275,18.1793571 156.204643,18.1218214 C156.285,18.0642857 156.33,17.9720357 156.33,17.8743214 L156.33,14.3675357 C156.33,14.2335 156.246429,14.1148929 156.114643,14.0753571 C155.291786,13.8301071 154.2375,13.5784286 152.656071,13.5784286 C148.815,13.5784286 146.780357,15.7429286 146.780357,19.8356786 L146.780357,20.7163929 L144.781071,20.7163929 C144.613929,20.7163929 144.475714,20.8533214 144.475714,21.0211071 L144.475714,24.6159643 C144.475714,24.78375 144.613929,24.921 144.781071,24.921 L146.780357,24.921 L146.780357,39.1940357 C146.780357,39.3643929 146.918571,39.4993929 147.085714,39.4993929 L151.245,39.4993929 C151.415357,39.4993929 151.550357,39.3643929 151.550357,39.1940357 L151.550357,24.9219643 L155.436429,24.9219643 L161.389286,39.1940357 C160.714286,40.6918929 160.048929,40.9908214 159.1425,40.9908214 C158.409643,40.9908214 157.635,40.77225 156.8475,40.3383214 C156.773571,40.29975 156.683571,40.2933214 156.606429,40.3158214 C156.526071,40.34475 156.458571,40.4026071 156.426429,40.47975 L155.015357,43.5751071 C154.947857,43.7229643 155.005714,43.8933214 155.147143,43.9704643 C156.619286,44.7676071 157.946786,45.1083214 159.589286,45.1083214 C162.662143,45.1083214 164.3625,43.67475 165.857143,39.8240357 L173.076429,21.1692857 C173.115,21.0754286 173.102143,20.9693571 173.044286,20.8861071 C172.989643,20.8035 172.896429,20.7536786 172.796786,20.7536786 L168.463929,20.7536786 C168.332143,20.7536786 168.216429,20.8362857 168.174643,20.9581071 L163.735714,33.6333214 L158.875714,20.94975 C158.830714,20.8317857 158.718214,20.7536786 158.592857,20.7536786 L151.482857,20.7536786 L151.482857,20.7527143 L151.482857,20.7527143 Z M142.232143,20.7343929 L138.069643,20.7343929 C137.9025,20.7343929 137.764286,20.8713214 137.764286,21.0394286 L137.764286,39.1940357 C137.764286,39.3643929 137.9025,39.4993929 138.069643,39.4993929 L142.232143,39.4993929 C142.399286,39.4993929 142.5375,39.3643929 142.5375,39.1940357 L142.5375,21.0407143 C142.5375,20.8726071 142.4025,20.7356786 142.232143,20.7356786 L142.232143,20.7343929 Z M140.175,12.4675714 C138.526071,12.4675714 137.188929,13.8021429 137.188929,15.45075 C137.188929,17.1003214 138.526071,18.4365 140.175,18.4365 C141.823929,18.4365 143.157857,17.1003214 143.157857,15.45075 C143.157857,13.8024643 141.820714,12.4675714 140.175,12.4675714 Z M176.631429,26.5718571 C174.985714,26.5718571 173.703214,25.2491786 173.703214,23.643 C173.703214,22.0368214 175.001786,20.6990357 176.6475,20.6990357 C178.293214,20.6990357 179.575714,22.0213929 179.575714,23.6262857 C179.575714,25.2324643 178.277143,26.5718571 176.631429,26.5718571 Z M176.6475,20.99025 C175.146429,20.99025 174.011786,22.18275 174.011786,23.643 C174.011786,25.1026071 175.14,26.2790357 176.631429,26.2790357 C178.1325,26.2790357 179.267143,25.0875 179.267143,23.6262857 C179.267143,22.1666786 178.138929,20.99025 176.6475,20.99025 L176.6475,20.99025 Z M177.296786,23.9274643 L178.126071,25.0871786 L177.425357,25.0871786 L176.679643,24.02325 L176.04,24.02325 L176.04,25.0871786 L175.455,25.0871786 L175.455,22.0130357 L176.824286,22.0130357 C177.541071,22.0130357 178.010357,22.3785 178.010357,22.9937143 C178.013571,23.4977143 177.721071,23.8056429 177.3,23.9274643 L177.296786,23.9274643 Z M176.801786,22.5405 L176.04,22.5405 L176.04,23.5128214 L176.801786,23.5128214 C177.181071,23.5128214 177.409286,23.3267143 177.409286,23.0261786 C177.409286,22.7098929 177.181071,22.5405 176.801786,22.5405 L176.801786,22.5405 Z" id="Shape"></path>
        </g>
    </g>
</svg>