<?xml version="1.0" encoding="UTF-8"?>
<svg width="220px" height="30px" viewBox="0 0 220 30" version="1.1" xmlns="http://www.w3.org/2000/svg" xmlns:xlink="http://www.w3.org/1999/xlink">
    <title>tidal</title>
    <g id="Page-1" stroke="none" stroke-width="1" fill="none" fill-rule="evenodd">
        <g id="Desktop-Sell-Your-Music-1920" transform="translate(-519.000000, -2076.000000)" fill="#080808">
            <g id="Store-Guide" transform="translate(140.000000, 1631.000000)">
                <g id="Tidal" transform="translate(331.000000, 360.000000)">
                    <path d="M77.1169098,92.2781829 L69.8387268,85 L62.5591512,92.2795756 L69.8387268,99.5591512 L77.1169098,92.2795756 L84.3978781,99.5605439 L91.676061,92.2795756 L84.3978781,85 L77.1169098,92.2781829 Z M48,92.2795756 L55.2767902,99.5605439 L62.5591512,92.2795756 L55.2767902,85 L48,92.2795756 Z M69.8387268,114.119695 L77.1169098,106.837334 L69.8387268,99.5591512 L62.5591512,106.837334 L69.8387268,114.119695 Z M220.33389,104.195407 L224.080219,94.4674871 L227.790337,104.195407 L220.33389,104.195407 Z M221.247493,88.654411 L210.902613,113.52641 L216.9803,113.52641 L218.811683,108.617188 L229.298617,108.617188 L231.113289,113.52641 L237.359491,113.52641 L227.112099,88.654411 L221.247493,88.654411 Z M185.877418,108.650613 L182.352527,108.650613 L182.35392,93.4981768 L186.011116,93.4981768 C186.256229,93.4801221 186.502735,93.4758939 186.74924,93.48425 C190.761572,93.6165553 193.906259,96.9771093 193.775347,100.990834 C193.775347,105.693938 190.611162,108.650613 185.877418,108.650613 L185.877418,108.650613 Z M186.044541,88.654411 L176.840271,88.654411 L176.840271,113.52641 L186.380178,113.52641 C192.967588,113.52641 199.588423,109.291249 199.588423,101.021473 C199.588423,92.2489365 192.835283,88.654411 186.044541,88.654411 L186.044541,88.654411 Z M258.174592,108.617188 L258.174592,88.654411 L252.495214,88.654411 L252.495214,113.527803 L268,113.527803 L268,108.617188 L258.174592,108.617188 Z M152.250988,113.52641 L157.931758,113.52641 L157.931758,88.6558037 L152.250988,88.6558037 L152.250988,113.52641 Z M115.09688,93.4967842 L122.401524,93.4967842 L122.401524,113.52641 L128.048871,113.52641 L128.048871,93.4967842 L135.350729,93.4967842 L135.350729,88.654411 L115.09688,88.654411 L115.09688,93.4967842 Z" id="tidal"></path>
                </g>
            </g>
        </g>
    </g>
</svg>