<?xml version="1.0" encoding="UTF-8"?>
<svg width="92px" height="12px" viewBox="0 0 92 12" version="1.1" xmlns="http://www.w3.org/2000/svg" xmlns:xlink="http://www.w3.org/1999/xlink">
    <!-- Generator: Sketch 64 (93537) - https://sketch.com -->
    <title>Tidal</title>
    <desc>Created with Sketch.</desc>
    <g id="Page-1" stroke="none" stroke-width="1" fill="none" fill-rule="evenodd">
        <g id="Desktop-Login-1920" transform="translate(-891.000000, -659.000000)" fill="#FFFFFF">
            <g id="Logos" transform="translate(230.000000, 653.000000)">
                <path d="M673.176162,8.99928261 L670.132558,6 L667.088372,8.99985652 L670.132558,11.999713 L673.176162,8.99985652 L676.220931,12.000287 L679.264535,8.99985652 L676.220931,6 L673.176162,8.99928261 Z M661,8.99985652 L664.043021,12.000287 L667.088372,8.99985652 L664.043021,6 L661,8.99985652 Z M670.132558,18 L673.176162,14.9989956 L670.132558,11.999713 L667.088372,14.9989956 L670.132558,18 Z M733.0669,13.9102779 L734.633546,9.90147783 L736.18505,13.9102779 L733.0669,13.9102779 Z M733.448952,7.50595437 L729.122911,17.755512 L731.664489,17.755512 L732.43034,15.7324597 L736.815785,15.7324597 L737.574648,17.755512 L740.186696,17.755512 L735.901423,7.50595437 L733.448952,7.50595437 Z M718.657829,15.7462337 L717.183784,15.7462337 L717.184366,9.50203262 L718.713739,9.50203262 C718.816241,9.4945924 718.919325,9.49284997 719.02241,9.49629346 C720.700294,9.55081544 722.015345,10.9356736 721.9606,12.5896982 C721.9606,14.527811 720.637395,15.7462337 718.657829,15.7462337 L718.657829,15.7462337 Z M718.727717,7.50595437 L714.878659,7.50595437 L714.878659,17.755512 L718.868075,17.755512 C721.62281,17.755512 724.391522,16.0102348 724.391522,12.6023244 C724.391522,8.98723038 721.567482,7.50595437 718.727717,7.50595437 L718.727717,7.50595437 Z M748.891193,15.7324597 L748.891193,7.50595437 L746.51618,7.50595437 L746.51618,17.7560859 L753,17.7560859 L753,15.7324597 L748.891193,15.7324597 Z M704.595868,17.755512 L706.971463,17.755512 L706.971463,7.50652829 L704.595868,7.50652829 L704.595868,17.755512 Z M689.058695,9.5014587 L692.113365,9.5014587 L692.113365,17.755512 L694.474982,17.755512 L694.474982,9.5014587 L697.528487,9.5014587 L697.528487,7.50595437 L689.058695,7.50595437 L689.058695,9.5014587 Z" id="Tidal"></path>
            </g>
        </g>
    </g>
</svg>