<svg xmlns="http://www.w3.org/2000/svg" width="220.015" height="64.108" viewBox="0 0 220.015 64.108"><defs><style>.a{fill:#ff004f;}.b{fill:#00f2ea;}</style></defs><path class="a" d="M72.662,32.232a25.179,25.179,0,0,0,14.687,4.7V26.4a14.874,14.874,0,0,1-3.084-.323v8.291a25.183,25.183,0,0,1-14.687-4.7v21.5A19.485,19.485,0,0,1,39.253,67.341,19.483,19.483,0,0,0,72.662,53.728v-21.5Zm3.8-10.627a14.678,14.678,0,0,1-3.8-8.6V11.655H69.739a14.747,14.747,0,0,0,6.728,9.95ZM46.058,59.089a8.912,8.912,0,0,1,9.8-13.881V34.44a19.658,19.658,0,0,0-3.083-.178v8.382a8.909,8.909,0,0,0-6.713,16.445Z" transform="translate(-30.617 -9.091)"/><path d="M49.895,29.668a25.184,25.184,0,0,0,14.687,4.7V26.073a14.744,14.744,0,0,1-7.8-4.468,14.747,14.747,0,0,1-6.728-9.95H42.379V53.728a8.913,8.913,0,0,1-16,5.362,8.91,8.91,0,0,1,6.714-16.445V34.262A19.468,19.468,0,0,0,19.57,67.341,19.485,19.485,0,0,0,49.895,51.164v-21.5Z" transform="translate(-10.934 -9.091)"/><path class="b" d="M53.648,16.983V14.741a14.69,14.69,0,0,1-7.8-2.227A14.731,14.731,0,0,0,53.648,16.983ZM39.122,2.564q-.105-.6-.161-1.209V0H28.36V42.073A8.915,8.915,0,0,1,15.44,50a8.913,8.913,0,0,0,16-5.362V2.564ZM22.154,25.171V22.785a19.676,19.676,0,0,0-2.673-.181A19.469,19.469,0,0,0,8.637,58.25,19.468,19.468,0,0,1,22.154,25.171Z"/><path class="a" d="M794.681,141.627a13.827,13.827,0,1,0,0-27.652h-2.1a13.827,13.827,0,1,1,0,27.652Z" transform="translate(-618.201 -88.899)"/><path class="b" d="M734.854,113.975h-2.1a13.827,13.827,0,1,0,0,27.652h2.1a13.827,13.827,0,1,1,0-27.652Z" transform="translate(-560.664 -88.899)"/><path d="M310.062,85.572V92.58h8.209v26.7h8.212V92.769h6.682l2.291-7.2H310.062Zm67.211,0V92.58h8.209v26.7h8.212V92.769h6.682l2.291-7.2H377.273Zm-40.287,3.977a4.009,4.009,0,1,1,4.006,3.977A3.991,3.991,0,0,1,336.986,89.549Zm0,6.819H345v22.916h-8.017Zm11.454-10.8v33.712h8.02v-8.711l2.482-2.275,7.827,11.175h8.592L364.1,103.186l10.12-9.85h-9.737l-8.018,7.954V85.572Zm86.494,0v33.712h8.021v-8.711l2.481-2.275,7.83,11.175h8.593l-11.266-16.288,10.12-9.85h-9.737l-8.02,7.954V85.572Z" transform="translate(-241.844 -66.745)"/><path d="M742.487,141.627a13.827,13.827,0,1,0,0-27.652h-.19a13.827,13.827,0,1,0,0,27.652ZM735.614,127.8a6.779,6.779,0,1,1,6.78,6.724A6.751,6.751,0,0,1,735.614,127.8Z" transform="translate(-568.108 -88.899)"/></svg>