<?xml version="1.0" encoding="UTF-8"?>
<svg width="150px" height="38px" viewBox="0 0 150 38" version="1.1" xmlns="http://www.w3.org/2000/svg" xmlns:xlink="http://www.w3.org/1999/xlink">
    <title>vevo</title>
    <g id="Page-1" stroke="none" stroke-width="1" fill="none" fill-rule="evenodd">
        <g id="Desktop-Sell-Your-Music-1920" transform="translate(-885.000000, -2072.000000)" fill="#080808">
            <g id="Store-Guide" transform="translate(140.000000, 1631.000000)">
                <g id="Vevo" transform="translate(662.000000, 360.000000)">
                    <path d="M176.938843,118.477925 L156.067825,82.1013475 L168.359249,82.1013475 L176.945264,98.6376149 L185.53128,82.1013475 L197.822703,82.1013475 L176.938843,118.477925 Z M103.871017,118.477925 L83,82.1013475 L95.2930291,82.1013475 L103.877439,98.6376149 L112.463454,82.1013475 L124.756483,82.1013475 L103.871017,118.477925 Z M140.40493,89.817202 C144.054147,89.8605495 147.144663,92.5159851 147.74029,96.1154328 L133.056726,96.1154328 C134.036059,92.1804433 136.64333,89.8188075 140.40493,89.8188075 L140.40493,89.817202 Z M158.673492,99.8962978 C158.843671,89.6357847 150.667048,81.1766009 140.40493,81 C130.144417,81.1766009 121.967794,89.6357847 122.137973,99.8962978 C122.006326,110.200158 130.251983,118.659342 140.554238,118.79099 C140.610429,118.792596 140.665015,118.792596 140.719601,118.792596 C148.411373,119.01736 155.327707,114.139964 157.700581,106.820659 L146.703161,106.820659 C145.349755,108.755242 143.074815,109.834113 140.719601,109.655906 C136.46994,109.655906 133.761525,106.732359 132.912235,102.726729 L158.466387,102.726729 C158.602851,101.790744 158.671886,100.845126 158.673492,99.8979033 L158.673492,99.8962978 Z M214.103702,108.715105 C209.524922,108.666941 205.851623,104.913369 205.899787,100.332984 C205.901392,100.186887 205.907814,100.042395 205.917447,99.8962978 C205.626858,95.3239396 209.099474,91.3841337 213.671833,91.093545 C213.816324,91.0855177 213.960816,91.0790958 214.103702,91.0774903 C218.684088,91.1272597 222.357387,94.8808318 222.309223,99.4612174 C222.307617,99.605709 222.301196,99.7518061 222.291563,99.8962978 C222.583757,104.467051 219.114352,108.410067 214.541994,108.700656 C214.395896,108.710289 214.249799,108.715105 214.103702,108.716711 L214.103702,108.715105 Z M214.103702,81 C203.668194,81 195.207404,89.4607892 195.207404,99.8962978 C195.207404,110.333412 203.666588,118.792596 214.103702,118.792596 C224.539211,118.792596 233,110.333412 233,99.8962978 C233,89.4607892 224.539211,81 214.103702,81 L214.103702,81 Z" id="vevo"></path>
                </g>
            </g>
        </g>
    </g>
</svg>