<?xml version="1.0" encoding="utf-8"?>
<!-- Generator: Adobe Illustrator 25.0.0, SVG Export Plug-In . SVG Version: 6.00 Build 0)  -->
<svg version="1.1" id="Layer_1" xmlns="http://www.w3.org/2000/svg" xmlns:xlink="http://www.w3.org/1999/xlink" x="0px" y="0px"
	 viewBox="0 0 550 255.1" style="enable-background:new 0 0 550 255.1;" xml:space="preserve">
<style type="text/css">
	.st0{fill:#FF0000;}
	.st1{fill:#282828;}
</style>
<path class="st0" d="M174.5,86.5c-2-7.3-7.7-13.1-15.1-15.1c-13.3-3.6-66.7-3.6-66.7-3.6s-53.4,0-66.7,3.6
	c-7.3,2-13.1,7.7-15.1,15.1c-3.6,13.3-3.6,41.1-3.6,41.1s0,27.8,3.6,41.1c2,7.3,7.7,13.1,15.1,15.1c13.3,3.6,66.7,3.6,66.7,3.6
	s53.4,0,66.7-3.6c7.3-2,13.1-7.7,15.1-15.1c3.6-13.3,3.6-41.1,3.6-41.1S178.1,99.8,174.5,86.5z M75.6,153.2v-51.2l44.4,25.6
	L75.6,153.2z"/>
<g>
	<g>
		<path class="st1" d="M255.2,176.5c-3.4-2.3-5.8-5.8-7.2-10.6c-1.4-4.8-2.1-11.2-2.1-19.2v-10.9c0-8.1,0.8-14.5,2.4-19.4
			c1.6-4.9,4.2-8.4,7.6-10.7c3.5-2.2,8-3.4,13.6-3.4c5.5,0,10,1.1,13.3,3.4c3.3,2.3,5.8,5.8,7.3,10.7c1.5,4.8,2.3,11.3,2.3,19.4
			v10.9c0,8-0.8,14.4-2.3,19.2c-1.5,4.8-3.9,8.4-7.3,10.6c-3.4,2.2-8,3.4-13.7,3.4C263.2,180,258.5,178.8,255.2,176.5z M274.1,164.8
			c0.9-2.4,1.4-6.4,1.4-12v-23.3c0-5.4-0.5-9.3-1.4-11.8c-0.9-2.5-2.6-3.7-4.9-3.7c-2.3,0-3.9,1.2-4.8,3.7
			c-0.9,2.5-1.4,6.4-1.4,11.8v23.3c0,5.5,0.4,9.5,1.3,12c0.9,2.4,2.5,3.7,4.9,3.7C271.5,168.5,273.1,167.3,274.1,164.8z"/>
		<path class="st1" d="M514.5,146.9v3.8c0,4.8,0.1,8.4,0.4,10.8c0.3,2.4,0.9,4.2,1.8,5.3c0.9,1.1,2.3,1.6,4.2,1.6
			c2.5,0,4.3-1,5.2-2.9c0.9-2,1.4-5.2,1.5-9.8l14.5,0.9c0.1,0.7,0.1,1.5,0.1,2.7c0,6.9-1.9,12.1-5.7,15.5c-3.8,3.4-9.1,5.1-16.1,5.1
			c-8.3,0-14.1-2.6-17.5-7.8c-3.3-5.2-5-13.3-5-24.2v-13.1c0-11.2,1.7-19.4,5.2-24.6c3.5-5.2,9.4-7.8,17.8-7.8
			c5.8,0,10.2,1.1,13.3,3.2c3.1,2.1,5.3,5.4,6.5,9.9c1.3,4.5,1.9,10.7,1.9,18.6v12.8H514.5z M516.6,115.4c-0.9,1.1-1.4,2.8-1.7,5.2
			c-0.3,2.4-0.4,6-0.4,10.9v5.4h12.3v-5.4c0-4.8-0.2-8.4-0.5-10.9c-0.3-2.5-0.9-4.2-1.8-5.3c-0.9-1-2.2-1.5-4-1.5
			C518.8,113.8,517.5,114.4,516.6,115.4z"/>
		<path class="st1" d="M214.1,145.5L195,76.3h16.7l6.7,31.4c1.7,7.7,3,14.3,3.8,19.8h0.5c0.6-3.9,1.8-10.5,3.8-19.7l7-31.5h16.7
			l-19.4,69.2v33.2h-16.6V145.5z"/>
		<path class="st1" d="M346.9,103.9v74.9h-13.2l-1.5-9.2h-0.4c-3.6,6.9-9,10.4-16.1,10.4c-5,0-8.6-1.6-11-4.9
			c-2.4-3.3-3.5-8.3-3.5-15.3v-55.9h16.9v54.9c0,3.3,0.4,5.7,1.1,7.1c0.7,1.4,2,2.1,3.7,2.1c1.5,0,2.9-0.4,4.2-1.3
			c1.3-0.9,2.3-2,3-3.4v-59.5H346.9z"/>
		<path class="st1" d="M433.3,103.9v74.9h-13.2l-1.5-9.2h-0.4c-3.6,6.9-9,10.4-16.1,10.4c-5,0-8.6-1.6-11-4.9
			c-2.4-3.3-3.5-8.3-3.5-15.3v-55.9h16.9v54.9c0,3.3,0.4,5.7,1.1,7.1c0.7,1.4,2,2.1,3.7,2.1c1.5,0,2.9-0.4,4.2-1.3
			c1.3-0.9,2.3-2,3-3.4v-59.5H433.3z"/>
		<path class="st1" d="M392.7,89.8h-16.7v88.9h-16.5V89.8h-16.7V76.3h49.9V89.8z"/>
		<path class="st1" d="M489.1,115.8c-1-4.7-2.7-8.1-4.9-10.3c-2.3-2.1-5.4-3.2-9.4-3.2c-3.1,0-6,0.9-8.7,2.6
			c-2.7,1.8-4.8,4.1-6.2,6.9h-0.1l0-39.4h-16.2v106.2h13.9l1.7-7.1h0.4c1.3,2.5,3.3,4.5,5.9,6c2.6,1.5,5.5,2.2,8.7,2.2
			c5.7,0,9.9-2.6,12.6-7.9c2.7-5.3,4-13.5,4-24.6v-11.8C490.6,127.1,490.1,120.6,489.1,115.8z M473.6,146.4c0,5.5-0.2,9.7-0.7,12.8
			c-0.4,3.1-1.2,5.3-2.3,6.6c-1.1,1.3-2.5,2-4.3,2c-1.4,0-2.7-0.3-3.8-1c-1.2-0.7-2.1-1.6-2.9-2.9v-42.5c0.6-2,1.5-3.7,2.9-5
			c1.4-1.3,2.9-2,4.5-2c1.7,0,3,0.7,4,2c0.9,1.3,1.6,3.6,2,6.8c0.4,3.2,0.5,7.7,0.5,13.6V146.4z"/>
	</g>
</g>
</svg>
