<?xml version="1.0" encoding="UTF-8"?>
<svg width="103px" height="15px" viewBox="0 0 103 15" version="1.1" xmlns="http://www.w3.org/2000/svg" xmlns:xlink="http://www.w3.org/1999/xlink">
    <!-- Generator: Sketch 64 (93537) - https://sketch.com -->
    <title>Group</title>
    <desc>Created with Sketch.</desc>
    <defs>
        <rect id="path-1" x="0" y="0" width="103" height="15"></rect>
    </defs>
    <g id="Page-1" stroke="none" stroke-width="1" fill="none" fill-rule="evenodd">
        <g id="Desktop-Login-1920" transform="translate(-749.000000, -657.000000)">
            <g id="Logos" transform="translate(230.000000, 653.000000)">
                <g id="Group" transform="translate(519.000000, 4.000000)">
                    <mask id="mask-2" fill="white">
                        <use xlink:href="#path-1"></use>
                    </mask>
                    <g id="Rectangle"></g>
                    <path d="M101.240893,10.6052841 L101.240893,11.6602029 C101.240893,13.1348038 99.7290152,13.1327262 99.6414227,11.6929257 C99.494744,10.0614633 99.4838598,8.42117109 99.6092881,6.78815056 C100.120849,5.05955885 101.240893,5.86048686 101.239857,6.75802486 L101.239857,8.04044461 L102.871462,7.9121507 L102.871462,6.85411545 C102.871462,6.05214862 102.806674,4.32147928 100.376371,4.32147928 C98.5529948,4.32147928 97.5936234,5.82880294 97.5936234,8.07212854 L97.5936234,10.8608331 C97.5936234,12.5281346 98.232686,14.0993455 100.44064,14.0993455 C102.326211,14.0993455 103,12.5265764 103,10.6052841 L101.240893,10.6052841 Z M89.4387074,6.76114131 C89.4387074,5.38263098 91.2527538,5.53429828 91.2527538,6.5362374 L91.2760772,7.56830223 L92.9082007,7.56830223 C92.9558842,6.77464594 93.0030494,4.37082309 90.4607929,4.37082309 C88.3497612,4.37082309 87.7739311,5.71713009 87.7739311,6.91904152 C87.7739311,8.12199176 88.3813775,8.97070536 90.1088679,10.3170124 C91.5803187,11.0872953 91.6440695,12.8496485 90.4291767,12.8496485 C89.947677,12.8813325 89.5325195,12.5151494 89.5014215,12.0326189 C89.4988301,11.9952214 89.4988301,11.957824 89.5014215,11.9199072 L89.5014215,11.0545725 L87.7744494,11.0545725 L87.7744494,12.0482011 C87.7744494,12.9135358 88.3502795,14.2302365 90.3659442,14.2302365 C92.3816089,14.2302365 93.0849406,13.1072752 93.0849406,11.3766058 C93.0849406,9.64593649 89.4387074,7.94902871 89.4387074,6.76114131 L89.4387074,6.76114131 Z M95.2835649,0.764050002 C94.6346546,0.765608227 94.1090994,1.29176911 94.1075445,1.94206863 L94.1075445,2.23085979 C94.1090994,2.88063991 94.6346546,3.40783961 95.2835649,3.40939783 C95.9319569,3.4073202 96.4575121,2.88063991 96.459067,2.23085979 L96.459067,1.94206863 C96.4575121,1.29176911 95.9324752,0.765608227 95.2835649,0.764050002 L95.2835649,0.764050002 Z M94.2987968,14.0723363 L96.1698561,14.0723363 L96.1698561,4.52716507 L94.2987968,4.52716507 L94.2987968,14.0723363 Z M84.5091658,12.0637834 C84.1722715,12.6403269 82.9739643,13.1218186 82.9739643,11.9676928 L82.9739643,4.52716507 L80.9603728,4.52716507 L80.9603728,12.2570034 C80.9603728,13.8915821 83.1678081,15.3339797 84.7030097,12.8802936 L85.0393857,14.0723363 L86.5263854,14.0723363 L86.5263854,4.52716507 L84.5091658,4.52716507 L84.5091658,12.0637834 Z M74.6998395,11.3418055 L72.7567366,1.06426815 L69.8755126,1.06426815 L69.8755126,14.0588317 L71.7470902,14.0588317 L71.7470902,3.5044496 L73.8104384,14.0583123 L75.5374106,14.0583123 L77.6961258,3.26396343 L77.6961258,14.0723363 L79.5195016,14.0723363 L79.5195016,1.06426815 L76.5465387,1.06426815 L74.6998395,11.3418055 Z M65.058442,8.67308425 L63.5149476,8.67308425 L63.5149476,7.99785311 C63.5066549,7.54077357 63.5237587,7.08317463 63.5667775,6.62765331 C63.579735,6.39547768 63.6533335,6.17109318 63.780835,5.97683438 C63.9057451,5.83347761 64.0912961,5.76024101 64.2794386,5.77842031 C64.4660263,5.76335746 64.6484675,5.8329582 64.7764873,5.96904325 C64.9070987,6.16486028 64.9838069,6.39236123 64.997801,6.62765331 C65.0454845,7.08265522 65.0656982,7.54077357 65.058442,7.99785311 L65.058442,8.67308425 Z M65.9882703,4.74791371 C65.485002,4.45133142 64.9050255,4.31264933 64.3219391,4.34848852 C63.2708288,4.34848852 62.529143,4.66948302 62.0974,5.32030195 C61.6656569,5.97112088 61.4479713,6.99799162 61.4479713,8.40870529 L61.4479713,10.0505558 C61.4479713,11.4217944 61.6552909,12.429447 62.0740765,13.0839018 C62.4907889,13.7383566 63.2200355,14.065584 64.2602616,14.065584 C64.9863984,14.1107725 65.7026876,13.8801551 66.2660786,13.4194397 C66.7734933,12.9052253 67.0331611,12.1951937 66.9771848,11.4737352 C66.979258,11.3605042 66.974075,11.2477925 66.9631907,11.1356003 L65.1429247,11.0317185 C65.158992,11.449323 65.0942046,11.8658887 64.9521907,12.259081 C64.8345368,12.5058001 64.5753873,12.6527927 64.3027621,12.6273417 C64.1073634,12.6413657 63.9166293,12.5644932 63.7844631,12.4190588 C63.6517786,12.2248 63.5750703,11.9972991 63.564186,11.7614876 C63.5216855,11.3101215 63.5040634,10.8571973 63.5123561,10.404273 L63.5123561,9.92693653 L67.0461185,9.92693653 L67.0461185,8.31728938 C67.0678871,7.53402126 66.9880691,6.75127255 66.8082193,5.98826137 C66.6921203,5.48962914 66.4008363,5.05020949 65.9882703,4.74791371 L65.9882703,4.74791371 Z M58.3920806,9.86252987 C58.4008917,10.4006371 58.3723852,10.9392638 58.3070796,11.4732158 C58.2858293,11.7687593 58.1883891,12.054434 58.0246066,12.3016725 C57.8955502,12.4632086 57.6970417,12.5546245 57.4907587,12.5463139 C57.3217932,12.5473527 57.1554192,12.5052807 57.007704,12.4232141 C56.8548058,12.3369923 56.7288592,12.2097372 56.6448948,12.0549534 L56.6448948,6.71906922 C56.7070906,6.47962187 56.8340739,6.26250909 57.0123687,6.09162367 C57.1616388,5.93787874 57.3663669,5.84957928 57.5804244,5.84646283 C57.7784146,5.83763288 57.9665571,5.93320406 58.0774731,6.09785657 C58.2210419,6.35911908 58.3050064,6.64946847 58.3215919,6.94657017 C58.3744584,7.5122061 58.3972636,8.08043907 58.3905257,8.64763323 L58.3905257,9.86149105 L58.3936417,9.86149105 L58.3920806,9.86252987 Z M60.5160698,8.49544652 C60.5357651,7.67010631 60.473051,6.84424668 60.327409,6.03085287 C60.2543288,5.54936113 60.0387164,5.10059213 59.70856,4.74323903 C59.3825499,4.462239 58.9611729,4.31888223 58.5320213,4.34381384 C58.1453703,4.34329444 57.7675303,4.45808373 57.4467033,4.67415769 C57.1149919,4.88867343 56.8465131,5.18733336 56.6692548,5.54105059 L56.6521509,5.54105059 L56.6521509,0.591086949 L54.6173092,0.591086949 L54.6173092,13.9227466 L56.3587937,13.9227466 L56.5728512,13.0335192 L56.6179432,13.0335192 C56.7827623,13.3513972 57.0382837,13.6126597 57.3528912,13.7830257 C57.6840842,13.968974 58.0588144,14.0635064 58.4382092,14.0588317 C59.1145894,14.0822051 59.7375847,13.6916098 60.0128015,13.0719554 C60.4077453,12.0928703 60.5793023,11.0379515 60.5160698,9.98407147 L60.5160698,8.49544652 Z M40.4107343,11.9931438 C40.3278065,12.1676651 40.1982317,12.3162159 40.0365225,12.4221753 C39.8820694,12.5291734 39.6985915,12.5868278 39.5109673,12.5873472 C39.3176418,12.5992936 39.1362371,12.4933343 39.0517544,12.318813 C38.941875,12.0336577 38.8947098,11.7282454 38.9144052,11.4233526 L38.9144052,4.52768448 L36.805965,4.52768448 L36.805965,11.545933 C36.7551717,12.2144119 36.9096248,12.8828907 37.2485923,13.4609924 C37.5761572,13.883791 38.0934196,14.113889 38.6257127,14.0728557 C39.4990464,14.0879186 40.295672,13.5737041 40.6429323,12.770179 L40.687506,12.770179 L40.8715021,13.9191108 L42.5212477,13.9191108 L42.5212477,4.52768448 L40.4107343,4.52768448 L40.4107343,11.9931438 Z M28.3094899,1.05907407 L27.4418574,5.0138509 C27.1977386,6.16901555 27.0401757,6.99175872 26.9686505,7.4820804 L26.9074912,7.4820804 C26.804868,6.79801932 26.6483417,5.97267911 26.4342842,5.00138509 L25.5936033,1.06426815 L23.4981205,1.06426815 L25.899918,9.75345407 L25.899918,13.9222272 L27.9782969,13.9222272 L27.9782969,9.75241525 L30.4049727,1.05907407 L28.3094899,1.05907407 Z M51.2343718,11.9936632 C51.1509256,12.1681845 51.0213509,12.3167353 50.8601599,12.4232141 C50.7051885,12.5307317 50.5217107,12.5889054 50.3325316,12.5894248 C50.1397243,12.6013712 49.958838,12.4954119 49.873837,12.3208906 C49.7644759,12.0352159 49.717829,11.7287648 49.7380426,11.4233526 L49.7380426,4.52768448 L47.6296024,4.52768448 L47.6296024,11.545933 C47.5788091,12.2144119 47.7332622,12.8828907 48.0722297,13.4609924 C48.3992764,13.883791 48.9170571,14.113889 49.4493501,14.0728557 C50.3226839,14.0879186 51.1193094,13.5737041 51.4665697,12.770179 L51.5111434,12.770179 L51.6951396,13.9191108 L53.3448852,13.9191108 L53.3448852,4.52768448 L51.2343718,4.52768448 L51.2343718,11.9936632 Z M33.4059237,12.173898 L33.4074786,12.173898 C33.3292155,12.4528204 33.0716209,12.6418851 32.7829283,12.6335746 C32.4968273,12.6418851 32.2428608,12.4512622 32.1708173,12.173898 C32.0360595,11.6856539 31.9800832,11.1792306 32.0044433,10.6743655 L32.0044433,7.74593996 C31.9821564,7.24626892 32.0417608,6.74659787 32.1817015,6.26614495 C32.2413059,6.05007099 32.4092348,5.8812632 32.6248472,5.82205063 C32.9632964,5.72855708 33.3126299,5.92749056 33.4059237,6.26614495 C33.5474193,6.74607847 33.6070237,7.24626892 33.583182,7.74593996 L33.583182,10.6743655 C33.6065054,11.1802694 33.5463827,11.6866928 33.4059237,12.173898 L33.4059237,12.173898 Z M34.5005711,4.77076769 C34.0004126,4.462239 33.4183629,4.31316874 32.8316484,4.34277503 C32.234568,4.31628519 31.6426706,4.46327781 31.1274814,4.76609301 C30.6636038,5.08812632 30.3256729,5.56130752 30.1717381,6.1056477 C29.9431683,6.89670695 29.8400268,7.71945012 29.8654234,8.5427127 L29.8654234,9.90616019 C29.8436549,10.7174764 29.9338389,11.5272343 30.1339023,12.3130995 C30.2665868,12.8506874 30.5863773,13.3228297 31.0352242,13.6459019 C31.5628526,13.9611829 32.1734087,14.1092143 32.7865564,14.0718169 C33.3888198,14.1019426 33.9874552,13.95495 34.5078273,13.6484989 C34.9618572,13.3275044 35.287349,12.855362 35.4262531,12.3156965 C35.6361642,11.529312 35.7315312,10.7164375 35.708726,9.90200492 L35.708726,8.5369992 C35.7330861,7.71789189 35.6356459,6.8998234 35.4195152,6.11032238 C35.2733549,5.57273451 34.949418,5.09955331 34.5005711,4.77076769 L34.5005711,4.77076769 Z M48.2531161,1.06426815 L42.0003573,1.06426815 L42.0003573,2.7648118 L44.09584,2.7648118 L44.09584,13.9196302 L46.1617797,13.9196302 L46.1617797,2.7648118 L48.2531161,2.7648118 L48.2531161,1.06426815 Z M8.55452455,10.7148793 L8.55452455,4.28512068 L14.1096529,7.50181793 L8.55452455,10.7148793 Z M19.0480056,0.446691367 C17.3811561,0 10.6935444,0 10.6935444,0 C10.6935444,0 4.00748766,0 2.33908326,0.446691367 C1.41599279,0.695488071 0.694520624,1.41746598 0.445737117,2.34253264 C6.19948537e-13,4.01295059 6.19948537e-13,7.4997403 6.19948537e-13,7.4997403 C6.19948537e-13,7.4997403 6.19948537e-13,10.9870494 0.445737117,12.6574674 C0.694002325,13.5814952 1.4144379,14.3039925 2.33701007,14.5533086 C4.00748766,15 10.6914712,15 10.6914712,15 C10.6914712,15 17.377528,15 19.0459324,14.5533086 C19.9690228,14.3045119 20.6899767,13.582534 20.9392785,12.6574674 C21.3850156,10.9870494 21.3850156,7.4997403 21.3850156,7.4997403 C21.3850156,7.4997403 21.3829424,4.01295059 20.9392785,2.34253264 C20.690495,1.4185048 19.9700594,0.696007479 19.0480056,0.446691367 L19.0480056,0.446691367 Z" id="youtube" fill="#FFFFFF" mask="url(#mask-2)"></path>
                </g>
            </g>
        </g>
    </g>
</svg>