<?xml version="1.0" encoding="utf-8"?>
<!-- Generator: Adobe Illustrator 25.0.0, SVG Export Plug-In . SVG Version: 6.00 Build 0)  -->
<svg version="1.1" id="Layer_1" xmlns="http://www.w3.org/2000/svg" xmlns:xlink="http://www.w3.org/1999/xlink" x="0px" y="0px"
	 viewBox="0 0 213 80" style="enable-background:new 0 0 213 80;" xml:space="preserve">
<style type="text/css">
	.st0{fill:#FF0000;}
	.st1{fill:#232323;}
</style>
<desc>Created with Sketch.</desc>
<path class="st0" d="M40.2,11.7c-16.1,0-29.2,12.9-29.2,28.8S24,69.3,40.2,69.3c16.1,0,29.2-12.9,29.2-28.8S56.3,11.7,40.2,11.7z
	 M40.2,59.2c-10.5,0-19-8.4-19-18.7s8.5-18.7,19-18.7s19,8.4,19,18.7S50.6,59.2,40.2,59.2z"/>
<path class="st1" d="M100.8,34.8c-1.4,6.8-2.4,15.2-3,18.7h-0.4c-0.4-3.6-1.5-11.9-2.9-18.6l-3.6-16.8H80.1v45.3h6.7V26.1l0.7,3.5
	l6.8,33.8h6.7l6.7-33.8l0.7-3.5v37.3h6.7V18.1h-11C104.3,18.1,100.8,34.8,100.8,34.8z M133.4,56.6c-0.6,1.2-1.9,2.1-3.3,2.1
	c-1.6,0-2.2-1.2-2.2-4.1V30.3h-7.7V55c0,6.1,2.1,8.9,6.6,8.9c3.1,0,5.6-1.3,7.3-4.6h0.2l0.7,4h6V30.3h-7.7L133.4,56.6L133.4,56.6
	L133.4,56.6z M155.9,43.4c-2.5-1.8-4.1-3-4.1-5.6c0-1.8,0.9-2.9,3-2.9c2.2,0,2.9,1.5,2.9,6.4l6.5-0.3c0.5-8-2.2-11.4-9.3-11.4
	c-6.6,0-9.8,2.9-9.8,8.7c0,5.3,2.7,7.8,7,11c3.7,2.8,5.9,4.4,5.9,6.6c0,1.7-1.1,2.9-3.1,2.9c-2.3,0-3.6-2.1-3.3-5.8l-6.5,0.1
	c-1,6.8,1.8,10.8,9.4,10.8c6.6,0,10.1-3,10.1-8.9C164.7,49.8,161.9,47.7,155.9,43.4z M176.3,30.3h-7.3v33.1h7.3L176.3,30.3
	L176.3,30.3z M172.7,17.3c-2.8,0-4.2,1-4.2,4.6c0,3.7,1.3,4.6,4.2,4.6c2.9,0,4.2-0.9,4.2-4.6C176.8,18.4,175.6,17.3,172.7,17.3z
	 M201,51.4l-6.7-0.3c0,5.8-0.7,7.7-2.9,7.7c-2.3,0-2.7-2.1-2.7-9v-6.4c0-6.6,0.4-8.7,2.7-8.7c2.1,0,2.7,2,2.7,8.1l6.7-0.4
	c0.4-5.1-0.2-8.6-2.3-10.6c-1.5-1.5-3.8-2.2-7-2.2c-7.5,0-10.5,3.9-10.5,14.8v4.6c0,11.2,2.6,14.8,10.2,14.8c3.2,0,5.4-0.6,7-2.1
	C200.3,59.9,201.1,56.6,201,51.4L201,51.4z"/>
<path class="st0" d="M40.2,24.7c-8.9,0-16.1,7.1-16.1,15.8s7.2,15.8,16.1,15.8s16.1-7.1,16.1-15.8S49.1,24.7,40.2,24.7z M34.3,49.3
	v-17l15.2,8.5L34.3,49.3z"/>
</svg>
